<svg id="Layer_1" xmlns="http://www.w3.org/2000/svg" viewBox="0 0 340.5 44"><style>.st0{fill:url(#SVGID_1_)}.st1,.st2{fill:#f0c061}.st2{opacity:.35}.st3{opacity:.7}.st4{fill:url(#SVGID_2_)}.st5{fill:url(#SVGID_3_)}.st6{fill:url(#SVGID_4_)}.st7{fill:url(#SVGID_5_)}.st8{fill:url(#SVGID_6_)}.st9{fill:url(#SVGID_7_)}.st10,.st11{opacity:.93;fill:#f0c061}.st11{opacity:.55}.st12{fill:url(#SVGID_8_)}.st13{fill:url(#SVGID_9_)}.st14{fill:url(#SVGID_10_)}.st15{fill:url(#SVGID_11_)}.st16{fill:url(#SVGID_12_)}.st17{fill:#fff}.st18{display:none}.st19{display:inline}.st20{clip-path:url(#SVGID_14_)}.st20,.st21{opacity:0}.st22{clip-path:url(#SVGID_14_)}.st23{opacity:0}.st23,.st24{clip-path:url(#SVGID_20_)}.st25{opacity:0}.st25,.st26{clip-path:url(#SVGID_26_)}.st27{clip-path:url(#SVGID_32_);fill:#cea758}.st28{clip-path:url(#SVGID_34_);fill:#143554}.st29{clip-path:url(#SVGID_36_);fill:#f0c061}.st30{clip-path:url(#SVGID_38_);fill:#143554}.st31{clip-path:url(#SVGID_40_);fill:#f0c061}.st32,.st33{clip-path:url(#SVGID_42_);fill:#143554}.st33{clip-path:url(#SVGID_44_)}.st34,.st35{clip-path:url(#SVGID_46_);fill:#fff}.st35{clip-path:url(#SVGID_48_)}.st36,.st37{clip-path:url(#SVGID_50_);fill:#fff}.st37{clip-path:url(#SVGID_52_)}.st38,.st39{clip-path:url(#SVGID_54_);fill:#fff}.st39{clip-path:url(#SVGID_56_)}.st40,.st41{clip-path:url(#SVGID_58_);fill:#fff}.st41{clip-path:url(#SVGID_60_)}.st42,.st43{clip-path:url(#SVGID_62_);fill:#fff}.st43{clip-path:url(#SVGID_64_)}.st44,.st45{clip-path:url(#SVGID_66_);fill:#fff}.st45{clip-path:url(#SVGID_68_)}.st46,.st47{clip-path:url(#SVGID_70_);fill:#fff}.st47{clip-path:url(#SVGID_72_)}.st48,.st49{clip-path:url(#SVGID_74_);fill:#fff}.st49{clip-path:url(#SVGID_76_)}.st50,.st51{clip-path:url(#SVGID_78_);fill:#fff}.st51{clip-path:url(#SVGID_80_)}.st52,.st53{clip-path:url(#SVGID_82_);fill:#fff}.st53{clip-path:url(#SVGID_84_)}.st54,.st55{clip-path:url(#SVGID_86_);fill:#fff}.st55{clip-path:url(#SVGID_88_)}.st56,.st57{clip-path:url(#SVGID_90_);fill:#fff}.st57{clip-path:url(#SVGID_92_)}.st58,.st59{clip-path:url(#SVGID_94_);fill:#fff}.st59{clip-path:url(#SVGID_96_)}.st60,.st61{clip-path:url(#SVGID_98_);fill:#fff}.st61{clip-path:url(#SVGID_100_)}.st62{fill:url(#SVGID_101_)}.st63{fill:url(#SVGID_102_)}.st64{fill:url(#SVGID_103_)}.st65{fill:url(#SVGID_104_)}.st66{fill:url(#SVGID_105_)}.st67{fill:url(#SVGID_106_)}.st68{fill:#231f20}.st69,.st70,.st71,.st72,.st73{fill:url(#SVGID_107_);stroke:#fff;stroke-width:.5;stroke-miterlimit:10}.st70,.st71,.st72,.st73{fill:url(#SVGID_108_);stroke-width:.25}.st71,.st72,.st73{fill:url(#SVGID_109_);stroke-width:.5}.st72,.st73{fill:url(#SVGID_110_)}.st73{fill:url(#SVGID_111_)}.st74{fill:url(#SVGID_112_)}.st75{fill:url(#SVGID_113_);stroke:#fff;stroke-width:.25;stroke-miterlimit:10}.st76{fill:url(#SVGID_114_)}.st77{fill:url(#SVGID_115_)}.st78{fill:url(#SVGID_116_)}.st79{fill:url(#SVGID_117_)}.st80{fill:url(#SVGID_118_)}.st81{fill:#143553}</style><path class="st17" d="M27.9 11.3c.9.1 2 .6 2.5.6.2 0 .5.2.5 1 0 .7.2 2.1.2 2.9 0 .7-.2 1.1-.5 1.1-.2 0-.4-.4-.5-.9-.3-1.2-.9-2.1-1.4-2.5-1.8-1.4-3.5-1.7-5.3-1.7-5.3 0-8.7 4.4-8.7 9.4 0 2.2.4 4 1.2 5.4 1.8 3.8 5.7 5.3 8.4 5.3.6 0 2.2-.1 3.6-.9 1.5-.8 2.3-1.8 3.1-3.2.4-.7.6-.9.7-.9.3 0 .4.7.3 1.1-.1.8-.9 2.6-1.3 3.3-.1.3-.7.7-1 .9-.5.2-3.2.9-6 .9-4.7 0-8.1-2.3-9.4-3.9-1.3-1.5-2.8-3.8-2.8-7.6s2.2-6.8 3.6-7.9c2.8-2.3 5.9-3 8.9-3 1.2.1 2.7.3 3.9.6zM46.1 11.4c.2.1.4.6.4.6.1.6.3 2.5.3 2.7 0 .6 0 .9-.2.9-.3 0-.7-.2-.8-.7-.4-1.2-1.3-2.2-1.6-2.4-.6-.5-1.4-.8-2.3-.8-2.2 0-3.8 1.7-3.8 3.9 0 2.3 1.7 3.4 4.6 5.3 2.5 1.7 4.6 3.4 4.6 6.4 0 1.7-.9 3.5-2.7 4.7-1.1.7-3 1.2-4.5 1.2-1.1 0-3.3-.4-4.3-.9-.3-.2-.8-.9-.8-1.1-.2-1.1-.5-2.6-.5-3.1 0-.1.3-.6.5-.6.3 0 .8.9 1.2 1.9.9 1.8 3 2.6 4.3 2.6 2.3 0 4-1.6 4-4 0-1.4-.7-2.9-4.1-5.1-2.8-1.8-4.8-3.7-4.8-6.5 0-1.6.7-3 1.8-4 1-.9 2.6-1.6 4.9-1.6 1.5 0 3.2.5 3.8.6zM53.2 14.6c-.1-1.5-.1-2-1.9-2.3-.7-.1-.9-.4-.9-.6 0-.3.4-.4.8-.4.9 0 2.5.1 3.6.1 1.6 0 2.4-.1 3.5-.1.5 0 .8.1.8.4 0 .3-.3.5-.9.6-1.9.4-1.9 1.2-2 2.1-.2 1-.2 3.2-.2 9.7 0 1.8 0 3.9.1 4.9.1 1.8.3 2.4 2.4 2.8.6.1.9.3.9.6s-.5.4-.9.4c-1.7 0-4-.2-4.9-.2-1 0-1.3.1-2.5.1-.6 0-.9-.2-.9-.5 0-.2.3-.4 1-.6 1.7-.4 1.8-.9 1.9-2.4.1-1.2.2-4.6.2-7.4 0-2-.1-6.1-.1-7.2zM73.5 11.4c.2.1.4.6.4.6.1.6.3 2.5.3 2.7 0 .6 0 .9-.2.9-.3 0-.7-.2-.8-.7-.4-1.2-1.3-2.2-1.6-2.4-.6-.5-1.4-.8-2.3-.8-2.2 0-3.8 1.7-3.8 3.9 0 2.3 1.7 3.4 4.6 5.3 2.5 1.7 4.6 3.4 4.6 6.4 0 1.7-.9 3.5-2.7 4.7-1.1.7-3 1.2-4.5 1.2-1.1 0-3.3-.4-4.3-.9-.3-.2-.8-.9-.8-1.1-.2-1.1-.5-2.6-.5-3.1 0-.1.3-.6.5-.6.3 0 .8.9 1.2 1.9.9 1.8 3 2.6 4.3 2.6 2.3 0 4-1.6 4-4 0-1.4-.7-2.9-4.1-5.1-2.8-1.8-4.8-3.7-4.8-6.5 0-1.6.7-3 1.8-4 1-.9 2.6-1.6 4.9-1.6 1.5 0 3.2.5 3.8.6zM86.6 36.6v-29c0-.3.2-.5.5-.5s.5.2.5.5v29c0 .3-.2.5-.5.5s-.5-.3-.5-.5zM102.7 20c-1.6 0-2.9-.9-2.9-3.4 0-2.1 1.3-3.3 2.9-3.3h1.9c.1 0 .1 0 .1.1l-.1.7c0 .1-.1.1-.2.1-.6-.2-.8-.3-1.8-.3s-1.5 1-1.5 2.8c0 2.2.9 2.8 1.9 2.8.5 0 1-.3 1.4-.7h.1l.3.3v.1c-.5.5-1.3.8-2.1.8zM110.6 19.9h-4.1c-.1 0-.1 0-.1-.1v-6.4c0-.1 0-.1.1-.1h4c.1 0 .2 0 .2.1v.5c0 .1-.1.1-.2.1 0 0-1.2-.2-1.7-.2h-.9c-.1 0-.3.1-.3.3v2s0 .1.1.1l2-.1c.1 0 .1 0 .1.1v.5c0 .1-.1.1-.1.1l-2-.1s-.1 0-.1.1v2.3c0 .1.1.3.3.3h.9c.6 0 1.9-.2 1.9-.2.1 0 .2 0 .2.1v.6h-.3zM117.5 18.1v1.8c0 .2-.6.2-.6.1l-3.5-4.8c-.1-.1-.1 0-.1 0l.1 4.5c0 .1 0 .2-.1.2h-.8c-.1 0-.1-.1-.1-.2l.1-4.7v-1.6c0-.1 0-.1.1-.1h.6c.1 0 .2 0 .2.1l3.1 4.3c.1.1.2.1.2 0l-.1-4.1c0-.1 0-.2.1-.2h.7c.1 0 .1.1.1.2v4.5zM124.3 13.9c0 .1-.1.1-.1.1s-1.1-.1-1.7-.1c-.1 0-.2.1-.2.2V19.9c0 .1 0 .1-.1.1h-1c-.1 0-.1 0-.1-.1V14.1c0-.1-.1-.2-.2-.2-.6 0-1.7.1-1.7.1-.1 0-.1 0-.1-.1v-.5c0-.1.1-.1.2-.1h4.9c.1 0 .2 0 .2.1l-.1.5zM130.2 19.9H126c-.1 0-.1 0-.1-.1v-6.4c0-.1 0-.1.1-.1h4c.1 0 .2 0 .2.1v.5c0 .1-.1.1-.2.1 0 0-1.2-.2-1.7-.2h-.9c-.1 0-.3.1-.3.3v2s0 .1.1.1l2-.1c.1 0 .1 0 .1.1v.5c0 .1-.1.1-.1.1l-2-.1s-.1 0-.1.1v2.3c0 .1.1.3.3.3h.9c.6 0 1.9-.2 1.9-.2.1 0 .2 0 .2.1v.6h-.2zM137.2 19.9H136c-.1 0-.1-.1-.2-.1l-1.4-2.5c-.2-.3-.4-.4-.6-.4h-.4c-.1 0-.2.1-.2.2v2.8c0 .1 0 .1-.1.1h-1c-.1 0-.1 0-.1-.1v-6.4c0-.1 0-.1.1-.1h2.9c1 0 1.8.7 1.8 1.6 0 .9-.7 1.6-1.6 1.8-.1 0-.1.1 0 .1.1.1.2.2.4.5l1.5 2.1.3.4c-.1-.1-.2 0-.2 0zm-3-6.2h-.7c-.1 0-.3.1-.3.3v2.2c0 .1.1.2.2.2h.4c1 0 1.6-.4 1.6-1.4-.1-.8-.5-1.3-1.2-1.3zM146.1 14s-1.3-.2-1.7-.2h-.8c-.1 0-.3.1-.3.3v2s0 .1.1.1l1.9-.1c.1 0 .1 0 .1.1v.5c0 .1-.1.1-.1.1l-1.9-.1s-.1 0-.1.1v3c0 .1 0 .1-.1.1h-1c-.1 0-.1 0-.1-.1v-6.4c0-.1 0-.1.1-.1h3.9c.1 0 .2 0 .2.1v.5c0 .1-.1.1-.2.1zM150.2 20.1c-2.2 0-2.9-1.7-2.9-3.5s.7-3.5 2.9-3.5 2.9 1.7 2.9 3.5c0 1.7-.7 3.5-2.9 3.5zm-.1-6.5c-1.3 0-1.5 1.6-1.5 2.9 0 1.2.1 3.2 1.6 3.2 1.3 0 1.5-1.6 1.5-2.9.1-1.3 0-3.2-1.6-3.2zM160.1 19.9h-1.2c-.1 0-.1-.1-.2-.1l-1.4-2.5c-.2-.3-.4-.4-.6-.4h-.4c-.1 0-.2.1-.2.2v2.8c0 .1 0 .1-.1.1h-1c-.1 0-.1 0-.1-.1v-6.4c0-.1 0-.1.1-.1h2.9c1 0 1.8.7 1.8 1.6 0 .9-.7 1.6-1.6 1.8-.1 0-.1.1 0 .1.1.1.2.2.4.5l1.5 2.1.3.4c0-.1-.1 0-.2 0zm-2.9-6.2h-.7c-.1 0-.3.1-.3.3v2.2c0 .1.1.2.2.2h.4c1 0 1.6-.4 1.6-1.4-.1-.8-.5-1.3-1.2-1.3zM167.1 20c-1 0-1.7-.2-2.3-.5-.1 0-.1-.1-.1-.2l.2-.7c0-.1.1-.1.2 0 .5.5 1.2.9 2 .9.6 0 1.3-.5 1.3-1.1 0-1.7-3.7-1-3.7-3.5 0-1.1.8-1.8 2-1.8 1 0 1.8.2 2.3.2.1 0 .1.1.1.1l-.2.7c0 .1-.1.1-.2.1-.5-.3-1-.6-2-.6-.5 0-1 .3-1 .9 0 1.8 3.7.9 3.7 3.7.1 1.3-.9 1.8-2.3 1.8zM176 13.9c0 .1-.1.1-.1.1s-1.1-.1-1.7-.1c-.1 0-.2.1-.2.2V19.9c0 .1 0 .1-.1.1h-1c-.1 0-.1 0-.1-.1V14.1c0-.1-.1-.2-.2-.2-.6 0-1.7.1-1.7.1-.1 0-.1 0-.1-.1v-.5c0-.1.1-.1.2-.1h4.9c.1 0 .2 0 .2.1l-.1.5zM182.8 19.9h-1.2c-.1 0-.1-.1-.2-.1l-1.4-2.5c-.2-.3-.4-.4-.6-.4h-.4c-.1 0-.2.1-.2.2v2.8c0 .1 0 .1-.1.1h-1c-.1 0-.1 0-.1-.1v-6.4c0-.1 0-.1.1-.1h2.9c1 0 1.8.7 1.8 1.6 0 .9-.7 1.6-1.6 1.8-.1 0-.1.1 0 .1.1.1.2.2.4.5l1.5 2.1.3.4c-.1-.1-.1 0-.2 0zm-3-6.2h-.7c-.1 0-.3.1-.3.3v2.2c0 .1.1.2.2.2h.4c1 0 1.6-.4 1.6-1.4 0-.8-.5-1.3-1.2-1.3zM190 19.9h-1.2c-.1 0-.2 0-.2-.1 0 0-.2-.5-.3-.8l-.4-.9c0-.1-.1-.1-.1-.1h-2.1c-.1 0-.1 0-.1.1l-.5 1.7c0 .1-.1.1-.2.1h-.8c-.1 0-.1-.1-.1-.2l2.5-6.4c0-.1.8-.1.8 0l2.3 5.7c.1.3.4.7.4.7.2.2.1.2 0 .2zm-3.1-4.9c0-.1-.1-.1-.1 0l-.9 2.5c0 .1 0 .1.1.1h1.7c.1 0 .1-.1.1-.1l-.9-2.5zM195.6 13.9c0 .1-.1.1-.1.1s-1.1-.1-1.7-.1c-.1 0-.2.1-.2.2V19.9c0 .1 0 .1-.1.1h-1c-.1 0-.1 0-.1-.1V14.1c0-.1-.1-.2-.2-.2-.6 0-1.7.1-1.7.1-.1 0-.1 0-.1-.1v-.5c0-.1.1-.1.2-.1h4.9c.1 0 .2 0 .2.1l-.1.5zM201.4 19.9h-4.1c-.1 0-.1 0-.1-.1v-6.4c0-.1 0-.1.1-.1h4c.1 0 .2 0 .2.1v.5c0 .1-.1.1-.2.1 0 0-1.2-.2-1.7-.2h-.9c-.1 0-.3.1-.3.3v2s0 .1.1.1l2-.1c.1 0 .1 0 .1.1v.5c0 .1-.1.1-.1.1l-2-.1s-.1 0-.1.1v2.3c0 .1.1.3.3.3h.9c.6 0 1.9-.2 1.9-.2.1 0 .2 0 .2.1v.6h-.3zM208 19.9c-.1 0-.4-.3-.4-.3h-.2c-.4.2-1 .4-1.7.4-1.6 0-2.9-.9-2.9-3.4 0-2.1 1.3-3.3 2.9-3.3h1.9c.1 0 .1 0 .1.1l-.1.7c0 .1-.1.1-.2.1-.6-.2-.8-.3-1.8-.3s-1.5 1-1.5 2.8c0 2.2.9 2.9 1.9 2.9.4 0 1-.3 1-.7 0-.1-.1-1.8-.1-1.8v-.3c0-.1.1-.2.1-.2h1s.1 0 .1.1v3.2h-.1zM211.2 19.9h-1c-.1 0-.1 0-.1-.1v-6.4c0-.1 0-.1.1-.1h1c.1 0 .1 0 .1.1v6.4c.1.1 0 .1-.1.1zM216.1 20c-1.6 0-2.9-.9-2.9-3.4 0-2.1 1.3-3.3 2.9-3.3h1.9c.1 0 .1 0 .1.1l-.1.7c0 .1-.1.1-.2.1-.6-.2-.8-.3-1.8-.3s-1.5 1-1.5 2.8c0 2.2.9 2.8 1.9 2.8.5 0 1-.3 1.4-.7h.1l.3.3v.1c-.4.5-1.2.8-2.1.8zM226.9 17.3h-.8v2.5c0 .1-.1.1-.1.1h-2.5c-1.2 0-1.8-.8-1.8-1.5s.5-1.3 1.3-1.5c-.5-.2-.8-.7-.8-1.2 0-.9.7-1.4 1.7-1.4h1c.1 0 .2 0 .2.1v.4c0 .1-.1.1-.1.1s-.4-.2-.6-.2c-.5 0-.9.3-.9 1 0 .6.4 1.1 1 1.1h.8v-.7c0-.1.1-.1.1-.1h.6c.1 0 .1 0 .1.1v.6h.8c.1 0 .1 0 .1.1v.3c0 .1 0 .2-.1.2zm-1.9-.1h-1c-.7 0-1 .5-1 1.1 0 .6.4 1.2.9 1.2s.8 0 1.1-.1v-2.2zM101 32.8h-1c-.1 0-.1 0-.1-.1v-6.4c0-.1 0-.1.1-.1h1c.1 0 .1 0 .1.1v6.4c.1 0 0 .1-.1.1zM108.4 31v1.8c0 .2-.6.2-.6.1l-3.5-4.8c-.1-.1-.1 0-.1 0l.1 4.5c0 .1 0 .2-.1.2h-.8c-.1 0-.1-.1-.1-.2l.1-4.7v-1.6c0-.1 0-.1.1-.1h.6c.1 0 .2 0 .2.1l3.1 4.3c.1.1.2.1.2 0l-.1-4.1c0-.1 0-.2.1-.2h.7c.1 0 .1.1.1.2V31zM115.2 26.8c0 .1-.1.1-.1.1s-1.1-.1-1.7-.1c-.1 0-.2.1-.2.2V32.8c0 .1 0 .1-.1.1h-1c-.1 0-.1 0-.1-.1V27c0-.1-.1-.2-.2-.2-.6 0-1.7.1-1.7.1-.1 0-.1 0-.1-.1v-.5c0-.1.1-.1.2-.1h4.9c.1 0 .2 0 .2.1l-.1.5zM121 32.8h-4.1c-.1 0-.1 0-.1-.1v-6.4c0-.1 0-.1.1-.1h4c.1 0 .2 0 .2.1v.5c0 .1-.1.1-.2.1 0 0-1.2-.2-1.7-.2h-.9c-.1 0-.3.1-.3.3v2s0 .1.1.1l2-.1c.1 0 .1 0 .1.1v.5c0 .1-.1.1-.1.1l-2-.1s-.1 0-.1.1V32c0 .1.1.3.3.3h.9c.6 0 1.9-.2 1.9-.2.1 0 .2 0 .2.1v.6h-.3zM128 32.8h-1.2c-.1 0-.1-.1-.2-.1l-1.4-2.5c-.2-.3-.4-.4-.6-.4h-.4c-.1 0-.2.1-.2.2v2.8c0 .1 0 .1-.1.1h-1c-.1 0-.1 0-.1-.1v-6.4c0-.1 0-.1.1-.1h2.9c1 0 1.8.7 1.8 1.6 0 .9-.7 1.6-1.6 1.8-.1 0-.1.1 0 .1.1.1.2.2.4.5l1.5 2.1.3.4c0-.1-.1 0-.2 0zm-2.9-6.2h-.7c-.1 0-.3.1-.3.3v2.2c0 .1.1.2.2.2h.4c1 0 1.6-.4 1.6-1.4-.1-.8-.6-1.3-1.2-1.3zM134.9 31v1.8c0 .2-.6.2-.6.1l-3.5-4.8c-.1-.1-.1 0-.1 0l.1 4.5c0 .1 0 .2-.1.2h-.8c-.1 0-.1-.1-.1-.2l.1-4.7v-1.6c0-.1 0-.1.1-.1h.6c.1 0 .2 0 .2.1l3.1 4.3c.1.1.2.1.2 0l-.1-4.1c0-.1 0-.2.1-.2h.7c.1 0 .1.1.1.2V31zM142.3 32.8h-1.2c-.1 0-.2 0-.2-.1 0 0-.2-.5-.3-.8l-.4-.9c0-.1-.1-.1-.1-.1H138c-.1 0-.1 0-.1.1l-.5 1.7c0 .1-.1.1-.2.1h-.8c-.1 0-.1-.1-.1-.2l2.5-6.4c0-.1.8-.1.8 0l2.3 5.7c.1.3.4.7.4.7.1.1.1.2 0 .2zm-3.1-4.9c0-.1-.1-.1-.1 0l-.9 2.5c0 .1 0 .1.1.1h1.7c.1 0 .1-.1.1-.1l-.9-2.5zM147.9 26.8c0 .1-.1.1-.1.1s-1.1-.1-1.7-.1c-.1 0-.2.1-.2.2V32.8c0 .1 0 .1-.1.1h-1c-.1 0-.1 0-.1-.1V27c0-.1-.1-.2-.2-.2-.6 0-1.7.1-1.7.1-.1 0-.1 0-.1-.1v-.5c0-.1.1-.1.2-.1h4.9c.1 0 .2 0 .2.1l-.1.5zM150.5 32.8h-1c-.1 0-.1 0-.1-.1v-6.4c0-.1 0-.1.1-.1h1c.1 0 .1 0 .1.1v6.4c.1 0 0 .1-.1.1zM155.4 33c-2.2 0-2.9-1.7-2.9-3.5s.7-3.5 2.9-3.5 2.9 1.7 2.9 3.5c0 1.7-.7 3.5-2.9 3.5zm0-6.5c-1.3 0-1.5 1.6-1.5 2.9 0 1.2.1 3.2 1.6 3.2 1.3 0 1.5-1.6 1.5-2.9 0-1.3-.1-3.2-1.6-3.2zM165.3 31v1.8c0 .2-.6.2-.6.1l-3.5-4.8c-.1-.1-.1 0-.1 0l.1 4.5c0 .1 0 .2-.1.2h-.8c-.1 0-.1-.1-.1-.2l.1-4.7v-1.6c0-.1 0-.1.1-.1h.6c.1 0 .2 0 .2.1l3.1 4.3c.1.1.2.1.2 0l-.1-4.1c0-.1 0-.2.1-.2h.7c.1 0 .1.1.1.2V31zM172.7 32.8h-1.2c-.1 0-.2 0-.2-.1 0 0-.2-.5-.3-.8l-.4-.9c0-.1-.1-.1-.1-.1h-2.1c-.1 0-.1 0-.1.1l-.5 1.7c0 .1-.1.1-.2.1h-.8c-.1 0-.1-.1-.1-.2l2.5-6.4c0-.1.8-.1.8 0l2.3 5.7c.1.3.4.7.4.7.2.1.1.2 0 .2zm-3.1-4.9c0-.1-.1-.1-.1 0l-.9 2.5c0 .1 0 .1.1.1h1.7c.1 0 .1-.1.1-.1l-.9-2.5zM178.3 32.8h-3.8c-.1 0-.1 0-.1-.1v-6.4c0-.1 0-.1.1-.1h1c.1 0 .1 0 .1.1V32c0 .1.1.3.3.3h.8c.6 0 1.7-.2 1.7-.2.1 0 .2 0 .2.1v.6h-.3zM185.3 32.9c-1 0-1.7-.2-2.3-.5-.1 0-.1-.1-.1-.2l.2-.7c0-.1.1-.1.2 0 .5.5 1.2.9 2 .9.6 0 1.3-.5 1.3-1.1 0-1.7-3.7-1-3.7-3.5 0-1.1.8-1.8 2-1.8 1 0 1.8.2 2.3.2.1 0 .1.1.1.1l-.2.7c0 .1-.1.1-.2.1-.5-.3-1-.6-2-.6-.5 0-1 .3-1 .9 0 1.8 3.7.9 3.7 3.7.2 1.3-.9 1.8-2.3 1.8zM194.2 26.8c0 .1-.1.1-.1.1s-1.1-.1-1.7-.1c-.1 0-.2.1-.2.2V32.8c0 .1 0 .1-.1.1h-1c-.1 0-.1 0-.1-.1V27c0-.1-.1-.2-.2-.2-.6 0-1.7.1-1.7.1-.1 0-.1 0-.1-.1v-.5c0-.1.1-.1.2-.1h4.9c.1 0 .2 0 .2.1l-.1.5zM200.8 27.1l-.1 3.7c0 1.4-.8 2.2-2.3 2.2-1.7 0-2.6-.7-2.6-2.2v-4.5c0-.1 0-.1.1-.1h1c.1 0 .1 0 .1.1v4.4c0 1 .7 1.6 1.4 1.6s1.4-.4 1.4-1.5v-3.7-.8c0-.1 0-.2.1-.2h.9c.1 0 .1.1.1.2 0 0-.1.5-.1.8zM205.1 32.8c-1.2 0-1.3-.1-1.6-.1-.3 0-.3.1-.5.1-.1 0-.1 0-.1-.1v-6.4c0-.1 0-.1.1-.1h2.4c1.4 0 2.7 1.1 2.7 3.2 0 1.8-1.1 3.4-3 3.4zm-.1-6.2h-.7c-.1 0-.2.1-.2.2v4.9c0 .4.3.6.8.6 1.6 0 1.8-1.9 1.8-3.1 0-2-.9-2.6-1.7-2.6zM211 32.8h-1c-.1 0-.1 0-.1-.1v-6.4c0-.1 0-.1.1-.1h1c.1 0 .1 0 .1.1v6.4s0 .1-.1.1zM217.5 32.8h-4.1c-.1 0-.1 0-.1-.1v-6.4c0-.1 0-.1.1-.1h4c.1 0 .2 0 .2.1v.5c0 .1-.1.1-.2.1 0 0-1.2-.2-1.7-.2h-.9c-.1 0-.3.1-.3.3v2s0 .1.1.1l2-.1c.1 0 .1 0 .1.1v.5c0 .1-.1.1-.1.1l-2-.1s-.1 0-.1.1V32c0 .1.1.3.3.3h.9c.6 0 1.9-.2 1.9-.2.1 0 .2 0 .2.1v.6h-.3zM221.4 32.9c-1 0-1.7-.2-2.3-.5-.1 0-.1-.1-.1-.2l.2-.7c0-.1.1-.1.2 0 .5.5 1.2.9 2 .9.6 0 1.3-.5 1.3-1.1 0-1.7-3.7-1-3.7-3.5 0-1.1.8-1.8 2-1.8 1 0 1.8.2 2.3.2.1 0 .1.1.1.1l-.2.7c0 .1-.1.1-.2.1-.5-.3-1-.6-2-.6-.5 0-1 .3-1 .9 0 1.8 3.7.9 3.7 3.7.1 1.3-.9 1.8-2.3 1.8zM239.5 36.6v-29c0-.3.2-.5.5-.5s.5.2.5.5v29c0 .3-.2.5-.5.5-.2 0-.5-.3-.5-.5zM257.6 15.1c0 .3-.1.6-.2.8-.1.2-.3.5-.5.6-.2.2-.5.3-.9.4-.4.1-.8.2-1.2.2h-.6c-.1 0-.1 0-.1.1l-.1.1v2.6c0 .1 0 .1-.1.1h-1c-.1 0-.1 0-.1-.1v-6.6c0-.1 0-.1.1-.1h2.5c.3 0 .6 0 .8.1.3.1.5.2.7.3.2.2.4.3.5.6.2.3.2.6.2.9zm-1.3 0c0-.5-.1-.8-.4-1.1-.3-.2-.7-.3-1.4-.3h-.2c-.1 0-.1 0-.2.1s-.1.1-.1.2v2.6c0 .1 0 .1.1.1l.1.1h.1c.3 0 .5 0 .7-.1.2 0 .4-.1.6-.3.2-.1.3-.3.4-.5.2-.2.3-.5.3-.8zM264.7 20c0 .1-.1.1-.1.1H263.2s0-.1-.1-.1l-1.4-2.6c-.2-.3-.4-.5-.6-.5h-.4c-.1 0-.1 0-.1.1l-.1.1V20c0 .1 0 .1-.1.1h-1c-.1 0-.1 0-.1-.1v-6.6-.1h3.1c.3 0 .5 0 .7.1l.6.3c.2.1.3.3.4.5.1.2.1.4.1.7 0 .5-.2.9-.5 1.2-.3.3-.7.6-1.2.7-.1 0-.1 0 0 .1l.2.2c.1.1.2.2.3.4l1.5 2.1.2.4zm-2-5.1c0-.4-.1-.7-.3-.9-.2-.2-.5-.3-.9-.3h-.7c-.1 0-.1 0-.2.1-.1 0-.1.1-.1.2v2.3c0 .1 0 .1.1.1l.1.1h.4c.5 0 .9-.1 1.2-.3.3-.3.4-.7.4-1.3zM271.6 16.6c0 .4 0 .9-.1 1.3s-.3.8-.5 1.2c-.2.3-.5.6-.9.8-.4.2-.9.3-1.4.3-.6 0-1.1-.1-1.4-.3-.4-.2-.7-.5-.9-.8-.2-.3-.4-.7-.5-1.1-.1-.4-.1-.9-.1-1.3s0-.9.1-1.3.3-.8.5-1.2c.2-.3.5-.6.9-.8.4-.2.9-.3 1.4-.3.6 0 1.1.1 1.4.3.4.2.7.5.9.8.2.3.4.7.5 1.1 0 .4.1.9.1 1.3zm-1.4.2v-1c0-.4-.1-.7-.2-1-.1-.3-.3-.6-.5-.8-.2-.2-.5-.3-.9-.3-.3 0-.6.1-.8.3-.2.2-.4.4-.5.7-.1.3-.2.6-.2.9 0 .3-.1.7-.1 1v1c0 .4.1.7.2 1 .1.3.3.6.5.8.2.2.5.3.9.3.3 0 .6-.1.8-.3.2-.2.4-.4.5-.7.1-.3.2-.6.2-.9.1-.3.1-.7.1-1zM276 16.7v1.7c0 .2 0 .4-.1.6-.1.2-.2.4-.4.5s-.4.3-.6.4c-.2.1-.5.1-.8.1h-1.3-.1s-.1 0 0-.1l.1-.7s0-.1.1-.1h.1l.6.3c.2.1.4.1.6.1.1 0 .1 0 .2-.1.1 0 .2-.1.2-.2s.1-.2.2-.4c0-.1.1-.3.1-.5v-5c0-.1.1-.1.2-.1h1.1v.1l-.2 3.4zM282.6 20.1H278.2c-.1 0-.1 0-.1-.1v-6.6c0-.1 0-.1.1-.1H282.4s.1 0 .1.1v.5s0 .1-.1.1h-.1c-.2 0-.5 0-.7-.1-.2 0-.4 0-.6-.1h-1.4c-.1 0-.1 0-.2.1-.1 0-.1.1-.1.2v2.1c0 .1 0 .1.1.1l2.1-.1c.1 0 .1 0 .1.1v.5c0 .1 0 .1-.1.1l-2.1-.1c-.1 0-.1 0-.1.1v2.3c0 .1 0 .1.1.2s.1.1.2.1h1.4c.2 0 .4 0 .6-.1.2 0 .5-.1.7-.1h.1s.1 0 .1.1l.1.7c0-.1 0 0 0 0zM288.9 19.3c-.3.3-.6.5-.9.7-.4.2-.8.2-1.2.2-.4 0-.8-.1-1.2-.2-.4-.1-.7-.3-1-.6-.3-.3-.5-.6-.7-1.1-.2-.5-.3-1-.3-1.7 0-.5.1-1 .2-1.4.2-.4.4-.8.6-1.1s.6-.5 1-.7.8-.2 1.2-.2h2c.1 0 .1 0 .1.1l-.1.7s0 .1-.1.1h-.1c-.1 0-.3-.1-.4-.1-.1 0-.2-.1-.4-.1-.1 0-.3 0-.5-.1h-.6c-.5 0-.9.2-1.2.7-.3.5-.4 1.2-.4 2.1 0 .6.1 1 .2 1.4.1.4.2.7.4.9.2.2.4.4.6.5.2.1.5.1.8.1.2 0 .5-.1.7-.2.3-.1.5-.3.7-.5h.1l.3.3c.3.2.3.2.2.2zM295.3 13.9c0 .1-.1.1-.1.1-.2 0-.4 0-.7-.1h-1.1s-.1 0-.1.1l-.1.1V20c0 .1 0 .1-.1.1h-1c-.1 0-.1 0-.1-.1v-5.9c0-.1 0-.1-.1-.1l-.1-.1h-1.1c-.2 0-.4 0-.7.1-.1 0-.1 0-.1-.1v-.5s0-.1.1-.1H295.3s.1 0 .1.1l-.1.5zM304.8 16.6c0 .4 0 .9-.1 1.3s-.3.8-.5 1.2c-.2.3-.5.6-.9.8-.4.2-.9.3-1.4.3-.6 0-1.1-.1-1.4-.3-.4-.2-.7-.5-.9-.8-.2-.3-.4-.7-.5-1.1-.1-.4-.1-.9-.1-1.3s0-.9.1-1.3.3-.8.5-1.2c.2-.3.5-.6.9-.8.4-.2.9-.3 1.4-.3.6 0 1.1.1 1.4.3.4.2.7.5.9.8.2.3.4.7.5 1.1 0 .4.1.9.1 1.3zm-1.4.2v-1c0-.4-.1-.7-.2-1-.1-.3-.3-.6-.5-.8-.2-.2-.5-.3-.9-.3-.3 0-.6.1-.8.3-.2.2-.4.4-.5.7-.1.3-.2.6-.2.9 0 .3-.1.7-.1 1v1c0 .4.1.7.2 1 .1.3.3.6.5.8.2.2.5.3.9.3.3 0 .6-.1.8-.3.2-.2.4-.4.5-.7.1-.3.2-.6.2-.9.1-.3.1-.7.1-1zM311.8 18.3v1.8s0 .1-.1.1h-.5l-3.7-5s-.1-.1-.1 0c0 0-.1 0-.1.1l.1 4.7v.1s0 .1-.1.1h-.8c-.1 0-.1-.1-.1-.2l.1-4.8v-1.7c0-.1 0-.1.1-.1h.6c.1 0 .1 0 .2.1l3.2 4.4c0 .1.1.1.1.1s.1 0 .1-.1l-.1-4.3v-.1s0-.1.1-.1h.8c.1 0 .1 0 .1.1v.1l.1 4.7z"/><g><path class="st17" d="M257.9 31v1.8s0 .1-.1.1h-.5l-3.6-4.8h-.1s-.1 0-.1.1l.1 4.5v.1h-.9c-.1 0-.1-.1-.1-.2l.1-4.6v-1.6c0-.1 0-.1.1-.1h.6c.1 0 .1 0 .2.1l3.1 4.2c0 .1.1.1.1.1s.1 0 .1-.1l-.1-4.1v-.1H257.7v.1l.2 4.5zM265.1 26.4V27.3l-.1 3.6c0 .7-.2 1.2-.6 1.6-.4.4-1 .5-1.7.5-.9 0-1.5-.2-1.9-.5-.4-.4-.7-.9-.7-1.6v-4.4c0-.1 0-.1.1-.1h1c.1 0 .1 0 .1.1v4.4c0 .3 0 .5.1.7.1.2.2.4.3.5.1.1.3.2.5.3.2.1.4.1.6.1.2 0 .3 0 .5-.1s.3-.1.5-.3c.1-.1.2-.3.3-.5.1-.2.1-.4.1-.7v-3.6-.3-.3-.3-.1h1c-.1-.1-.1 0-.1.1zM271.8 32c-.2.3-.6.5-.9.6-.4.1-.8.2-1.2.2-.4 0-.8-.1-1.1-.2-.4-.1-.7-.3-.9-.6-.3-.3-.5-.6-.7-1.1-.2-.4-.2-1-.2-1.6 0-.5.1-1 .2-1.4s.4-.7.6-1c.3-.3.6-.5.9-.7.4-.2.7-.2 1.2-.2h1.9c.1 0 .1 0 .1.1l-.1.6s0 .1-.1.1h-.1c-.1 0-.3-.1-.4-.1-.1 0-.2-.1-.4-.1-.1 0-.3 0-.4-.1h-.6c-.5 0-.9.2-1.1.7-.3.5-.4 1.1-.4 2 0 .5.1 1 .2 1.3.1.4.2.6.4.9.2.2.4.4.6.5.2.1.5.1.7.1.2 0 .5-.1.7-.2.3-.1.5-.3.7-.5h.1l.3.7c0-.1 0 0 0 0zM277.4 32.7h-3.9c-.1 0-.1 0-.1-.1v-6.2c0-.1 0-.1.1-.1h1c.1 0 .1 0 .1.1V32c0 .1 0 .1.1.2s.1.1.2.1h1.3c.2 0 .4 0 .6-.1.2 0 .4-.1.6-.1h.1s.1 0 .1.1l-.2.5c.1 0 .1 0 0 0zM283.2 32.7H279c-.1 0-.1 0-.1-.1v-6.2c0-.1 0-.1.1-.1h4.1s.1 0 .1.1v.5s0 .1-.1.1h-.1c-.2 0-.5 0-.7-.1-.2 0-.4 0-.6-.1h-1.4c-.1 0-.1 0-.2.1-.1 0-.1.1-.1.2v2c0 .1 0 .1.1.1l2-.1c.1 0 .1 0 .1.1v.5c0 .1 0 .1-.1.1l-2-.1c-.1 0-.1 0-.1.1V32c0 .1 0 .1.1.2s.1.1.2.1h1.4c.2 0 .4 0 .6-.1.2 0 .5-.1.7-.1h.1s.1 0 .1.1v.5c.1 0 .1 0 0 0zM290 32.6c.1.1 0 .1-.1.1h-1.2c-.1 0-.2 0-.2-.1s-.1-.2-.1-.3c0-.1-.1-.2-.1-.2 0-.1-.1-.2-.1-.2l-.4-.9c0-.1-.1-.1-.1-.1h-2.1c-.1 0-.1 0-.1.1l-.5 1.7c0 .1-.1.1-.2.1h-.9v-.1l2.5-6.3s.1-.1.2-.1h.6c.1 0 .1 0 .2.1l2.3 5.6c0 .1.1.1.1.2s.1.2.1.2.1.1.1.2zm-3.2-4.7c0-.1 0-.1 0 0h-.1l-.9 2.4v.1H287.7c.1 0 .1 0 .1-.1l-1-2.4zM296.6 32.6c.1 0 .1.1 0 0 0 .1 0 .1-.1.1h-1.3s0-.1-.1-.1l-1.4-2.5c-.2-.3-.4-.4-.6-.4h-.5l-.1.1v2.8c0 .1 0 .1-.1.1h-1c-.1 0-.1 0-.1-.1v-6.2-.1h3c.2 0 .5 0 .7.1l.6.3c.2.1.3.3.4.5.1.2.1.4.1.6 0 .5-.1.8-.4 1.2-.3.3-.7.5-1.1.6-.1 0-.1 0 0 .1l.2.2.3.3 1.5 2v.4zm-1.9-4.8c0-.4-.1-.6-.3-.9-.2-.2-.5-.3-.8-.3h-.7c-.1 0-.1 0-.2.1-.1 0-.1.1-.1.2v2.2c0 .1 0 .1.1.1l.1.1h.4c.5 0 .9-.1 1.2-.3.2-.3.3-.7.3-1.2zM301.5 32.7h-1c-.1 0-.1 0-.1-.1v-6.2c0-.1 0-.1.1-.1h1c.1 0 .1 0 .1.1v6.2c0 .1 0 .1-.1.1zM308.1 31c0 .3-.1.6-.2.9-.1.2-.3.4-.5.6-.2.1-.5.3-.8.3-.3.1-.6.1-1 .1-.5 0-1 0-1.3-.1-.4-.1-.7-.2-1-.3 0 0-.1 0-.1-.1v-.1l.2-.7s0-.1.1-.1c0 0 .1 0 .1.1.2.2.5.4.9.6.4.2.7.2 1.2.2.2 0 .3 0 .5-.1s.3-.1.4-.2l.3-.3c.1-.1.1-.3.1-.4 0-.3-.1-.5-.3-.7-.2-.2-.4-.3-.7-.4l-.9-.3c-.3-.1-.6-.2-.9-.4-.3-.2-.5-.4-.7-.6-.2-.2-.3-.6-.3-1 0-.5.2-1 .5-1.3s.8-.5 1.5-.5c.5 0 .9 0 1.3.1s.7.1 1 .1h.1v.1l-.2.7c0 .1-.1.1-.2.1-.1-.1-.2-.1-.4-.2-.1-.1-.3-.1-.5-.2s-.4-.1-.6-.1c-.2 0-.4-.1-.7-.1-.2 0-.5.1-.7.2-.2.1-.3.3-.3.6s.1.5.3.7c.2.2.4.3.7.4l.9.3c.3.1.6.2.9.4.3.2.5.4.7.7.6.2.6.6.6 1zM314.4 31c0 .3-.1.6-.2.9-.1.2-.3.4-.5.6-.2.1-.5.3-.8.3-.3.1-.6.1-1 .1-.5 0-1 0-1.3-.1-.4-.1-.7-.2-1-.3 0 0-.1 0-.1-.1v-.1l.2-.7s0-.1.1-.1c0 0 .1 0 .1.1.2.2.5.4.9.6.4.2.7.2 1.2.2.2 0 .3 0 .5-.1s.3-.1.4-.2l.3-.3c.1-.1.1-.3.1-.4 0-.3-.1-.5-.3-.7-.2-.2-.4-.3-.7-.4l-.9-.3c-.3-.1-.6-.2-.9-.4-.3-.2-.5-.4-.7-.6-.2-.2-.3-.6-.3-1 0-.5.2-1 .5-1.3s.8-.5 1.5-.5c.5 0 .9 0 1.3.1s.7.1 1 .1h.1v.1l-.2.7c0 .1-.1.1-.2.1-.1-.1-.2-.1-.4-.2-.1-.1-.3-.1-.5-.2s-.4-.1-.6-.1c-.2 0-.4-.1-.7-.1-.2 0-.5.1-.7.2-.2.1-.3.3-.3.6s.1.5.3.7c.2.2.4.3.7.4l.9.3c.3.1.6.2.9.4.3.2.5.4.7.7.5.2.6.6.6 1zM321.1 26.4V27.3l-.1 3.6c0 .7-.2 1.2-.6 1.6-.4.4-1 .5-1.7.5-.9 0-1.5-.2-1.9-.5-.4-.4-.7-.9-.7-1.6v-4.4c0-.1 0-.1.1-.1h1c.1 0 .1 0 .1.1v4.4c0 .3 0 .5.1.7.1.2.2.4.3.5.1.1.3.2.5.3.2.1.4.1.6.1.2 0 .3 0 .5-.1s.3-.1.5-.3c.1-.1.2-.3.3-.5.1-.2.1-.4.1-.7v-3.6-.3-.3-.3-.1h1c-.1-.1-.1 0-.1.1zM327.5 32.7h-4.3c-.1 0-.1 0-.1-.1v-6.2c0-.1 0-.1.1-.1h4.1s.1 0 .1.1v.5s0 .1-.1.1h-.1c-.2 0-.5 0-.7-.1-.2 0-.4 0-.6-.1h-1.4c-.1 0-.1 0-.2.1-.1 0-.1.1-.1.2v2c0 .1 0 .1.1.1l2-.1c.1 0 .1 0 .1.1v.5c0 .1 0 .1-.1.1l-2-.1c-.1 0-.1 0-.1.1V32c0 .1 0 .1.1.2s.1.1.2.1h1.4c.2 0 .4 0 .6-.1.2 0 .5-.1.7-.1h.1s.1 0 .1.1l.1.5c.1 0 0 0 0 0zM333.5 31c0 .3-.1.6-.2.9-.1.2-.3.4-.5.6-.2.1-.5.3-.8.3-.3.1-.6.1-1 .1-.5 0-1 0-1.3-.1-.4-.1-.7-.2-1-.3 0 0-.1 0-.1-.1v-.1l.2-.7s0-.1.1-.1c0 0 .1 0 .1.1.2.2.5.4.9.6.4.2.7.2 1.2.2.2 0 .3 0 .5-.1s.3-.1.4-.2l.3-.3c.1-.1.1-.3.1-.4 0-.3-.1-.5-.3-.7-.2-.2-.4-.3-.7-.4l-.9-.3c-.3-.1-.6-.2-.9-.4-.3-.2-.5-.4-.7-.6-.2-.2-.3-.6-.3-1 0-.5.2-1 .5-1.3s.8-.5 1.5-.5c.5 0 .9 0 1.3.1s.7.1 1 .1h.1v.1l-.2.7c0 .1-.1.1-.2.1-.1-.1-.2-.1-.4-.2-.1-.1-.3-.1-.5-.2s-.4-.1-.6-.1c-.2 0-.4-.1-.7-.1-.2 0-.5.1-.7.2-.2.1-.3.3-.3.6s.1.5.3.7c.2.2.4.3.7.4l.9.3c.3.1.6.2.9.4.3.2.5.4.7.7.5.2.6.6.6 1z"/></g></svg>