<?xml version="1.0" encoding="utf-8"?>
<!-- Generator: Adobe Illustrator 21.0.0, SVG Export Plug-In . SVG Version: 6.00 Build 0)  -->
<svg version="1.1" id="Layer_1" xmlns="http://www.w3.org/2000/svg" xmlns:xlink="http://www.w3.org/1999/xlink" x="0px" y="0px"
	 viewBox="0 0 289.5 96.6" style="enable-background:new 0 0 289.5 96.6;" xml:space="preserve">
<style type="text/css">
	.st0{fill:url(#SVGID_1_);}
	.st1{fill:#F0C061;}
	.st2{fill:#0F2335;}
	.st3{fill:none;}
	.st4{fill:url(#SVGID_2_);}
	.st5{fill:url(#SVGID_3_);}
	.st6{opacity:0.35;fill:#F0C061;enable-background:new    ;}
	.st7{fill:#102335;}
	.st8{opacity:0.7;}
	.st9{fill:#FFFFFF;}
</style>
<title>Logo animation</title>
<g id="Inner-Ring">
	<g id="Inner-Orbit">
		
			<linearGradient id="SVGID_1_" gradientUnits="userSpaceOnUse" x1="23.9128" y1="62.7996" x2="67.3428" y2="39.0196" gradientTransform="matrix(1 0 0 -1 1.55 101.12)">
			<stop  offset="0" style="stop-color:#A3A5A9"/>
			<stop  offset="0.22" style="stop-color:#A3A5A9;stop-opacity:0.73"/>
			<stop  offset="0.66" style="stop-color:#A3A5A9;stop-opacity:0.16"/>
			<stop  offset="0.67" style="stop-color:#A3A5A9;stop-opacity:0.12"/>
			<stop  offset="0.7" style="stop-color:#A3A5A9;stop-opacity:5.000000e-02"/>
			<stop  offset="0.74" style="stop-color:#A3A5A9;stop-opacity:1.000000e-02"/>
			<stop  offset="0.87" style="stop-color:#A3A5A9;stop-opacity:0"/>
		</linearGradient>
		<path class="st0" d="M67.7,61.4c-6.4,11.7-21,16-32.7,9.6c-5.5-3-9.6-8-11.4-13.9c-1-3.1-1.3-6.3-1-9.6C23.2,41,26.5,35,31.7,31
			c10.4-8.2,25.6-6.4,33.8,4C71.5,42.6,72.3,53,67.7,61.4L67.7,61.4z M67.7,61.4c1.5-2.7,2.4-5.7,2.7-8.7
			c1.2-12.5-7.9-23.6-20.4-24.8c-3.1-0.3-6.1,0-9.1,1c-12,3.7-18.6,16.5-14.9,28.4C29.7,69,41.9,75.7,53.7,72.5
			c2.9-0.8,5.7-2.2,8.1-4.1C64.2,66.5,66.2,64.1,67.7,61.4z"/>
	</g>
	<g id="Inner-Oval">
		<g id="Oval">
			<circle class="st1" cx="23.6" cy="48.5" r="4.2"/>
			<path class="st2" d="M23.6,45.3c1.8,0,3.2,1.4,3.2,3.2s-1.4,3.2-3.2,3.2s-3.2-1.4-3.2-3.2S21.9,45.3,23.6,45.3
				C23.6,45.3,23.6,45.3,23.6,45.3 M23.6,43.3c-2.9,0-5.2,2.3-5.2,5.2c0,2.9,2.3,5.2,5.2,5.2s5.2-2.3,5.2-5.2
				C28.8,45.6,26.5,43.3,23.6,43.3z"/>
		</g>
		
			<ellipse id="Oval-guide" transform="matrix(0.4299 -0.9029 0.9029 0.4299 -18.4233 71.2256)" class="st3" cx="47.2" cy="50.2" rx="23.4" ry="23.4"/>
	</g>
</g>
<g id="Middle-Ring">
	<g id="Middle-Orbit">
		
			<linearGradient id="SVGID_2_" gradientUnits="userSpaceOnUse" x1="11.1142" y1="68.852" x2="80.2142" y2="33.0519" gradientTransform="matrix(1 0 0 -1 1.55 101.12)">
			<stop  offset="0" style="stop-color:#A3A5A9"/>
			<stop  offset="0.1" style="stop-color:#A3A5A9;stop-opacity:0.95"/>
			<stop  offset="0.26" style="stop-color:#A3A5A9;stop-opacity:0.82"/>
			<stop  offset="0.45" style="stop-color:#A3A5A9;stop-opacity:0.6"/>
			<stop  offset="0.68" style="stop-color:#A3A5A9;stop-opacity:0.3"/>
			<stop  offset="0.77" style="stop-color:#A3A5A9;stop-opacity:0.16"/>
			<stop  offset="0.78" style="stop-color:#A3A5A9;stop-opacity:0.12"/>
			<stop  offset="0.79" style="stop-color:#A3A5A9;stop-opacity:5.000000e-02"/>
			<stop  offset="0.81" style="stop-color:#A3A5A9;stop-opacity:1.000000e-02"/>
			<stop  offset="0.87" style="stop-color:#A3A5A9;stop-opacity:0"/>
		</linearGradient>
		<path class="st4" d="M80.6,67.5C70.8,86.2,47.7,93.5,29,83.8c-8.8-4.6-15.6-12.4-18.7-21.9c-1.6-4.8-2.2-9.9-1.8-15
			c0.8-10.3,5.7-19.8,13.7-26.4C38.4,7,62.5,9.1,76,25.3C85.9,37.2,87.7,53.8,80.6,67.5z M80.6,67.5c2.2-4.4,3.6-9.2,4-14.1
			c1.6-20.3-13.6-38-33.9-39.6s-38,13.6-39.6,33.9c-0.4,4.5,0.1,9.1,1.5,13.5c5.9,19.5,26.4,30.5,45.9,24.6c4.7-1.4,9.1-3.8,12.9-7
			C75.1,75.7,78.3,71.8,80.6,67.5z"/>
	</g>
	<g id="Middle-Ovals">
		
			<ellipse id="Oval-guide-2" transform="matrix(0.4299 -0.9029 0.9029 0.4299 -18.4233 71.2256)" class="st3" cx="47.2" cy="50.2" rx="37.5" ry="37.5"/>
		<g id="Oval-2">
			<circle class="st1" cx="18.2" cy="26.8" r="4.9"/>
			<path class="st2" d="M18.2,22.9c2.1,0,3.9,1.7,3.9,3.9s-1.7,3.9-3.9,3.9s-3.9-1.7-3.9-3.9l0,0C14.4,24.6,16.1,22.9,18.2,22.9
				 M18.2,20.9c-3.3,0-5.9,2.6-5.9,5.9c0,3.3,2.6,5.9,5.9,5.9s5.9-2.6,5.9-5.9l0,0C24.1,23.5,21.5,20.9,18.2,20.9z"/>
		</g>
	</g>
</g>
<g id="Outer-Ring">
	<g id="Outer-Orbit">
		
			<linearGradient id="SVGID_3_" gradientUnits="userSpaceOnUse" x1="0.1232" y1="63.5217" x2="91.1532" y2="38.3017" gradientTransform="matrix(1 0 0 -1 1.55 101.12)">
			<stop  offset="0" style="stop-color:#A3A5A9"/>
			<stop  offset="0.19" style="stop-color:#A3A5A9;stop-opacity:0.98"/>
			<stop  offset="0.33" style="stop-color:#A3A5A9;stop-opacity:0.92"/>
			<stop  offset="0.45" style="stop-color:#A3A5A9;stop-opacity:0.83"/>
			<stop  offset="0.57" style="stop-color:#A3A5A9;stop-opacity:0.69"/>
			<stop  offset="0.68" style="stop-color:#A3A5A9;stop-opacity:0.52"/>
			<stop  offset="0.79" style="stop-color:#A3A5A9;stop-opacity:0.3"/>
			<stop  offset="0.85" style="stop-color:#A3A5A9;stop-opacity:0.16"/>
			<stop  offset="0.86" style="stop-color:#A3A5A9;stop-opacity:0.12"/>
			<stop  offset="0.88" style="stop-color:#A3A5A9;stop-opacity:5.000000e-02"/>
			<stop  offset="0.91" style="stop-color:#A3A5A9;stop-opacity:1.000000e-02"/>
			<stop  offset="1" style="stop-color:#A3A5A9;stop-opacity:0"/>
		</linearGradient>
		<path class="st5" d="M91.4,62.4c-6.8,24.8-32.5,39.3-57.2,32.4C16.1,89.9,2.8,74.6,0.4,56C-1.2,43.5,2.2,31,10,21.2
			C26,1,55.2-2.4,75.4,13.5C90.1,25.1,96.4,44.4,91.4,62.4z M91.4,62.4c1.6-5.8,2-11.9,1.3-17.8C89.5,19.9,66.8,2.4,42.1,5.5
			c-0.1,0-0.3,0-0.4,0.1C17,9-0.3,31.8,3.1,56.5c2.4,17.6,15,32.2,32.1,37.2c17.7,5.2,36.7-0.9,48.2-15.3
			C87,73.7,89.7,68.2,91.4,62.4z"/>
	</g>
	<g id="Outer-Ovals">
		<g id="Oval-small">
			
				<ellipse id="Oval-guide-3" transform="matrix(0.4299 -0.9029 0.9029 0.4299 -18.4233 71.2256)" class="st3" cx="47.2" cy="50.2" rx="45.8" ry="45.8"/>
			<g id="Oval2">
				<g id="Oval2-background">
					<circle class="st2" cx="67.2" cy="91.1" r="3.3"/>
					<path class="st2" d="M67.2,88.8c1.3,0,2.3,1,2.3,2.3c0,1.3-1,2.3-2.3,2.3s-2.3-1-2.3-2.3S66,88.8,67.2,88.8L67.2,88.8
						 M67.2,86.8c-2.4,0-4.3,1.9-4.3,4.3c0,2.4,1.9,4.3,4.3,4.3c2.4,0,4.3-1.9,4.3-4.3S69.6,86.8,67.2,86.8
						C67.2,86.8,67.2,86.8,67.2,86.8z"/>
				</g>
				<circle id="Oval2-yellow" class="st6" cx="67.2" cy="91.1" r="2.3"/>
			</g>
		</g>
		<g id="Oval-large">
			
				<ellipse id="Oval-guide-4" transform="matrix(0.4299 -0.9029 0.9029 0.4299 -18.4233 71.2256)" class="st3" cx="47.2" cy="50.2" rx="45.8" ry="45.8"/>
			<g id="Oval1">
				<g id="Oval1-background">
					<path class="st2" d="M54.2,9.4c-2.3,0-4.2-2-4.2-4.3c0-2,1.5-3.7,3.5-4.1c2.3-0.4,4.5,1.2,4.8,3.5c0,0,0,0,0,0
						c0.4,2.3-1.2,4.5-3.5,4.8C54.7,9.4,54.5,9.4,54.2,9.4z"/>
					<path class="st7" d="M54.3,2c1.8,0,3.2,1.5,3.2,3.3c0,1.5-1.1,2.8-2.7,3.1c-0.2,0-0.3,0-0.5,0c-1.8,0-3.2-1.5-3.2-3.3
						c0-1.5,1.1-2.8,2.7-3.1C53.9,2,54.1,2,54.3,2 M54.3,0L54.3,0c-0.3,0-0.6,0-0.8,0.1c-1.4,0.2-2.6,0.9-3.4,2
						c-0.8,1.1-1.1,2.5-0.9,3.9c0.4,2.6,2.6,4.4,5.1,4.4c0.3,0,0.6,0,0.8-0.1c2.8-0.5,4.7-3.2,4.2-6C58.9,1.8,56.8,0,54.3,0z"/>
				</g>
				<g id="Oval1-yellow" class="st8">
					<ellipse transform="matrix(0.987 -0.1606 0.1606 0.987 -0.1343 8.7792)" class="st1" cx="54.3" cy="5.2" rx="3.2" ry="3.2"/>
				</g>
			</g>
		</g>
	</g>
</g>
<g id="Logo-Text">
	<g id="Letters">
		<polygon id="Shape" class="st9" points="50.3,46.3 50.3,58.9 48.4,58.9 48.4,42 49.5,42 59.2,54.9 59,42.2 61,42.2 61,59.1 
			59.8,59.1 		"/>
		<polygon id="Shape-2" class="st9" points="66.7,42 75.7,42 75.7,43.8 68.6,43.8 68.6,49.4 75.2,49.4 75.2,51.2 68.6,51.2 
			68.6,57.3 75.8,57.3 75.8,59.1 66.7,59.1 		"/>
		<polygon id="Shape-3" class="st9" points="86.1,50.4 80.9,42 83.4,42 87.4,48.8 91.7,42 93.9,42 88.5,50.3 94.1,59.1 91.7,59.1 
			87.4,52.3 82.7,59.1 80.4,59.1 		"/>
		<polygon id="Shape-4" class="st9" points="110.1,43.8 104.9,43.8 104.9,59.1 102.8,59.1 102.8,43.8 97.6,43.8 97.6,42 110.1,42 		
			"/>
		<path id="Shape-5" class="st9" d="M127,50.5h5.9v7.3c-0.3,0.2-0.6,0.3-0.9,0.6s-0.8,0.3-1.3,0.5s-0.9,0.1-1.4,0.2
			c-0.5,0.1-0.9,0.1-1.4,0.1c-1,0-2.1-0.1-3.1-0.5c-0.9-0.4-1.7-0.9-2.4-1.6c-0.7-0.8-1.2-1.7-1.6-2.6c-0.8-2.5-0.8-5.3,0.1-7.8
			c0.4-1,1-1.9,1.8-2.7c0.7-0.7,1.6-1.2,2.5-1.5c0.9-0.3,1.9-0.5,2.9-0.5c0.8,0,1.7,0,2.5,0.1c0.6,0.1,1.2,0.3,1.7,0.5l-0.6,1.7
			c-1.1-0.4-2.2-0.6-3.4-0.5c-0.7,0-1.4,0.1-2.1,0.3c-0.7,0.2-1.4,0.6-1.9,1.2c-0.6,0.6-1,1.3-1.4,2.1c-0.4,1-0.5,2.1-0.6,3.2
			c0,1,0.1,2.1,0.5,3.1c0.3,0.8,0.6,1.5,1.1,2.2c0.5,0.6,1.1,1,1.8,1.3c0.8,0.3,1.6,0.4,2.4,0.5c0.9,0,1.9-0.2,2.7-0.6v-5h-4.1
			L127,50.5z"/>
		<polygon id="Shape-6" class="st9" points="138.7,42 147.7,42 147.7,43.8 140.6,43.8 140.6,49.4 147.1,49.4 147.1,51.2 140.6,51.2 
			140.6,57.3 147.8,57.3 147.8,59.1 138.7,59.1 		"/>
		<polygon id="Shape-7" class="st9" points="171.8,42 180.9,42 180.9,43.8 173.8,43.8 173.8,49.4 180.2,49.4 180.2,51.2 173.8,51.2 
			173.8,57.3 181,57.3 181,59.1 171.8,59.1 		"/>
		<path id="Shape-8" class="st9" d="M186.7,42.2c0.7-0.1,1.4-0.2,2.2-0.2c0.7-0.1,1.4-0.1,2.2-0.1c0.7,0,1.5,0.1,2.2,0.2
			c0.6,0.1,1.2,0.4,1.7,0.8c0.5,0.4,0.9,0.9,1.3,1.5c0.9,1.8,0.6,3.9-0.6,5.5c-0.7,0.7-1.5,1.2-2.5,1.5l5,7.5h-2.3l-4.7-7.3h-2.4
			v7.3h-2.1L186.7,42.2z M190.5,43.5h-1.6v6.4h1.9c1,0,1.9-0.2,2.7-0.8c0.8-0.6,1.2-1.6,1.1-2.6c0-0.8-0.3-1.6-0.9-2.2
			C192.8,43.7,191.6,43.4,190.5,43.5L190.5,43.5z"/>
		<path id="Shape-9" class="st9" d="M212.6,54.4h-6.2l-1.7,4.7h-1.9l6.4-17.1h0.9l6.4,17.1h-2.2L212.6,54.4z M207.1,52.7h4.9
			l-2.4-7.1L207.1,52.7z"/>
		<polygon id="Shape-10" class="st9" points="230.1,43.8 224.9,43.8 224.9,59.1 222.8,59.1 222.8,43.8 217.6,43.8 217.6,42 
			230.1,42 		"/>
		<polygon id="Shape-11" class="st9" points="234.7,42 237,42 237,59.1 234.7,59.1 		"/>
		<path id="Shape-12" class="st9" d="M242.7,50.5c0-2.7,0.6-4.9,1.8-6.3c1.2-1.5,3.1-2.3,5-2.3c1.1,0,2.1,0.2,3.1,0.6
			c0.8,0.4,1.6,1,2.2,1.7c0.6,0.8,1,1.8,1.3,2.7c0.3,1.2,0.4,2.3,0.5,3.5c0,2.7-0.6,4.9-1.8,6.3c-1.3,1.5-3.2,2.3-5.1,2.3
			c-1.1,0-2.1-0.2-3.1-0.6c-0.8-0.4-1.6-1-2.2-1.7c-0.6-0.8-1-1.7-1.2-2.7C242.8,53,242.7,51.8,242.7,50.5L242.7,50.5z M244.9,50.5
			c0,0.9,0.1,1.8,0.2,2.6c0.1,0.8,0.4,1.5,0.8,2.2c0.4,0.6,0.9,1.1,1.5,1.5c0.7,0.4,1.4,0.6,2.2,0.6c1.4,0,2.7-0.6,3.5-1.7
			c0.9-1.5,1.4-3.3,1.3-5.1c0-0.9-0.1-1.8-0.2-2.6c-0.1-0.8-0.4-1.5-0.9-2.2c-0.4-0.6-0.9-1.1-1.5-1.5c-0.7-0.4-1.4-0.6-2.2-0.6
			c-1.4,0-2.6,0.6-3.4,1.7C245.1,46.9,244.6,48.7,244.9,50.5z"/>
		<path id="Shape-13" class="st9" d="M74.9,64.8h3.2v10.9c0,1-0.1,1.9-0.5,2.9c-0.3,0.7-0.7,1.4-1.3,1.9c-0.5,0.5-1.2,0.9-1.9,1.1
			c-0.8,0.2-1.7,0.3-2.5,0.3c-4.3,0-6.5-1.9-6.5-5.8V64.8h3.3v10.6c0.2,3,2.1,3.7,3.2,3.7s2.7-0.6,3-3.5L74.9,64.8z"/>
		<path id="Shape-14" class="st9" d="M93.7,81c-0.6,0.4-1.2,0.7-1.9,0.8c-0.8,0.1-1.6,0.2-2.4,0.2c-1,0-2-0.1-3-0.5
			c-2-0.6-3.6-2.2-4.2-4.2c-0.5-1.3-0.7-2.6-0.7-4c-0.1-1.4,0.2-2.8,0.7-4.1c0.4-1,1-1.9,1.7-2.7c0.7-0.7,1.6-1.1,2.5-1.4
			c0.9-0.3,1.8-0.4,2.7-0.5c0.8,0,1.6,0,2.4,0.2c0.6,0.1,1.2,0.3,1.7,0.5L92.6,68c-0.4-0.2-0.9-0.4-1.4-0.5
			c-0.6-0.1-1.2-0.1-1.8-0.1c-1.2,0-2.5,0.5-3.3,1.4c-0.9,1.3-1.4,2.8-1.3,4.3c0,0.8,0.1,1.6,0.3,2.4c0.2,0.7,0.5,1.3,0.9,1.8
			c0.4,0.5,1,0.9,1.6,1.1c0.6,0.3,1.3,0.5,2.1,0.5c0.6,0,1.2-0.1,1.8-0.2c0.5-0.1,0.9-0.3,1.4-0.6L93.7,81z"/>
		<polygon id="Shape-15" class="st9" points="107.8,82 97.6,82 97.6,64.8 100.8,64.8 100.8,79 107.8,79 		"/>
		<polygon id="Shape-16" class="st9" points="112.4,64.8 122.6,64.8 122.6,67.8 115.7,67.8 115.7,71.8 121.9,71.8 121.9,74.8 
			115.7,74.8 115.7,79 122.7,79 122.7,82 112.4,82 		"/>
		<path id="Shape-17" class="st9" d="M136.1,78.2h-5.3l-1.2,3.8h-3.4l6.2-17.1h2.5L141,82h-3.5L136.1,78.2z M131.6,75.6h3.7
			l-1.7-5.9L131.6,75.6z"/>
		<path id="Shape-18" class="st9" d="M144.4,65.2c0.3-0.1,0.8-0.1,1.1-0.2c0.8-0.1,1.7-0.2,2.5-0.2c1.1,0,2.3,0.1,3.4,0.2
			c0.7,0.1,1.4,0.4,2.1,0.8c0.6,0.3,1.1,0.9,1.5,1.5c0.4,0.7,0.6,1.5,0.6,2.3c0.1,2.1-1,4-2.9,5L157,82h-3.8l-4-7h-1.5v6.9h-3.3
			L144.4,65.2z M147.6,67.7v5h1.4c0.8,0.1,1.5-0.1,2.2-0.6c0.6-0.5,0.9-1.3,0.8-2.1c0-0.6-0.2-1.3-0.7-1.7c-0.5-0.5-1.2-0.7-1.8-0.7
			L147.6,67.7z"/>
		<polygon id="Shape-19" class="st9" points="186.7,64.8 196.9,64.8 196.9,67.8 190,67.8 190,71.8 196.2,71.8 196.2,74.8 190,74.8 
			190,79 197,79 197,82 186.7,82 		"/>
		<polygon id="Shape-20" class="st9" points="215.3,67.8 210.1,67.8 210.1,81.9 206.7,81.9 206.7,67.8 201.6,67.8 201.6,64.8 
			215.3,64.8 		"/>
		<polygon id="Shape-21" class="st9" points="224.6,75.1 228.2,64.8 230.4,64.8 233.6,75.1 235.9,64.8 239.3,64.8 234.7,81.9 
			232.5,81.9 229.1,71 225.6,81.9 223.3,81.9 218.7,64.8 222.2,64.8 		"/>
		<path id="Shape-22" class="st9" d="M241.6,73.5c0-2.7,0.6-4.8,1.8-6.2c1.2-1.5,3.1-2.3,5-2.2c1.1,0,2.1,0.2,3.1,0.7
			c0.8,0.4,1.6,1,2.1,1.7c0.6,0.8,1,1.7,1.3,2.6c0.3,1.1,0.5,2.3,0.5,3.4c0,2.7-0.6,4.8-1.8,6.2c-1.2,1.5-3.1,2.3-5,2.2
			c-1.1,0-2.1-0.2-3.1-0.7c-0.8-0.4-1.5-1-2.1-1.7c-0.6-0.8-1-1.7-1.3-2.6C241.7,75.8,241.5,74.7,241.6,73.5z M244.8,73.5
			c0,0.7,0.1,1.5,0.2,2.2c0.1,0.6,0.3,1.3,0.7,1.8c0.2,0.5,0.6,0.9,1,1.1c0.5,0.3,1,0.5,1.6,0.5c1,0,2-0.5,2.6-1.4
			c0.7-1.3,1-2.8,0.9-4.3c0-0.7-0.1-1.5-0.2-2.2c-0.1-0.6-0.3-1.3-0.7-1.8c-0.2-0.5-0.6-0.9-1-1.1c-1.4-0.9-3.3-0.5-4.2,0.9
			C245,70.5,244.7,72,244.8,73.5L244.8,73.5z"/>
		<polygon id="Shape-23" class="st9" points="280,74.7 279.3,74.7 279.3,81.9 275.8,81.9 275.8,64.8 279.3,64.8 279.3,72.5 
			284.9,64.8 288.8,64.8 282.4,72.9 289.5,81.9 285.3,81.9 		"/>
		<polygon id="Shape-24" class="st9" points="155.5,46.3 155.5,58.9 153.6,58.9 153.6,42 154.7,42 164.3,54.9 164.2,42.2 
			166.1,42.2 166.1,59.1 165,59.1 		"/>
		<polygon id="Shape-25" class="st9" points="264.1,46.3 264.1,58.9 262.1,58.9 262.1,42 263.3,42 272.9,54.9 272.8,42.2 
			274.7,42.2 274.7,59.1 273.5,59.1 		"/>
		<polygon id="Shape-26" class="st9" points="173.7,73.1 172.6,71.6 172.6,81.9 169.6,81.9 169.6,64.8 171.8,64.8 178.1,73.9 
			179,75.2 179,64.9 182.1,64.9 182.1,82 179.8,82 		"/>
		<path id="Shape-27" class="st9" d="M259.8,65.2c0.3-0.1,0.8-0.1,1.1-0.2c0.8-0.1,1.7-0.2,2.5-0.2c1.1,0,2.3,0.1,3.4,0.2
			c0.7,0.1,1.4,0.4,2.1,0.8c0.6,0.3,1.1,0.9,1.5,1.5c0.4,0.7,0.6,1.5,0.6,2.3c0.1,2.1-1,4-2.9,5l4.2,7.4h-3.8l-4-7h-1.5v6.9h-3.3
			V65.2z M263,67.8v4.9h1.4c0.8,0,1.5-0.2,2.1-0.6c0.6-0.5,0.9-1.3,0.8-2.1c0-0.6-0.2-1.3-0.7-1.7c-0.5-0.5-1.2-0.7-1.8-0.7
			C264.2,67.7,263.6,67.7,263,67.8L263,67.8z"/>
	</g>
	<g id="LetterN">
		<polygon id="Shape-28" class="st9" points="52.5,73.1 51.5,71.6 51.5,81.9 48.4,81.9 48.4,64.8 50.7,64.8 57,73.9 57.9,75.2 
			57.9,64.9 61,64.9 61,82 58.7,82 		"/>
	</g>
</g>
</svg>
