<svg xmlns="http://www.w3.org/2000/svg" xmlns:xlink="http://www.w3.org/1999/xlink" viewBox="0 0 252 81.6"><defs><linearGradient id="linear-gradient" x1="60.03" y1="8.1" x2="66.89" y2="8.1" gradientTransform="matrix(1, 0, 0, -1, 0, 82.59)" gradientUnits="userSpaceOnUse"><stop offset="0" stop-color="#a3a5a9" stop-opacity="0.5"/><stop offset="0.95" stop-color="#a3a5a9" stop-opacity="0.22"/><stop offset="1" stop-color="#a3a5a9" stop-opacity="0.2"/></linearGradient><linearGradient id="linear-gradient-2" x1="0.55" y1="40.96" x2="55.13" y2="40.96" gradientTransform="matrix(1, 0, 0, -1, 0, 82.59)" gradientUnits="userSpaceOnUse"><stop offset="0" stop-color="#a3a5a9"/><stop offset="0.17" stop-color="#a3a5a9" stop-opacity="0.98"/><stop offset="0.32" stop-color="#a3a5a9" stop-opacity="0.91"/><stop offset="0.67" stop-color="#a3a5a9" stop-opacity="0.8"/><stop offset="1" stop-color="#a3a5a9" stop-opacity="0.65"/><stop offset="1" stop-color="#a3a5a9" stop-opacity="0.45"/><stop offset="1" stop-color="#a3a5a9" stop-opacity="0.21"/><stop offset="1" stop-color="#a3a5a9" stop-opacity="0"/></linearGradient><linearGradient id="linear-gradient-3" x1="50.57" y1="66.1" x2="78.54" y2="66.1" gradientTransform="matrix(1, 0, 0, -1, 0, 82.59)" gradientUnits="userSpaceOnUse"><stop offset="0" stop-color="#a3a5a9" stop-opacity="0.7"/><stop offset="1" stop-color="#a3a5a9" stop-opacity="0"/></linearGradient><linearGradient id="linear-gradient-4" x1="17.39" y1="63.8" x2="71.89" y2="63.8" gradientTransform="matrix(1, 0, 0, -1, 0, 82.59)" gradientUnits="userSpaceOnUse"><stop offset="0" stop-color="#a3a5a9"/><stop offset="0.85" stop-color="#a3a5a9" stop-opacity="0.15"/><stop offset="1" stop-color="#a3a5a9" stop-opacity="0"/></linearGradient><linearGradient id="linear-gradient-5" x1="5.99" y1="32.09" x2="59.46" y2="32.09" gradientTransform="matrix(1, 0, 0, -1, 0, 82.59)" gradientUnits="userSpaceOnUse"><stop offset="0" stop-color="#a3a5a9"/><stop offset="0.97" stop-color="#a4a6a9" stop-opacity="0.3"/><stop offset="1" stop-color="#a4a6a9" stop-opacity="0.2"/></linearGradient><linearGradient id="linear-gradient-6" x1="19.99" y1="54.61" x2="57.39" y2="54.61" gradientTransform="matrix(1, 0, 0, -1, 0, 82.59)" gradientUnits="userSpaceOnUse"><stop offset="0" stop-color="#a3a5a9"/><stop offset="0.95" stop-color="#a3a5a9" stop-opacity="0.24"/><stop offset="1" stop-color="#a3a5a9" stop-opacity="0.2"/></linearGradient><linearGradient id="linear-gradient-7" x1="19.15" y1="29.55" x2="37.11" y2="29.55" gradientTransform="matrix(1, 0, 0, -1, 0, 82.59)" gradientUnits="userSpaceOnUse"><stop offset="0" stop-color="#a3a5a9"/><stop offset="1" stop-color="#a4a6a9" stop-opacity="0.6"/></linearGradient></defs><title>NGNN-header-logo</title><g id="Orbit-Out"><circle id="Oval" cx="57.2" cy="77.2" r="2" fill="#f0c061" opacity="0.35" style="isolation:isolate"/><g id="Oval-2" data-name="Oval" opacity="0.7"><circle cx="45.9" cy="2.8" r="2.8" transform="translate(0.15 7.4) rotate(-9.24)" fill="#f0c061"/></g><path d="M63.59,73A32.66,32.66,0,0,1,60,75.5a2.19,2.19,0,0,0,.3.5c1.2-.8,2.4-1.6,3.5-2.5.2-.2.4-.3.6-.5Z" transform="translate(0.01)" fill="url(#linear-gradient)"/><path d="M29.69,78.8a38.82,38.82,0,0,1,11.8-76,4.1,4.1,0,0,1,.1-1.1A40,40,0,1,0,48,80.8a48.43,48.43,0,0,0,6.5-1.9,6.89,6.89,0,0,1-.3-.8A38.67,38.67,0,0,1,29.69,78.8Z" transform="translate(0.01)" fill="url(#linear-gradient-2)"/><path d="M55.59,4.8A51.73,51.73,0,0,0,50.49,3a2.92,2.92,0,0,1-.2.9A39,39,0,0,1,78,30h.2A39.54,39.54,0,0,0,55.59,4.8Z" transform="translate(0.01)" fill="url(#linear-gradient-3)"/></g><g id="Orbit-Mid"><path d="M40.89,7.6a33.81,33.81,0,0,0-23.5,8.8,5.73,5.73,0,0,1,1.1,1.1A32.75,32.75,0,0,1,71.59,30h.3A34,34,0,0,0,40.89,7.6Z" transform="translate(0.01)" fill="url(#linear-gradient-4)"/><path d="M53.39,73a31.9,31.9,0,0,1-22.2,1.1A33.55,33.55,0,0,1,8.49,35.5a32.8,32.8,0,0,1,3.9-10.3,6.71,6.71,0,0,1-1.4-.9,45.34,45.34,0,0,0-2.3,4.4,35.1,35.1,0,0,0,0,27,33.79,33.79,0,0,0,32.1,21,33.33,33.33,0,0,0,14.4-3.6h-1.8Z" transform="translate(0.01)" fill="url(#linear-gradient-5)"/><circle id="Oval-3" data-name="Oval" cx="14.6" cy="20.7" r="3.4" fill="#f0c061"/></g><g id="Orbit-In"><path d="M55.19,27.1a19,19,0,0,0-6.5-4.7,21.79,21.79,0,0,0-7.9-1.9,20.9,20.9,0,0,0-20.1,12.6,15.87,15.87,0,0,0-.7,2h0a5.85,5.85,0,0,1,1.9.4c.2-.6.4-1.2.6-1.7a20,20,0,0,1,34.6-4h.3A14.42,14.42,0,0,0,55.19,27.1Z" transform="translate(0.01)" fill="url(#linear-gradient-6)"/><path d="M36.09,60.9a20.79,20.79,0,0,1-6.3-2.9,19.9,19.9,0,0,1-8.6-14.1,5,5,0,0,1-1.2.2,2,2,0,0,1-.8-.1,19.86,19.86,0,0,0,1.5,5.8,22,22,0,0,0,15.5,12.4C36.19,61.7,36.09,61.4,36.09,60.9Z" transform="translate(0.01)" fill="url(#linear-gradient-7)"/><circle id="Oval-4" data-name="Oval" cx="20.2" cy="39.7" r="2.8" fill="#f0c061"/></g><g id="Letters"><polygon id="Shape" points="42.7 37.8 42.7 48.8 41 48.8 41 34 42 34 50.4 45.3 50.3 34.2 52 34.2 52 49 51 49 42.7 37.8" fill="#fff"/><polygon id="Shape-2" data-name="Shape" points="57 34 64.9 34 64.9 35.6 58.7 35.6 58.7 40.5 64.4 40.5 64.4 42.1 58.7 42.1 58.7 47.4 65 47.4 65 49 57 49 57 34" fill="#fff"/><polygon id="Shape-3" data-name="Shape" points="74 41.4 69.4 34 71.6 34 75.1 40 78.9 34 80.8 34 76.1 41.3 81 49 78.9 49 75.1 43 71 49 69 49 74 41.4" fill="#fff"/><polygon id="Shape-4" data-name="Shape" points="95 35.6 90.4 35.6 90.4 49 88.6 49 88.6 35.6 84 35.6 84 34 95 34 95 35.6" fill="#fff"/><path id="Shape-5" data-name="Shape" d="M109.79,41.5H115v6.4c-.3.2-.5.3-.8.5s-.7.3-1.1.4-.8.1-1.2.2a4.87,4.87,0,0,1-1.2.1,8.42,8.42,0,0,1-2.7-.4,6,6,0,0,1-2.1-1.4,7.89,7.89,0,0,1-1.4-2.3,10.79,10.79,0,0,1,.1-6.8,6.34,6.34,0,0,1,1.6-2.3,6.11,6.11,0,0,1,2.2-1.3,6.9,6.9,0,0,1,2.5-.4,16.2,16.2,0,0,1,2.2.1,8.33,8.33,0,0,1,1.5.4l-.5,1.5a7.89,7.89,0,0,0-3-.5,5.66,5.66,0,0,0-1.8.3,4.25,4.25,0,0,0-1.7,1,7.07,7.07,0,0,0-1.2,1.8,9.18,9.18,0,0,0-.5,2.8,8.42,8.42,0,0,0,.4,2.7,6.92,6.92,0,0,0,1,1.9,3.55,3.55,0,0,0,1.6,1.1,7.79,7.79,0,0,0,2.1.4,6.44,6.44,0,0,0,2.4-.5V42.9h-3.6Z" transform="translate(0.01)" fill="#fff"/><polygon id="Shape-6" data-name="Shape" points="120 34 127.9 34 127.9 35.6 121.7 35.6 121.7 40.5 127.4 40.5 127.4 42.1 121.7 42.1 121.7 47.4 128 47.4 128 49 120 49 120 34" fill="#fff"/><polygon id="Shape-7" data-name="Shape" points="149 34 156.9 34 156.9 35.6 150.7 35.6 150.7 40.5 156.3 40.5 156.3 42.1 150.7 42.1 150.7 47.4 157 47.4 157 49 149 49 149 34" fill="#fff"/><path id="Shape-8" data-name="Shape" d="M162,34.2a11.08,11.08,0,0,1,1.9-.2,12.75,12.75,0,0,1,1.9-.1,15.41,15.41,0,0,1,1.9.2,3.48,3.48,0,0,1,1.5.7,4.49,4.49,0,0,1,1.1,1.3,4.6,4.6,0,0,1-.5,4.8,4.47,4.47,0,0,1-2.2,1.3l4.4,6.6h-2l-4.1-6.4h-2.1v6.4H162Zm3.3,1.1h-1.4v5.6h1.7a4,4,0,0,0,2.4-.7,2.76,2.76,0,0,0,1-2.3,2.73,2.73,0,0,0-.8-1.9A4.88,4.88,0,0,0,165.29,35.3Z" transform="translate(0.01)" fill="#fff"/><path id="Shape-9" data-name="Shape" d="M184.59,44.9h-5.4l-1.5,4.1H176l5.6-15h.8L188,49h-1.9Zm-4.8-1.5h4.3L182,37.2Z" transform="translate(0.01)" fill="#fff"/><polygon id="Shape-10" data-name="Shape" points="200 35.6 195.4 35.6 195.4 49 193.6 49 193.6 35.6 189 35.6 189 34 200 34 200 35.6" fill="#fff"/><polygon id="Shape-11" data-name="Shape" points="204 34 206 34 206 49 204 49 204 34" fill="#fff"/><path id="Shape-12" data-name="Shape" d="M211,41.5c0-2.4.5-4.3,1.6-5.5a5.71,5.71,0,0,1,4.4-2,8.57,8.57,0,0,1,2.7.5,5.5,5.5,0,0,1,1.9,1.5,6.59,6.59,0,0,1,1.1,2.4,15.46,15.46,0,0,1,.4,3.1c0,2.4-.5,4.3-1.6,5.5a5.77,5.77,0,0,1-4.5,2,8.57,8.57,0,0,1-2.7-.5,7,7,0,0,1-1.9-1.5,6.59,6.59,0,0,1-1.1-2.4,16.28,16.28,0,0,1-.3-3.1Zm1.9,0a17.85,17.85,0,0,0,.2,2.3,6.19,6.19,0,0,0,.7,1.9,4,4,0,0,0,1.3,1.3,4.14,4.14,0,0,0,1.9.5,3.75,3.75,0,0,0,3.1-1.5,7.84,7.84,0,0,0,1.1-4.5,17.85,17.85,0,0,0-.2-2.3,4.55,4.55,0,0,0-.8-1.9,4,4,0,0,0-1.3-1.3,4.14,4.14,0,0,0-1.9-.5,3.56,3.56,0,0,0-3,1.5,6.55,6.55,0,0,0-1.1,4.5Z" transform="translate(0.01)" fill="#fff"/><path id="Shape-13" data-name="Shape" d="M64.19,54H67v9.5a7.27,7.27,0,0,1-.4,2.5,4.52,4.52,0,0,1-1.1,1.7,3.67,3.67,0,0,1-1.7,1,7.8,7.8,0,0,1-2.2.3q-5.7,0-5.7-5.1V54h2.9v9.3c.2,2.6,1.8,3.2,2.8,3.2s2.4-.5,2.6-3.1C64.19,61,64.19,54,64.19,54Z" transform="translate(0.01)" fill="#fff"/><path id="Shape-14" data-name="Shape" d="M80.59,68.1a4.1,4.1,0,0,1-1.7.7,14.92,14.92,0,0,1-2.1.2,7.83,7.83,0,0,1-2.6-.4,5.68,5.68,0,0,1-3.7-3.7,10.3,10.3,0,0,1-.6-3.5,8.81,8.81,0,0,1,.6-3.6A7.48,7.48,0,0,1,72,55.4a4.77,4.77,0,0,1,2.2-1.2,9.27,9.27,0,0,1,2.4-.4,7.14,7.14,0,0,1,2.1.2,8.33,8.33,0,0,1,1.5.4l-.6,2.4a5.64,5.64,0,0,0-1.2-.4,9.15,9.15,0,0,0-1.6-.1,3.85,3.85,0,0,0-2.9,1.2,5.74,5.74,0,0,0-1.1,3.8,7.61,7.61,0,0,0,.3,2.1,4.81,4.81,0,0,0,.8,1.6,2.81,2.81,0,0,0,1.4,1,3.92,3.92,0,0,0,1.8.4,7.77,7.77,0,0,0,1.6-.2,6.12,6.12,0,0,0,1.2-.5Z" transform="translate(0.01)" fill="#fff"/><polygon id="Shape-15" data-name="Shape" points="93 69 84 69 84 54 86.8 54 86.8 66.4 93 66.4 93 69" fill="#fff"/><polygon id="Shape-16" data-name="Shape" points="97 54 105.9 54 105.9 56.6 99.9 56.6 99.9 60.1 105.3 60.1 105.3 62.7 99.9 62.7 99.9 66.4 106 66.4 106 69 97 69 97 54" fill="#fff"/><path id="Shape-17" data-name="Shape" d="M117.69,65.7h-4.6L112,69h-3l5.4-15h2.2L122,69h-3.1Zm-3.9-2.3H117l-1.5-5.2Z" transform="translate(0.01)" fill="#fff"/><path id="Shape-18" data-name="Shape" d="M125,54.3c.3-.1.7-.1,1-.2a18,18,0,0,1,2.2-.2,19.78,19.78,0,0,1,3,.2,4.49,4.49,0,0,1,1.8.7,3.25,3.25,0,0,1,1.3,1.3,4.55,4.55,0,0,1,.5,2,4.63,4.63,0,0,1-2.5,4.4L136,69h-3.3l-3.5-6.1h-1.3v6H125Zm2.8,2.2v4.4H129a3,3,0,0,0,1.9-.5,2,2,0,0,0,.7-1.8,2,2,0,0,0-.6-1.5,2.27,2.27,0,0,0-1.6-.6Z" transform="translate(0.01)" fill="#fff"/><polygon id="Shape-19" data-name="Shape" points="162 54 170.9 54 170.9 56.6 164.9 56.6 164.9 60.1 170.3 60.1 170.3 62.7 164.9 62.7 164.9 66.4 171 66.4 171 69 162 69 162 54" fill="#fff"/><polygon id="Shape-20" data-name="Shape" points="187 56.6 182.5 56.6 182.5 68.9 179.5 68.9 179.5 56.6 175 56.6 175 54 187 54 187 56.6" fill="#fff"/><polygon id="Shape-21" data-name="Shape" points="195.2 63 198.3 54 200.2 54 203 63 205.1 54 208 54 204 68.9 202.1 68.9 199.1 59.4 196 68.9 194 68.9 190 54 193.1 54 195.2 63" fill="#fff"/><path id="Shape-22" data-name="Shape" d="M210,61.6c0-2.4.5-4.2,1.6-5.4a5.44,5.44,0,0,1,4.4-1.9,6.26,6.26,0,0,1,2.7.6,4.41,4.41,0,0,1,1.8,1.5,7,7,0,0,1,1.1,2.3,10.32,10.32,0,0,1,.4,3c0,2.4-.5,4.2-1.6,5.4A5.44,5.44,0,0,1,216,69a6.6,6.6,0,0,1-2.7-.6,4.41,4.41,0,0,1-1.8-1.5,7,7,0,0,1-1.1-2.3,10.32,10.32,0,0,1-.4-3Zm2.8,0a12.25,12.25,0,0,0,.2,1.9,4.42,4.42,0,0,0,.6,1.6,2.19,2.19,0,0,0,.9,1,2.3,2.3,0,0,0,1.4.4,2.8,2.8,0,0,0,2.3-1.2,7.16,7.16,0,0,0,.8-3.8,12.25,12.25,0,0,0-.2-1.9,4.42,4.42,0,0,0-.6-1.6,2.19,2.19,0,0,0-.9-1,2.72,2.72,0,0,0-3.7.8,7.41,7.41,0,0,0-.8,3.8Z" transform="translate(0.01)" fill="#fff"/><polygon id="Shape-23" data-name="Shape" points="243.6 62.6 243 62.6 243 68.9 240 68.9 240 54 243 54 243 60.7 247.9 54 251.3 54 245.7 61.1 252 68.9 248.3 68.9 243.6 62.6" fill="#fff"/><polygon id="Shape-24" data-name="Shape" points="134.7 37.8 134.7 48.8 133 48.8 133 34 134 34 142.4 45.3 142.3 34.2 144 34.2 144 49 143 49 134.7 37.8" fill="#fff"/><polygon id="Shape-25" data-name="Shape" points="229.7 37.8 229.7 48.8 228 48.8 228 34 229 34 237.4 45.3 237.3 34.2 239 34.2 239 49 238 49 229.7 37.8" fill="#fff"/><polygon id="Shape-26" data-name="Shape" points="150.6 61.2 149.7 59.9 149.7 68.9 147 68.9 147 54 149 54 154.5 61.9 155.3 63.1 155.3 54.1 158 54.1 158 69 156 69 150.6 61.2" fill="#fff"/><path id="Shape-27" data-name="Shape" d="M226,54.3c.3-.1.7-.1,1-.2a18,18,0,0,1,2.2-.2,19.78,19.78,0,0,1,3,.2,4.49,4.49,0,0,1,1.8.7,3.25,3.25,0,0,1,1.3,1.3,4.55,4.55,0,0,1,.5,2,4.63,4.63,0,0,1-2.5,4.4L237,69h-3.3l-3.5-6.1h-1.3v6H226Zm2.8,2.3v4.3H230a3,3,0,0,0,1.9-.5,2,2,0,0,0,.7-1.8,2,2,0,0,0-.6-1.5,2.27,2.27,0,0,0-1.6-.6A13.61,13.61,0,0,0,228.79,56.6Z" transform="translate(0.01)" fill="#fff"/></g><g id="LetterN"><polygon id="Shape-28" data-name="Shape" points="44.6 61.2 43.7 59.9 43.7 68.9 41 68.9 41 54 43 54 48.5 61.9 49.3 63.1 49.3 54.1 52 54.1 52 69 50 69 44.6 61.2" fill="#fff"/></g></svg>