<svg version="1.1" id="Layer_1" xmlns="http://www.w3.org/2000/svg" xmlns:xlink="http://www.w3.org/1999/xlink" x="0" y="0" viewBox="0 0 435.8 95.8" xml:space="preserve" enable-background="new 0 0 435.8 95.8"><style type="text/css">.st0{opacity:.35;fill:#f0c061;enable-background:new}.st1{opacity:.7}.st2{fill:#f0c061}.st3{fill:url(#SVGID_1_)}.st4{fill:url(#SVGID_2_)}.st5{fill:url(#SVGID_3_)}.st6{fill:url(#SVGID_4_)}.st7{fill:url(#SVGID_5_)}.st8{fill:#fff}.st9{fill:url(#SVGID_6_)}.st10{fill:url(#SVGID_7_)}</style><title>NGNN-header-logo</title><g id="Orbit-Out"><circle id="Oval" class="st0" cx="57.2" cy="77.2" r="2"/><g id="Oval-2" class="st1"><ellipse transform="matrix(0.987 -0.1606 0.1606 0.987 0.1471 7.4071)" class="st2" cx="45.9" cy="2.8" rx="2.8" ry="2.8"/></g><linearGradient id="SVGID_1_" gradientUnits="userSpaceOnUse" x1="60.03" y1="241.91" x2="66.89" y2="241.91" gradientTransform="matrix(1 0 0 1 1.000000e-02 -167.41)"><stop offset="0" stop-color="#A3A5A9" stop-opacity="0.5"/><stop offset=".95" stop-color="#A3A5A9" stop-opacity="0.22"/><stop offset="1" stop-color="#A3A5A9" stop-opacity="0.2"/></linearGradient><path class="st3" d="M63.6,73c-1.1,0.9-2.3,1.7-3.6,2.5c0.1,0.2,0.2,0.3,0.3,0.5c1.2-0.8,2.4-1.6,3.5-2.5c0.2-0.2,0.4-0.3,0.6-0.5 H63.6z"/><linearGradient id="SVGID_2_" gradientUnits="userSpaceOnUse" x1="50.57" y1="183.91" x2="78.54" y2="183.91" gradientTransform="matrix(1 0 0 1 1.000000e-02 -167.41)"><stop offset="0" stop-color="#A3A5A9" stop-opacity="0.7"/><stop offset="1" stop-color="#A3A5A9" stop-opacity="0"/></linearGradient><path class="st4" d="M55.6,4.8c-1.7-0.7-3.4-1.3-5.1-1.8c0,0.3-0.1,0.6-0.2,0.9C63.4,7.2,73.9,17.1,78,30h0.2 C74.8,18.6,66.5,9.4,55.6,4.8z"/></g><g id="Orbit-Mid"><linearGradient id="SVGID_3_" gradientUnits="userSpaceOnUse" x1="17.39" y1="186.206" x2="71.89" y2="186.206" gradientTransform="matrix(1 0 0 1 1.000000e-02 -167.41)"><stop offset="0" stop-color="#A3A5A9"/><stop offset=".85" stop-color="#A3A5A9" stop-opacity="0.15"/><stop offset="1" stop-color="#A3A5A9" stop-opacity="0"/></linearGradient><path class="st5" d="M40.9,7.6c-8.7-0.2-17.1,3-23.5,8.8c0.4,0.3,0.8,0.7,1.1,1.1C31.7,5.1,52.4,5.8,64.8,19c3,3.2,5.3,6.9,6.8,11 h0.3C67.1,16.9,54.9,8,40.9,7.6z"/><circle id="Oval-3" class="st2" cx="14.6" cy="20.7" r="3.4"/></g><g id="Orbit-In"><linearGradient id="SVGID_4_" gradientUnits="userSpaceOnUse" x1="19.99" y1="195.4" x2="57.39" y2="195.4" gradientTransform="matrix(1 0 0 1 1.000000e-02 -167.41)"><stop offset="0" stop-color="#A3A5A9"/><stop offset=".584" stop-color="#A3A5A9" stop-opacity="0.24"/><stop offset="1" stop-color="#A3A5A9" stop-opacity="0"/></linearGradient><path class="st6" d="M55.2,27.1c-1.8-2-4-3.6-6.5-4.7c-2.5-1.1-5.2-1.8-7.9-1.9c-8.7-0.4-16.7,4.6-20.1,12.6 c-0.3,0.7-0.5,1.3-0.7,2l0,0c0.7,0,1.3,0.2,1.9,0.4c0.2-0.6,0.4-1.2,0.6-1.7c4.3-10.2,16-15,26.2-10.7c3.4,1.4,6.3,3.7,8.4,6.7h0.3 C56.8,28.8,56,27.9,55.2,27.1z"/><linearGradient id="SVGID_5_" gradientUnits="userSpaceOnUse" x1="19.15" y1="220.46" x2="37.11" y2="220.46" gradientTransform="matrix(1 0 0 1 1.000000e-02 -167.41)"><stop offset="0" stop-color="#A3A5A9"/><stop offset="1" stop-color="#A4A6A9" stop-opacity="0.6"/></linearGradient><path class="st7" d="M36.1,60.9c-2.2-0.6-4.4-1.6-6.3-2.9c-4.8-3.2-7.9-8.4-8.6-14.1c-0.4,0.1-0.8,0.2-1.2,0.2 c-0.3,0-0.5,0-0.8-0.1c0.2,2,0.7,4,1.5,5.8c2.9,6.4,8.7,11,15.5,12.4C36.2,61.7,36.1,61.4,36.1,60.9z"/><circle id="Oval-4" class="st2" cx="20.2" cy="39.7" r="2.8"/></g><g id="Letters"><polygon id="Shape" class="st8" points="44.4,37.7 44.4,58.3 41.2,58.3 41.2,30.6 43.1,30.6 58.8,51.7 58.6,30.9 61.8,30.9 61.8,58.6 59.9,58.6"/><polygon id="Shape-2" class="st8" points="71.1,30.6 85.9,30.6 85.9,33.6 74.3,33.6 74.3,42.7 85,42.7 85,45.7 74.3,45.7 74.3,55.6 86.1,55.6 86.1,58.6 71.1,58.6"/><polygon id="Shape-3" class="st8" points="102.9,44.4 94.3,30.6 98.4,30.6 105,41.8 112.1,30.6 115.6,30.6 106.8,44.2 116,58.6 112.1,58.6 105,47.4 97.3,58.6 93.6,58.6"/><polygon id="Shape-4" class="st8" points="142.2,33.6 133.6,33.6 133.6,58.6 130.2,58.6 130.2,33.6 121.6,33.6 121.6,30.6 142.2,30.6"/><path id="Shape-5" class="st8" d="M169.9,44.6h9.7v12c-0.6,0.4-0.9,0.6-1.5,0.9c-0.6,0.4-1.3,0.6-2.1,0.7c-0.7,0.2-1.5,0.2-2.2,0.4 c-0.7,0.2-1.5,0.2-2.2,0.2c-1.7,0-3.4-0.2-5-0.7c-1.5-0.6-2.8-1.5-3.9-2.6c-1.1-1.3-2-2.7-2.6-4.3c-1.3-4.1-1.2-8.6,0.2-12.7 c0.7-1.6,1.7-3.1,3-4.3c1.2-1.1,2.6-1.9,4.1-2.4c1.5-0.5,3.1-0.8,4.7-0.7c1.4,0,2.7,0,4.1,0.2c1,0.2,1.9,0.4,2.8,0.7l-0.9,2.8 c-1.8-0.7-3.7-1-5.6-0.9c-1.1,0-2.3,0.2-3.4,0.6c-1.2,0.4-2.3,1-3.2,1.9c-0.9,1-1.7,2.1-2.2,3.4c-0.6,1.7-0.9,3.5-0.9,5.2 c0,1.7,0.2,3.4,0.7,5c0.4,1.3,1.1,2.5,1.9,3.6c0.8,1,1.8,1.7,3,2.1c1.3,0.4,2.6,0.7,3.9,0.7c1.5,0,3.1-0.3,4.5-0.9v-8h-6.7 L169.9,44.6z"/><polygon id="Shape-6" class="st8" points="189,30.6 203.7,30.6 203.7,33.6 192.1,33.6 192.1,42.7 202.8,42.7 202.8,45.7 192.1,45.7 192.1,55.6 203.9,55.6 203.9,58.6 189,58.6"/><polygon id="Shape-7" class="st8" points="243.2,30.6 258,30.6 258,33.6 246.4,33.6 246.4,42.7 256.8,42.7 256.8,45.7 246.4,45.7 246.4,55.6 258.2,55.6 258.2,58.6 243.2,58.6"/><path id="Shape-8" class="st8" d="M267.5,30.9c1.2-0.2,2.4-0.4,3.6-0.4c1.2-0.2,2.4-0.2,3.6-0.2c1.2,0.1,2.4,0.2,3.6,0.4 c1,0.2,2,0.7,2.8,1.3c0.8,0.7,1.5,1.5,2.1,2.4c1.4,2.9,1,6.4-0.9,9c-1.1,1.2-2.5,2-4.1,2.4l8.2,12.3h-3.7l-7.7-12h-3.9v12h-3.4 V30.9z M273.7,33h-2.6v10.5h3.2c1.6,0.1,3.2-0.4,4.5-1.3c1.3-1.1,2-2.7,1.9-4.3c0-1.3-0.6-2.6-1.5-3.6 C277.5,33.3,275.6,32.9,273.7,33L273.7,33z"/><path id="Shape-9" class="st8" d="M309.8,51h-10.1l-2.8,7.7h-3.2l10.5-28.1h1.5l10.5,28.1h-3.6L309.8,51z M300.8,48.2h8l-3.9-11.6 L300.8,48.2z"/><polygon id="Shape-10" class="st8" points="338.6,33.6 330,33.6 330,58.6 326.6,58.6 326.6,33.6 318,33.6 318,30.6 338.6,30.6"/><polygon id="Shape-11" class="st8" points="346.1,30.6 349.8,30.6 349.8,58.6 346.1,58.6"/><path id="Shape-12" class="st8" d="M359.2,44.6c0-4.5,0.9-8,3-10.3c2.1-2.4,5.1-3.8,8.2-3.7c1.7,0,3.4,0.4,5,0.9 c1.4,0.7,2.6,1.6,3.6,2.8c1,1.3,1.7,2.9,2.1,4.5c0.4,1.9,0.7,3.8,0.7,5.8c0,4.5-0.9,8-3,10.3c-2.1,2.4-5.2,3.8-8.4,3.7 c-1.7,0-3.4-0.4-5-0.9c-1.3-0.7-2.5-1.7-3.6-2.8c-1-1.3-1.7-2.9-2.1-4.5C359.4,48.5,359.2,46.5,359.2,44.6L359.2,44.6z M362.7,44.6 c0,1.4,0.2,2.9,0.4,4.3c0.2,1.2,0.7,2.4,1.3,3.6c0.6,1,1.4,1.8,2.4,2.4c1.1,0.6,2.3,0.9,3.6,0.9c2.3,0.1,4.4-1,5.8-2.8 c1.5-2.5,2.2-5.5,2.1-8.4c0-1.4-0.2-2.9-0.4-4.3c-0.2-1.3-0.7-2.5-1.5-3.6c-0.6-1-1.4-1.8-2.4-2.4c-1.1-0.6-2.3-0.9-3.6-0.9 c-2.2-0.1-4.3,1-5.6,2.8C363.1,38.6,362.4,41.6,362.7,44.6z"/><path id="Shape-13" class="st8" d="M84.6,68h5.3v17.8c0,1.6-0.2,3.2-0.7,4.7c-0.4,1.2-1.1,2.3-2.1,3.2c-0.9,0.9-2,1.5-3.2,1.9 c-1.3,0.4-2.7,0.6-4.1,0.6c-7.1,0-10.7-3.2-10.7-9.5V68h5.4v17.4c0.4,4.9,3.4,6,5.2,6c1.9,0,4.5-0.9,4.9-5.8 C84.6,81.1,84.6,68,84.6,68z"/><path id="Shape-14" class="st8" d="M115.3,94.3c-0.9,0.7-2,1.1-3.2,1.3c-1.3,0.2-2.6,0.3-3.9,0.4c-1.7,0-3.3-0.2-4.9-0.7 c-3.3-1-5.9-3.6-6.9-6.9c-0.8-2.1-1.1-4.3-1.1-6.5c-0.1-2.3,0.3-4.6,1.1-6.7c0.6-1.7,1.6-3.2,2.8-4.5c1.1-1.1,2.6-1.9,4.1-2.2 c1.5-0.4,3-0.7,4.5-0.7c1.3-0.1,2.6,0.1,3.9,0.4c1,0.2,1.9,0.4,2.8,0.7l-1.1,4.5c-0.7-0.3-1.5-0.6-2.2-0.7c-1-0.1-2-0.2-3-0.2 c-2-0.1-4,0.8-5.4,2.2c-1.5,2.1-2.2,4.6-2.1,7.1c0,1.3,0.2,2.7,0.6,3.9c0.3,1.1,0.8,2.1,1.5,3c0.7,0.9,1.6,1.5,2.6,1.9 c1,0.5,2.2,0.8,3.4,0.7c1,0,2-0.1,3-0.4c0.8-0.2,1.5-0.5,2.2-0.9L115.3,94.3z"/><polygon id="Shape-15" class="st8" points="138.5,96 121.6,96 121.6,68 126.9,68 126.9,91.2 138.5,91.2"/><polygon id="Shape-16" class="st8" points="145.9,68 162.6,68 162.6,72.8 151.4,72.8 151.4,79.4 161.5,79.4 161.5,84.2 151.4,84.2 151.4,91.2 162.8,91.2 162.8,96 145.9,96"/><path id="Shape-17" class="st8" d="M184.6,89.9H176l-2,6.2h-5.6L178.5,68h4.1L192.7,96h-5.8L184.6,89.9z M177.4,85.6h6l-2.8-9.7 L177.4,85.6z"/><path id="Shape-18" class="st8" d="M198.3,68.5c0.6-0.2,1.3-0.2,1.9-0.4c1.4-0.2,2.7-0.3,4.1-0.4c1.9,0,3.8,0.1,5.6,0.4 c1.2,0.2,2.4,0.6,3.4,1.3c1,0.6,1.9,1.4,2.4,2.4c0.6,1.2,0.9,2.4,0.9,3.7c0.2,3.4-1.6,6.7-4.7,8.2l6.9,12.2h-6.2l-6.5-11.4h-2.4 v11.2h-5.4V68.5z M203.6,72.7v8.2h2.2c1.3,0.1,2.5-0.2,3.6-0.9c1-0.8,1.5-2.1,1.3-3.4c0-1.1-0.4-2.1-1.1-2.8 c-0.8-0.7-1.9-1.2-3-1.1L203.6,72.7z"/><polygon id="Shape-19" class="st8" points="267.5,68 284.1,68 284.1,72.8 272.9,72.8 272.9,79.4 283,79.4 283,84.2 272.9,84.2 272.9,91.2 284.3,91.2 284.3,96 267.5,96"/><polygon id="Shape-20" class="st8" points="314.3,72.8 305.8,72.8 305.8,95.8 300.2,95.8 300.2,72.8 291.8,72.8 291.8,68 314.3,68"/><polygon id="Shape-21" class="st8" points="329.6,84.8 335.4,68 338.9,68 344.2,84.8 348.1,68 353.5,68 346.1,95.8 342.5,95.8 336.9,78.1 331.1,95.8 327.4,95.8 319.9,68 325.7,68"/><path id="Shape-22" class="st8" d="M357.3,82.2c0-4.5,0.9-7.9,3-10.1c2-2.4,5.1-3.7,8.2-3.6c1.7,0,3.5,0.4,5,1.1 c1.4,0.6,2.5,1.6,3.4,2.8c0.9,1.3,1.6,2.8,2.1,4.3c0.5,1.8,0.8,3.7,0.7,5.6c0,4.5-0.9,7.9-3,10.1c-2,2.4-5.1,3.7-8.2,3.6 c-1.7,0-3.5-0.4-5-1.1c-1.4-0.6-2.5-1.6-3.4-2.8c-0.9-1.3-1.6-2.8-2.1-4.3C357.5,86,357.3,84.1,357.3,82.2z M362.5,82.2 c0,1.2,0.2,2.4,0.4,3.6c0.2,1.1,0.6,2.1,1.1,3c0.4,0.8,0.9,1.4,1.7,1.9c0.8,0.5,1.7,0.8,2.6,0.7c1.7,0,3.3-0.8,4.3-2.2 c1.1-2.2,1.7-4.6,1.5-7.1c0-1.2-0.2-2.4-0.4-3.6c-0.2-1.1-0.6-2.1-1.1-3c-0.4-0.8-0.9-1.4-1.7-1.9c-2.3-1.5-5.4-0.8-6.9,1.5 C362.9,77.3,362.4,79.7,362.5,82.2z"/><polygon id="Shape-23" class="st8" points="420.1,84.1 419,84.1 419,95.8 413.4,95.8 413.4,68 419,68 419,80.5 428.2,68 434.5,68 424,81.3 435.8,95.8 428.9,95.8"/><polygon id="Shape-24" class="st8" points="216.4,37.7 216.4,58.3 213.3,58.3 213.3,30.6 215.1,30.6 230.8,51.7 230.7,30.9 233.8,30.9 233.8,58.6 232,58.6"/><polygon id="Shape-25" class="st8" points="394.1,37.7 394.1,58.3 390.9,58.3 390.9,30.6 392.8,30.6 408.5,51.7 408.3,30.9 411.5,30.9 411.5,58.6 409.6,58.6"/><polygon id="Shape-26" class="st8" points="246.2,81.4 244.5,79 244.5,95.8 239.4,95.8 239.4,68 243.2,68 253.5,82.8 255,85 255,68.2 260,68.2 260,96 256.3,96"/><path id="Shape-27" class="st8" d="M387.2,68.5c0.6-0.2,1.3-0.2,1.9-0.4c1.4-0.2,2.7-0.3,4.1-0.4c1.9,0,3.8,0.1,5.6,0.4 c1.2,0.2,2.4,0.6,3.4,1.3c1,0.6,1.9,1.4,2.4,2.4c0.6,1.2,0.9,2.4,0.9,3.7c0.2,3.4-1.6,6.7-4.7,8.2l6.9,12.2h-6.2l-6.5-11.4h-2.4 v11.2h-5.4V68.5z M392.5,72.8v8h2.2c1.3,0.1,2.5-0.2,3.6-0.9c1-0.8,1.5-2.1,1.3-3.4c0-1.1-0.4-2.1-1.1-2.8c-0.8-0.7-1.9-1.2-3-1.1 C394.4,72.7,393.4,72.7,392.5,72.8L392.5,72.8z"/></g><g id="LetterN"><polygon id="Shape-28" class="st8" points="47.9,81.4 46.2,79 46.2,95.8 41.2,95.8 41.2,68 44.9,68 55.2,82.8 56.7,85 56.7,68.2 61.8,68.2 61.8,96 58,96"/></g><linearGradient id="SVGID_6_" gradientUnits="userSpaceOnUse" x1="6" y1="50.386" x2="38.712" y2="50.386"><stop offset="0" stop-color="#A3A5A9"/><stop offset="1" stop-color="#A4A6A9" stop-opacity="0.6"/></linearGradient><path class="st9" d="M36.1,75.2c-1.7-0.2-3.3-0.6-4.9-1.1C14.9,68.9,5.1,52.3,8.5,35.5c0.7-3.6,2-7.1,3.9-10.3	c-0.5-0.2-1-0.5-1.4-0.9c-0.8,1.4-1.6,2.9-2.3,4.4c-3.6,8.6-3.6,18.4,0,27C13.4,67.2,24,75.1,36.1,76.5V75.2z"/><linearGradient id="SVGID_7_" gradientUnits="userSpaceOnUse" x1=".373" y1="41.571" x2="42.081" y2="41.571"><stop offset="0" stop-color="#A3A5A9"/><stop offset=".17" stop-color="#A3A5A9" stop-opacity="0.98"/><stop offset=".32" stop-color="#A3A5A9" stop-opacity="0.91"/><stop offset=".67" stop-color="#A3A5A9" stop-opacity="0.8"/><stop offset="1" stop-color="#A3A5A9" stop-opacity="0.65"/><stop offset="1" stop-color="#A3A5A9" stop-opacity="0.45"/><stop offset="1" stop-color="#A3A5A9" stop-opacity="0.21"/><stop offset="1" stop-color="#A3A5A9" stop-opacity="0"/></linearGradient><path class="st10" d="M36.1,80.2c-2.2-0.3-4.3-0.7-6.4-1.4C9.2,72.6-2.5,51,3.7,30.5c5-16.7,20.5-28,37.8-27.7c0-0.4,0-0.7,0.1-1.1	C19.5,0.7,0.8,17.8-0.2,39.8c-1,21.5,15.1,39.7,36.3,41.7V80.2z"/></svg>