<svg version="1.1" id="Layer_1" xmlns="http://www.w3.org/2000/svg" xmlns:xlink="http://www.w3.org/1999/xlink" x="0" y="0" viewBox="0 0 50.7 55" xml:space="preserve" enable-background="new 0 0 50.7 55"><style type="text/css">.st0{fill:url(#SVGID_1_)}.st1,.st2{fill:#f0c061}.st2{opacity:.35}.st3{opacity:.7}.st4{fill:url(#SVGID_2_)}.st5{fill:url(#SVGID_3_)}.st6{fill:url(#SVGID_4_)}.st7{fill:url(#SVGID_5_)}.st8{fill:url(#SVGID_6_)}.st9{fill:url(#SVGID_7_)}.st10,.st11{opacity:.93;fill:#f0c061}.st11{opacity:.55}.st12{fill:url(#SVGID_8_)}.st13{fill:url(#SVGID_9_)}.st14{fill:url(#SVGID_10_)}.st15{fill:url(#SVGID_11_)}.st16{fill:url(#SVGID_12_)}.st17{fill:#fff}.st18{display:none}.st19{display:inline}.st20{clip-path:url(#SVGID_14_)}.st20,.st21{opacity:0}.st22{clip-path:url(#SVGID_14_)}.st23{opacity:0}.st23,.st24{clip-path:url(#SVGID_20_)}.st25{opacity:0}.st25,.st26{clip-path:url(#SVGID_26_)}.st27{clip-path:url(#SVGID_32_);fill:#cea758}.st28{clip-path:url(#SVGID_34_);fill:#143554}.st29{clip-path:url(#SVGID_36_);fill:#f0c061}.st30{clip-path:url(#SVGID_38_);fill:#143554}.st31{clip-path:url(#SVGID_40_);fill:#f0c061}.st32,.st33{clip-path:url(#SVGID_42_);fill:#143554}.st33{clip-path:url(#SVGID_44_)}.st34,.st35{clip-path:url(#SVGID_46_);fill:#fff}.st35{clip-path:url(#SVGID_48_)}.st36,.st37{clip-path:url(#SVGID_50_);fill:#fff}.st37{clip-path:url(#SVGID_52_)}.st38,.st39{clip-path:url(#SVGID_54_);fill:#fff}.st39{clip-path:url(#SVGID_56_)}.st40,.st41{clip-path:url(#SVGID_58_);fill:#fff}.st41{clip-path:url(#SVGID_60_)}.st42,.st43{clip-path:url(#SVGID_62_);fill:#fff}.st43{clip-path:url(#SVGID_64_)}.st44,.st45{clip-path:url(#SVGID_66_);fill:#fff}.st45{clip-path:url(#SVGID_68_)}.st46,.st47{clip-path:url(#SVGID_70_);fill:#fff}.st47{clip-path:url(#SVGID_72_)}.st48,.st49{clip-path:url(#SVGID_74_);fill:#fff}.st49{clip-path:url(#SVGID_76_)}.st50,.st51{clip-path:url(#SVGID_78_);fill:#fff}.st51{clip-path:url(#SVGID_80_)}.st52,.st53{clip-path:url(#SVGID_82_);fill:#fff}.st53{clip-path:url(#SVGID_84_)}.st54,.st55{clip-path:url(#SVGID_86_);fill:#fff}.st55{clip-path:url(#SVGID_88_)}.st56,.st57{clip-path:url(#SVGID_90_);fill:#fff}.st57{clip-path:url(#SVGID_92_)}.st58,.st59{clip-path:url(#SVGID_94_);fill:#fff}.st59{clip-path:url(#SVGID_96_)}.st60,.st61{clip-path:url(#SVGID_98_);fill:#fff}.st61{clip-path:url(#SVGID_100_)}.st62{fill:url(#SVGID_101_)}.st63{fill:url(#SVGID_102_)}.st64{fill:url(#SVGID_103_)}.st65{fill:url(#SVGID_104_)}.st66{fill:url(#SVGID_105_)}.st67{fill:url(#SVGID_106_)}.st68{fill:#231f20}.st69,.st70,.st71,.st72,.st73{fill:url(#SVGID_107_);stroke:#fff;stroke-width:.5;stroke-miterlimit:10}.st70,.st71,.st72,.st73{fill:url(#SVGID_108_);stroke-width:.25}.st71,.st72,.st73{fill:url(#SVGID_109_);stroke-width:.5}.st72,.st73{fill:url(#SVGID_110_)}.st73{fill:url(#SVGID_111_)}.st74{fill:url(#SVGID_112_)}.st75{fill:url(#SVGID_113_);stroke:#fff;stroke-width:.25;stroke-miterlimit:10}.st76{fill:url(#SVGID_114_)}.st77{fill:url(#SVGID_115_)}.st78{fill:url(#SVGID_116_)}.st79{fill:url(#SVGID_117_)}.st80{fill:url(#SVGID_118_)}.st81{fill:#143553}</style><g><circle id="Oval_5_" class="st1" cx="13.6" cy="10.6" r="2.1"/><circle id="Oval_7_" class="st10" cx="13.7" cy="28.4" r="1.8"/><circle id="Oval_8_" class="st11" cx="36" cy="10.6" r="1.4"/><linearGradient id="SVGID_1_" gradientUnits="userSpaceOnUse" x1="4.888" y1="24.976" x2="40.693" y2="36.976"><stop offset="0" stop-color="#A3A5A9"/><stop offset="1" stop-color="#A3A5A9" stop-opacity="0"/></linearGradient><path class="st0" d="M32.7,42.5c-4.3,2.3-9.6,2.7-14.1,1.1c-2.3-0.8-4.4-2.1-6.2-3.7c-1.8-1.6-3.2-3.7-4.2-5.8 c-2-4.4-2.2-9.5-0.7-14c0.9-2.6,2.3-5,4.1-7c-0.2-0.2-0.5-0.4-0.6-0.7c-2,2.1-3.5,4.6-4.4,7.3c-1.6,4.8-1.3,10.1,0.8,14.7 c2.1,4.6,6.2,8.2,10.9,9.7c2.4,0.8,4.9,1,7.4,0.8c2.5-0.3,4.9-1,7-2.2c4.3-2.3,7.7-6.4,9.2-11.1C40.4,36.3,37,40.3,32.7,42.5z"/><linearGradient id="SVGID_2_" gradientUnits="userSpaceOnUse" x1="16.873" y1="6.094" x2="33.514" y2="11.671"><stop offset="0" stop-color="#A3A5A9"/><stop offset="1" stop-color="#A3A5A9" stop-opacity="0.4"/></linearGradient><path class="st4" d="M34.2,9c-1.1-0.7-2.2-1.2-3.5-1.6C26,5.7,20.6,6.2,16.1,8.5c0,0-0.1,0-0.1,0.1c0.2,0.2,0.3,0.5,0.5,0.7 c0,0,0,0,0,0c2.1-1.1,4.4-1.9,6.8-2.2c2.4-0.3,4.8,0,7.2,0.7c1.2,0.4,2.3,0.9,3.4,1.5C34,9.2,34.1,9.1,34.2,9z"/><linearGradient id="SVGID_3_" gradientUnits="userSpaceOnUse" x1="35.053" y1="20.215" x2="44.829" y2="23.491"><stop offset="0" stop-color="#A3A5A9" stop-opacity="0.3"/><stop offset="1" stop-color="#A3A5A9" stop-opacity="0"/></linearGradient><path class="st5" d="M41.3,17.2c-0.8-1.9-2-3.6-3.4-5.1c-0.1,0.1-0.1,0.2-0.2,0.2c1.4,1.4,2.6,3.1,3.5,5c2.1,4.4,2.3,9.7,0.8,14.3 C43.6,27,43.4,21.7,41.3,17.2z"/><g><linearGradient id="SVGID_4_" gradientUnits="userSpaceOnUse" x1="14.565" y1="28.98" x2="35.152" y2="35.88"><stop offset="0" stop-color="#A3A5A9"/><stop offset="1" stop-color="#A3A5A9" stop-opacity="0"/></linearGradient><path class="st6" d="M30.7,36.8c-2.8,1.5-6.3,1.8-9.3,0.7c-3-1-5.4-3.4-6.6-6.3c0-0.1-0.1-0.2-0.1-0.3c-0.3,0.1-0.6,0.2-0.8,0.2 c0.1,0.2,0.1,0.3,0.2,0.5c1.4,3,4.1,5.5,7.3,6.4c3.2,1,6.7,0.6,9.5-1.1c2.9-1.6,5-4.3,6-7.4C35.7,32.7,33.5,35.3,30.7,36.8z"/><linearGradient id="SVGID_5_" gradientUnits="userSpaceOnUse" x1="14.922" y1="17.562" x2="38.692" y2="25.529"><stop offset="0" stop-color="#A3A5A9"/><stop offset="1" stop-color="#A3A5A9" stop-opacity="0"/></linearGradient><path class="st7" d="M36.4,20.1c-1.3-3-3.8-5.5-6.9-6.6c-3.1-1.1-6.7-0.8-9.7,0.8c-3,1.6-5.2,4.3-6.3,7.5 c-0.4,1.3-0.6,2.6-0.7,3.9c0.2-0.1,0.5-0.1,0.8-0.1c0.1,0,0.1,0,0.2,0c0.1-1.2,0.3-2.4,0.7-3.5c1-3,3-5.6,5.8-7.1 c2.7-1.6,6.1-2,9.1-1c3,0.9,5.6,3.2,7,6.2c1.4,2.9,1.5,6.4,0.5,9.4C37.8,26.6,37.7,23.1,36.4,20.1z"/></g><polygon id="Shape_24_" class="st17" points="30.1,32.8 28.3,30.3 28.3,48.4 22.8,48.4 22.8,18.3 26.8,18.3 38,34.3 39.6,36.8 39.6,18.5 45,18.5 45,48.6 41,48.6"/></g></svg>