<svg id="Layer_1" xmlns="http://www.w3.org/2000/svg" xmlns:xlink="http://www.w3.org/1999/xlink" viewBox="0 0 500 161.3"><style>.st0{fill:url(#SVGID_1_)}.st1,.st2{fill:#f0c061}.st2{opacity:.35}.st3{opacity:.7}.st4{fill:url(#SVGID_2_)}.st5{fill:url(#SVGID_3_)}.st6{fill:url(#SVGID_4_)}.st7{fill:url(#SVGID_5_)}.st8{fill:url(#SVGID_6_)}.st9{fill:url(#SVGID_7_)}.st10,.st11{opacity:.93;fill:#f0c061}.st11{opacity:.55}.st12{fill:url(#SVGID_8_)}.st13{fill:url(#SVGID_9_)}.st14{fill:url(#SVGID_10_)}.st15{fill:url(#SVGID_11_)}.st16{fill:url(#SVGID_12_)}.st17{fill:#fff}.st18{display:none}.st19{display:inline}.st20{clip-path:url(#SVGID_14_)}.st20,.st21{opacity:0}.st22{clip-path:url(#SVGID_14_)}.st23{opacity:0}.st23,.st24{clip-path:url(#SVGID_20_)}.st25{opacity:0}.st25,.st26{clip-path:url(#SVGID_26_)}.st27{clip-path:url(#SVGID_32_);fill:#cea758}.st28{clip-path:url(#SVGID_34_);fill:#143554}.st29{clip-path:url(#SVGID_36_);fill:#f0c061}.st30{clip-path:url(#SVGID_38_);fill:#143554}.st31{clip-path:url(#SVGID_40_);fill:#f0c061}.st32,.st33{clip-path:url(#SVGID_42_);fill:#143554}.st33{clip-path:url(#SVGID_44_)}.st34,.st35{clip-path:url(#SVGID_46_);fill:#fff}.st35{clip-path:url(#SVGID_48_)}.st36,.st37{clip-path:url(#SVGID_50_);fill:#fff}.st37{clip-path:url(#SVGID_52_)}.st38,.st39{clip-path:url(#SVGID_54_);fill:#fff}.st39{clip-path:url(#SVGID_56_)}.st40,.st41{clip-path:url(#SVGID_58_);fill:#fff}.st41{clip-path:url(#SVGID_60_)}.st42,.st43{clip-path:url(#SVGID_62_);fill:#fff}.st43{clip-path:url(#SVGID_64_)}.st44,.st45{clip-path:url(#SVGID_66_);fill:#fff}.st45{clip-path:url(#SVGID_68_)}.st46,.st47{clip-path:url(#SVGID_70_);fill:#fff}.st47{clip-path:url(#SVGID_72_)}.st48,.st49{clip-path:url(#SVGID_74_);fill:#fff}.st49{clip-path:url(#SVGID_76_)}.st50,.st51{clip-path:url(#SVGID_78_);fill:#fff}.st51{clip-path:url(#SVGID_80_)}.st52,.st53{clip-path:url(#SVGID_82_);fill:#fff}.st53{clip-path:url(#SVGID_84_)}.st54,.st55{clip-path:url(#SVGID_86_);fill:#fff}.st55{clip-path:url(#SVGID_88_)}.st56,.st57{clip-path:url(#SVGID_90_);fill:#fff}.st57{clip-path:url(#SVGID_92_)}.st58,.st59{clip-path:url(#SVGID_94_);fill:#fff}.st59{clip-path:url(#SVGID_96_)}.st60,.st61{clip-path:url(#SVGID_98_);fill:#fff}.st61{clip-path:url(#SVGID_100_)}.st62{fill:url(#SVGID_101_)}.st63{fill:url(#SVGID_102_)}.st64{fill:url(#SVGID_103_)}.st65{fill:url(#SVGID_104_)}.st66{fill:url(#SVGID_105_)}.st67{fill:url(#SVGID_106_)}.st68{fill:#231f20}.st69,.st70,.st71,.st72,.st73{fill:url(#SVGID_107_);stroke:#fff;stroke-width:.5;stroke-miterlimit:10}.st70,.st71,.st72,.st73{fill:url(#SVGID_108_);stroke-width:.25}.st71,.st72,.st73{fill:url(#SVGID_109_);stroke-width:.5}.st72,.st73{fill:url(#SVGID_110_)}.st73{fill:url(#SVGID_111_)}.st74{fill:url(#SVGID_112_)}.st75{fill:url(#SVGID_113_);stroke:#fff;stroke-width:.25;stroke-miterlimit:10}.st76{fill:url(#SVGID_114_)}.st77{fill:url(#SVGID_115_)}.st78{fill:url(#SVGID_116_)}.st79{fill:url(#SVGID_117_)}.st80{fill:url(#SVGID_118_)}.st81{fill:#143553}</style><g class="st18"><g class="st19"><defs><path id="SVGID_13_" d="M501.9 15.9c0-31.8-24.1-58.4-55.7-61.5-31.6-3.1-60.5 18.2-66.7 49.4-6.2 31.2 12.2 62 42.6 71.2 30.4 9.3 62.9-6.1 75.1-35.4 3.1-7.6 4.7-15.6 4.7-23.7zm.4 0c0 30.3-21.3 56.3-50.9 62.4s-59.5-9.7-71.2-37.5c-10.2-24.2-4.6-52.2 14.3-70.5 18.3-17.8 45.5-22.8 69.1-12.9 23.3 9.9 38.6 32.9 38.7 58.5z"/></defs><clipPath id="SVGID_1_"><use xlink:href="#SVGID_13_" overflow="visible"/></clipPath><g clip-path="url(#SVGID_1_)"><defs><path id="SVGID_17_" d="M369.8-52.6h132.4V84.3H369.8z"/></defs><clipPath id="SVGID_3_"><use xlink:href="#SVGID_17_" overflow="visible"/></clipPath><g clip-path="url(#SVGID_3_)"><image width="553" height="571" xlink:href="BA87C51F2E5B699.jpg" transform="matrix(.24 0 0 .24 369.85 -52.67)" overflow="visible"/></g></g></g><g class="st19"><defs><path id="SVGID_19_" d="M492 16.3c0-27.4-20.3-50.3-46.9-53-26.6-2.7-50.9 15.7-56.2 42.6-5.2 26.9 10.3 53.4 35.9 61.4 25.6 8 53-5.2 63.2-30.5 2.7-6.6 4-13.5 4-20.5zm.3 0c0 29.8-23.2 54.2-52.4 54.9-7.1.2-14.1-1.1-20.7-3.7-13.5-5.3-24.4-16.1-30-29.7-5.7-13.7-5.7-29.2 0-43 8.6-20.7 28.7-33.9 50.7-33.4 29.2.8 52.4 25.1 52.4 54.9z"/></defs><clipPath id="SVGID_4_"><use xlink:href="#SVGID_19_" overflow="visible"/></clipPath><g clip-path="url(#SVGID_4_)"><defs><path id="SVGID_23_" d="M383.5-39.4h108.8V75.2H383.5z"/></defs><clipPath id="SVGID_6_"><use xlink:href="#SVGID_23_" overflow="visible"/></clipPath><g clip-path="url(#SVGID_6_)"><image width="455" height="479" xlink:href="BA87C51F2E5B69A.jpg" transform="matrix(.24 0 0 .24 383.53 -39.47)" overflow="visible"/></g></g></g><g class="st19"><defs><path id="SVGID_25_" d="M470.5 15.9c0-14.9-10.5-27.8-25.2-30.7-14.6-2.9-29.3 4.9-35 18.7-5.7 13.8-.9 29.7 11.5 38s29 6.7 39.5-3.8c5.9-6 9.2-13.9 9.2-22.2zm.4 0c0 4.2-.8 8.3-2.4 12.2-1.5 3.9-3.8 7.5-6.7 10.5-2.9 3.1-6.4 5.6-10.2 7.4-3.9 1.8-8.1 2.8-12.4 3-13.7.6-26.3-7.3-31.7-19.9-3.6-8.4-3.6-17.9 0-26.2 5.4-12.6 18-20.5 31.7-19.9 4.3.2 8.5 1.2 12.4 3 3.8 1.8 7.3 4.3 10.2 7.4 2.9 3 5.2 6.6 6.7 10.5 1.6 3.7 2.4 7.8 2.4 12z"/></defs><clipPath id="SVGID_7_"><use xlink:href="#SVGID_25_" overflow="visible"/></clipPath><g clip-path="url(#SVGID_7_)"><defs><path id="SVGID_29_" d="M403.9-17.8h67v67.9h-67z"/></defs><clipPath id="SVGID_9_"><use xlink:href="#SVGID_29_" overflow="visible"/></clipPath><g clip-path="url(#SVGID_9_)"><image width="281" height="284" xlink:href="BA87C51F2E5B696.jpg" transform="matrix(.24 0 0 .24 403.69 -17.87)" overflow="visible"/></g></g></g><g class="st19"><defs><circle id="SVGID_39_" cx="406.9" cy="12.2" r="4.5"/></defs><clipPath id="SVGID_10_"><use xlink:href="#SVGID_39_" overflow="visible"/></clipPath><path clip-path="url(#SVGID_10_)" fill="#F0C061" d="M398.2 3.5h17.3v17.3h-17.3z"/></g><g class="st19"><defs><path id="SVGID_41_" d="M406.9 5.2c-3.4 0-6.2 2.8-6.2 6.2s2.8 6.2 6.2 6.2 6.2-2.8 6.2-6.2-2.8-6.2-6.2-6.2zm0 1.9c2.3 0 4.2 1.9 4.2 4.2s-1.9 4.2-4.2 4.2c-2.3 0-4.2-1.9-4.2-4.2s1.8-4.2 4.2-4.2z"/></defs><clipPath id="SVGID_11_"><use xlink:href="#SVGID_41_" overflow="visible"/></clipPath><path clip-path="url(#SVGID_11_)" fill="#143554" d="M396.5 1h20.6v20.6h-20.6z"/></g><g class="st19"><defs><path id="SVGID_43_" d="M416.3 7.6h80.9v90.9h-80.9z"/></defs><clipPath id="SVGID_12_"><use xlink:href="#SVGID_43_" overflow="visible"/></clipPath><path clip-path="url(#SVGID_12_)" fill="#143554" d="M412.2 3.5h89.2v99.1h-89.2z"/></g><g class="st19"><defs><path id="SVGID_45_" d="M440.7 35.1l-2.3-4h-.2l.5 4v18.4h-3.4V25h1.9l14.2 18.7 2.2 3.8h.2l-.4-3.8V25.4h3.3v28.5h-1.9z"/></defs><clipPath id="SVGID_14_"><use xlink:href="#SVGID_45_" overflow="visible"/></clipPath><path clip-path="url(#SVGID_14_)" fill="#FFF" d="M431.2 20.9h29.6v37.2h-29.6z"/></g><g class="st19"><defs><path id="SVGID_47_" d="M464.4 25h15.3v3h-12v9.5h11v3h-11v10.3h12.2v3.1h-15.5z"/></defs><clipPath id="SVGID_16_"><use xlink:href="#SVGID_47_" overflow="visible"/></clipPath><path clip-path="url(#SVGID_16_)" fill="#FFF" d="M460.3 20.9h23.8v37.2h-23.8z"/></g><g class="st19"><defs><path id="SVGID_49_" d="M495.4 39.2L486.6 25h4.1l5.9 9.8 1 2.3 1-2.3 6.2-9.8h3.8l-9.1 13.9 9.5 15h-4l-6.5-10.4-1.2-2.5-1 2.5-6.7 10.3h-3.9z"/></defs><clipPath id="SVGID_18_"><use xlink:href="#SVGID_49_" overflow="visible"/></clipPath><path clip-path="url(#SVGID_18_)" fill="#FFF" d="M481.6 20.9h31.5v37.2h-31.5z"/></g><g class="st19"><defs><path id="SVGID_73_" d="M442.2 79.9l-2.2-4.6h-.2l.7 4.6v15h-5.2V65.8h4l10.4 15.4 2.1 4.5h.2l-.7-4.5V66h5.2v29.2h-4z"/></defs><clipPath id="SVGID_20_"><use xlink:href="#SVGID_73_" overflow="visible"/></clipPath><path clip-path="url(#SVGID_20_)" fill="#FFF" d="M431.2 61.6h29.4v37.7h-29.4z"/></g><g class="st19"><defs><path id="SVGID_75_" d="M478 65.8h5.4v18.7c0 1.6-.2 3.3-.7 4.8-.4 1.3-1.1 2.4-2.1 3.4-.9.9-2 1.6-3.2 1.9-1.3.4-2.7.6-4.2.6-7.3 0-10.9-3.3-10.9-10V65.8h5.6V84c0 1 .1 1.9.3 2.9.2.7.5 1.4 1 1.9.4.5 1 .8 1.7 1 .7.2 1.5.3 2.3.3 1.4.1 2.8-.4 3.7-1.4.9-1.4 1.3-3 1.2-4.7l-.1-18.2z"/></defs><clipPath id="SVGID_22_"><use xlink:href="#SVGID_75_" overflow="visible"/></clipPath><path clip-path="url(#SVGID_22_)" fill="#FFF" d="M458.1 61.6h29.4v37.7h-29.4z"/></g><g class="st19"><defs><path id="SVGID_77_" d="M510.2 93.4c-1 .7-2.2 1.2-3.5 1.4-1.4.3-2.9.4-4.3.4-1.7 0-3.5-.3-5.1-.8-1.6-.6-3-1.5-4.2-2.7-1.3-1.4-2.3-3.1-2.9-4.9-.8-2.3-1.1-4.8-1.1-7.3-.1-2.5.3-5.1 1.2-7.4.7-1.8 1.8-3.5 3.1-4.8 1.2-1.2 2.7-2.1 4.3-2.6 1.5-.5 3.1-.8 4.8-.8 1.4 0 2.9.1 4.3.3 1 .2 2 .5 2.9.8l-1.1 5c-.7-.3-1.5-.6-2.3-.7-1.1-.2-2.2-.2-3.2-.2-2.2-.1-4.3.9-5.7 2.5-1.4 1.7-2.1 4.3-2.1 7.9 0 1.4.2 2.9.5 4.3.3 1.2.8 2.3 1.6 3.3.7.9 1.6 1.6 2.6 2.1 1.1.5 2.4.8 3.6.8 1.1 0 2.2-.1 3.2-.4.8-.2 1.6-.6 2.3-1l1.1 4.8z"/></defs><clipPath id="SVGID_24_"><use xlink:href="#SVGID_77_" overflow="visible"/></clipPath><path clip-path="url(#SVGID_24_)" fill="#FFF" d="M484.9 59.7h29.4v39.6h-29.4z"/></g></g><g id="Words"><path id="Shape_57_" class="st17" d="M77.5 89.2v21.3h-3.3V81.9h2l16.2 21.8-.2-21.4h3.3v28.6h-1.9z"/><path id="Shape_56_" class="st17" d="M103.3 81.9h15.2V85h-12v9.4h11.1v3.1h-11.1v10.3h12.2v3.1h-15.4z"/><path id="Shape_55_" class="st17" d="M134.2 96.2l-8.9-14.3h4.3l6.8 11.5 7.3-11.5h3.7l-9.2 14.2 9.6 14.8h-4.1l-7.4-11.7-7.9 11.7h-3.9z"/><path id="Shape_54_" class="st17" d="M174.8 85h-8.9v25.9h-3.4V85h-8.9v-3.1h21.2z"/><path id="Shape_53_" class="st17" d="M201.5 96.4h10.1v12.4c-.6.4-1 .6-1.5 1-.6.2-1.4.6-2.1.8-.8.2-1.5.2-2.3.4-.8.1-1.5.2-2.3.2-1.7 0-3.5-.2-5.2-.8-1.5-.6-2.9-1.5-4.1-2.7-1.2-1.4-2.1-2.9-2.7-4.4-.8-2.1-1-4.3-1-6.6s.4-4.4 1.2-6.6c.8-1.7 1.7-3.3 3.1-4.4 1.2-1.2 2.7-1.9 4.3-2.5s3.1-.8 4.8-.8c1.4 0 2.9 0 4.3.2 1 .2 1.9.4 2.9.8l-1 2.9c-1.9-.8-3.9-1-5.8-1-1.2 0-2.3.2-3.5.6s-2.3 1-3.3 1.9-1.7 2.3-2.3 3.5c-.6 1.7-1 3.7-1 5.4 0 1.7.2 3.5.8 5.2.4 1.4 1.2 2.5 1.9 3.7.8 1 1.9 1.7 3.1 2.1 1.4.4 2.7.8 4.1.8 1.5 0 3.3-.4 4.6-1v-8.3l-6.9.1v-2.9z"/><path id="Shape_52_" class="st17" d="M219.3 81.9h15.3V85h-12v9.4h11.1v3.1h-11.1v10.3h12.2v3.1h-15.5z"/><path id="Shape_51_" class="st17" d="M271.6 81.9h15.3V85h-12v9.4h10.8v3.1h-10.8v10.3h12.2v3.1h-15.5z"/><path id="Shape_50_" class="st17" d="M294.9 82.2c1.2-.2 2.3-.3 3.7-.4 1.4-.1 2.5-.2 3.7-.2s2.2.1 3.7.4c1.2.2 2 .7 2.9 1.4.9.7 1.6 1.5 2.1 2.5 1.5 3 1 6.9-1 9.4-1.2 1.4-2.4 1.9-4.2 2.5l8.4 12.9h-3.9l-7.9-12.4h-4.1v12.4h-3.5V82.2zm6.3 2.2c-.7 0-2 .1-2 .1-.2 0-.5 0-.8.1l-.1 10.7h3.3c1.7 0 3.3-.4 4.6-1.4 1.4-1 1.9-2.7 1.9-4.4 0-1.4-.6-2.7-1.5-3.7-1.3-.9-2-1.4-5.4-1.4z"/><path id="Shape_49_" class="st17" d="M336.6 103h-10.4l-2.9 7.9H320l10.8-29h1.5l10.8 29h-3.7l-2.8-7.9zm-9.3-2.9h8.3l-4.1-12-4.2 12z"/><path id="Shape_48_" class="st17" d="M364.5 85h-8.9v25.9h-3.5V85h-8.9v-3.1h21.3z"/><path id="Shape_47_" class="st17" d="M370.3 81.9h3.8v29h-3.8z"/><path id="Shape_46_" class="st17" d="M381.9 96.4c0-4.6 1-8.3 3.1-10.6 2.1-2.5 5.2-3.9 8.5-3.9 1.7 0 3.5.4 5.2 1 1.4.6 2.7 1.7 3.7 2.9 1 1.4 1.7 2.9 2.1 4.6.4 1.9.8 3.9.8 6 0 4.6-1 8.3-3.1 10.6-2.1 2.5-5.2 3.9-8.7 3.9-1.7 0-3.5-.4-5.2-1-1.4-.8-2.7-1.7-3.7-2.9-1-1.4-1.7-2.9-2.1-4.6-.4-2-.6-4.1-.6-6zm3.6 0c0 1.5.2 2.9.4 4.4.2 1.4.8 2.5 1.4 3.7.6 1 1.5 1.9 2.5 2.5 1.2.6 2.3 1 3.7 1 2.3 0 4.6-1 6-2.9 1.4-1.9 2.1-4.8 2.1-8.7 0-1.5-.2-2.9-.4-4.4-.2-1.4-.8-2.5-1.5-3.7-.6-1-1.5-1.9-2.5-2.5-1.2-.6-2.3-1-3.7-1-2.3 0-4.4 1-5.8 2.9-1.6 1.9-2.4 4.8-2.2 8.7z"/><path id="Shape_45_" class="st17" d="M81.1 134.5l-1.7-2.5v17.4h-5.2v-28.8H78l10.7 15.3 1.5 2.4v-17.5h5.3v28.8h-3.9z"/><path id="Shape_44_" class="st17" d="M117.1 120.6h5.4V139c0 1.5-.2 3.3-.8 4.8-.4 1.2-1.2 2.3-2.1 3.3s-1.9 1.5-3.3 1.9-2.7.6-4.3.6c-7.4 0-11-3.3-11-9.9v-19.2h5.6v18c.5 4.9 3.5 6.2 5.4 6.2 2.2 0 4.6-.9 5-6 .2-4.6.1-18.1.1-18.1z"/><path id="Shape_43_" class="st17" d="M149.6 147.8c-1 .8-2.3 1.2-3.5 1.4-1.4.2-2.9.4-4.3.4-1.7 0-3.5-.2-5.2-.8-1.6-.6-3.1-1.5-4.3-2.7-1.4-1.4-2.3-3.1-2.9-4.8-.8-2.3-1.2-4.6-1.2-7.2 0-2.5.3-5.1 1.2-7.4.7-1.8 1.7-3.5 3.1-4.8 1.2-1.2 2.7-2 4.4-2.5 1.6-.5 3.1-.8 4.8-.8 1.5 0 2.9.1 4.3.4 1 .2 1.9.4 2.9.8l-1.2 4.8c-.8-.4-1.5-.6-2.3-.8-1.2-.2-2.1-.2-3.3-.2-2.1 0-4.3.7-5.8 2.5-1.4 1.7-2.1 4.3-2.1 7.7 0 1.4.2 2.9.6 4.3.4 1.2.8 2.3 1.5 3.3s1.5 1.5 2.7 2.1c1.2.6 2.3.8 3.7.8 1.2 0 2.1-.1 3.3-.4.8-.2 1.5-.6 2.3-1l1.3 4.9z"/><path id="Shape_42_" class="st17" d="M172.8 149.6h-17.4v-29h5.4v24h12z"/><path id="Shape_41_" class="st17" d="M178.6 120.6h17.3v5h-11.6v6.8h10.4v5h-10.4v7.2h11.8v5h-17.5z"/><path id="Shape_40_" class="st17" d="M218.7 143.2h-8.9l-2.1 6.4h-5.8l10.4-29h4.3l10.4 29h-6l-2.3-6.4zm-7.6-4.4h6.2l-2.9-10.1-3.3 10.1z"/><path id="Shape_39_" class="st17" d="M232.8 121.2c.6-.2 1.3-.3 1.9-.4.8-.1 3.7-.4 4.3-.4.5 0 3.8 0 5.8.4 1.2.2 2.3.6 3.5 1.4 1 .6 1.9 1.4 2.5 2.5.6 1.2 1 2.5 1 3.9 0 1.9-.4 4.1-1.5 5.6-1.2 1.5-1.7 1.9-3.3 2.9l7.2 12.6h-6.4l-6.7-11.8h-2.6v11.6h-5.6v-28.3zm5.4 4.3v8.4h2.3c1.4 0 2.6-.2 3.7-1s1.4-2.2 1.4-3.5c0-1.2-.4-2.1-1.2-2.9s-1.9-1.2-3.1-1.2c0 .1-1.6.1-3.1.2z"/><path id="Shape_38_" class="st17" d="M302.5 120.6h17.2v5h-11.6v6.8h10.4v5h-10.4v7.2h11.8v5h-17.4z"/><path id="Shape_37_" class="st17" d="M348.9 125.6h-8.7v24h-5.8v-24h-8.7v-5h23.2z"/><path id="Shape_36_" class="st17" d="M364.9 138.1l5.9-17.5h3.6l5.5 17.4 4-17.4h5.6l-7.7 29h-3.7l-5.8-18.6-6 18.6h-3.9l-7.7-29h6z"/><path id="Shape_35_" class="st17" d="M393.4 134.1c0-5 1.1-8.8 3.3-11.4 2.3-2.8 5.8-4.2 9.3-4.1 1.9.1 3.9.3 5.6 1.2 1.6.7 2.9 1.8 3.9 3.1 1.1 1.6 1.9 3.1 2.3 4.8.5 2.1.8 4.3.8 6.4 0 5-1.1 8.8-3.3 11.4-2.3 2.8-5.8 4.3-9.3 4.1-1.9 0-3.9-.4-5.6-1.2-1.5-.8-2.9-1.8-3.9-3.1-1.1-1.6-1.9-3.1-2.3-4.8-.5-2.1-.8-4.3-.8-6.4zm6 0c0 1.4.2 2.7.4 4.1.2 1.2.6 2.3 1.2 3.3.4.8 1.1 1.6 1.9 2.1.9.6 1.9.8 2.9.8 1.9 0 3.6-.8 4.8-2.5 1.1-1.6 1.7-4.3 1.7-7.9 0-1.4-.2-2.7-.4-4.1-.2-1.2-.7-2.3-1.2-3.3-.5-.9-1.1-1.6-1.9-2.1-2.6-1.7-6-.8-7.7 1.7-1.1 1.7-1.7 4.4-1.7 7.9z"/><path id="Shape_34_" class="st17" d="M458.4 137.2h-1.1v12.4h-5.9v-29h5.9v12.9l9.4-12.9h6.6l-10.8 13.7 12.2 15.3h-7.2z"/><path id="Shape_33_" class="st17" d="M245.8 89.2l.1 21.3h-3.3V81.9h1.9l16.2 21.8-.1-21.4h3.2v28.6h-1.9z"/><path id="Shape_32_" class="st17" d="M416.1 89.2v21.3h-3.3V81.9h2l16.2 21.8-.2-21.4h3.3v28.6h-1.9z"/><path id="Shape_31_" class="st17" d="M280.4 134.5l-1.7-2.5v17.4h-5.3v-28.8h3.9l10.7 15.3 1.5 2.4v-17.5h5.2v28.8h-3.8z"/><path id="Shape_29_" class="st17" d="M424.4 121.2c.6-.2 1.3-.3 1.9-.4.8-.1 3.7-.4 4.3-.4.5 0 3.8 0 5.8.4 1.2.2 2.3.6 3.5 1.4 1 .6 1.9 1.4 2.5 2.5s1 2.5 1 3.9c0 1.9-.4 4.1-1.5 5.6-1.2 1.5-1.7 1.9-3.3 2.9l7.2 12.6h-6.4l-6.7-11.8h-2.6v11.6h-5.6v-28.3zm5.4 4.4v8.4h2.3c1.4 0 2.6-.2 3.7-1s1.4-2.2 1.4-3.5c0-1.2-.4-2.1-1.2-2.9-.8-.8-1.9-1.2-3.1-1.2 0 .1-1.7.1-3.1.2z"/></g><ellipse id="Oval_12_" transform="rotate(-86.4 40.14 37.51)" class="st1" cx="40.1" cy="37.5" rx="5.4" ry="5.4"/><ellipse id="Oval_11_" transform="rotate(-86.4 45.75 67.38)" class="st1" cx="45.7" cy="67.4" rx="4.6" ry="4.6"/><ellipse transform="rotate(-5.7 89.3 11.65)" class="st3 st1" cx="89.3" cy="11.6" rx="4.3" ry="4.3" id="Oval_6_"/><linearGradient id="SVGID_26_" gradientUnits="userSpaceOnUse" x1="39.258" y1="17.916" x2="79.925" y2="139.237"><stop offset="0" stop-color="#A3A5A9"/><stop offset="1" stop-color="#A3A5A9" stop-opacity="0"/></linearGradient><path d="M61.3 10.7c-8.1 2.1-15.8 5.8-22.5 10.8-6.7 5.1-12.3 11.4-16.6 18.7-4.2 7.2-6.9 15.3-8 23.6-1 8.2-.4 16.7 1.8 24.7s6 15.6 11 22.1c5.1 6.5 11.4 12.1 18.5 16.1 7.1 4.1 15.1 6.7 23.2 7.8h.3v-.4h-.2c-8.1-1.2-15.8-4-22.8-8.2-6.9-4.2-13-9.7-17.8-16.2-4.7-6.5-8.2-14-10.1-21.7-1.9-7.8-2.3-16-1.1-23.9C19.3 48.3 28 33.6 40.8 24c11.8-9 27.1-13.4 42-12.2 0-1 .2-1.9.5-2.8-7.3-.7-14.8-.2-22 1.7z" fill="url(#SVGID_26_)"/><linearGradient id="SVGID_28_" gradientUnits="userSpaceOnUse" x1="107.556" y1="7.673" x2="143.305" y2="114.323"><stop offset="0" stop-color="#A3A5A9"/><stop offset="1" stop-color="#A3A5A9" stop-opacity="0"/></linearGradient><path d="M126.5 35.5c4.9 6.4 8.6 13.7 10.8 21.5 1.8 6.7 2.5 13.8 2 20.7h.5c.6-7 .2-14.1-1.5-21-2-8-5.5-15.6-10.4-22.3-4.9-6.7-11.1-12.4-18.2-16.7-4.3-2.6-9-4.7-13.8-6.2 0 .9-.2 1.7-.5 2.5 4.6 1.3 9 3.2 13.2 5.6 6.8 4.1 13 9.5 17.9 15.9z" fill="url(#SVGID_28_)"/><linearGradient id="SVGID_30_" gradientUnits="userSpaceOnUse" x1="77.505" y1="16.01" x2="111.595" y2="117.711"><stop offset="0" stop-color="#A3A5A9"/><stop offset=".791" stop-color="#A3A5A9" stop-opacity=".4"/></linearGradient><path d="M120.5 42c4.2 5.4 7.4 11.7 9.2 18.4 1.6 5.7 2.2 11.6 1.8 17.5h.5c.5-5.9.1-11.9-1.3-17.7-1.7-6.9-4.7-13.4-8.9-19.1-4.2-5.7-9.5-10.6-15.7-14.3-6.1-3.7-13-6.2-20.1-7.3-7.1-1-14.4-.7-21.4 1.1-7 1.8-13.6 5-19.4 9.3l-1.5 1.2c.7.4 1.4.9 1.9 1.6.2.2.3.4.5.6.3-.3.7-.5 1-.8 10.8-8.2 24.9-12 38.4-10.2 6.7.9 13.4 3 19.3 6.4 6.2 3.3 11.5 7.8 15.7 13.3z" fill="url(#SVGID_30_)"/><linearGradient id="SVGID_32_" gradientUnits="userSpaceOnUse" x1="26.411" y1="44.144" x2="58.04" y2="138.503"><stop offset="0" stop-color="#A3A5A9"/><stop offset=".791" stop-color="#A3A5A9" stop-opacity=".4"/></linearGradient><path d="M69.1 126c-6.1-1.2-12-3.5-17.3-6.7-5.9-3.6-11.1-8.4-15.2-13.9-4.1-5.6-7-11.9-8.6-18.6-1.7-6.6-2-13.6-1-20.3 1.2-8.1 4.4-15.9 9.1-22.6-.6-.4-1.2-.8-1.6-1.4l-.6-.9c-1 1.3-1.9 2.7-2.7 4.2-3.7 6.2-6 13.2-6.9 20.3-.9 7.1-.4 14.4 1.5 21.3s5.2 13.4 9.5 19c4.4 5.6 9.8 10.3 16 13.8 5.5 3.2 11.6 5.3 17.8 6.3-.1-.2-.1-.4 0-.5z" fill="url(#SVGID_32_)"/><linearGradient id="SVGID_34_" gradientUnits="userSpaceOnUse" x1="69.666" y1="38.248" x2="90.809" y2="101.324"><stop offset="0" stop-color="#A3A5A9"/><stop offset="1" stop-color="#A3A5A9" stop-opacity="0"/></linearGradient><path d="M102.9 52.5c5.2 6.5 7.7 15.1 6.7 23.5-.1.6-.2 1.2-.3 1.7h.5c.1-.6.2-1.1.3-1.7.7-4.2.5-8.6-.5-12.8-1-4.2-2.8-8.2-5.4-11.8-5.1-7.1-13.1-12.2-21.9-13.5-4.4-.7-8.9-.5-13.3.6-4.3 1.1-8.4 3.1-12 5.7-3.5 2.7-6.6 6.1-8.8 10-1.2 2-2.1 4.2-2.8 6.4h.8c.8 0 1.5.2 2.2.5 2.1-5.6 5.8-10.6 10.6-14.2 6.4-4.9 14.8-7.2 22.9-6.2 4 .5 8 1.7 11.6 3.7 3.6 2.1 6.8 4.8 9.4 8.1z" fill="url(#SVGID_34_)"/><linearGradient id="SVGID_36_" gradientUnits="userSpaceOnUse" x1="50.493" y1="71.71" x2="63.846" y2="111.548"><stop offset="0" stop-color="#A3A5A9"/><stop offset="1" stop-color="#A3A5A9" stop-opacity="0"/></linearGradient><path d="M69 102.5c-6.7-2-12.6-6.3-16.6-11.9-2.4-3.4-4.1-7.2-5.1-11.2-.4-1.7-.7-3.5-.8-5.3h-1.1c-.5 0-1-.1-1.4-.3.6 6.5 3.1 12.7 7.1 17.7 2.7 3.4 6.1 6.3 9.9 8.4 2.5 1.4 5.2 2.4 8 3.1-.1-.1-.1-.3 0-.5z" fill="url(#SVGID_36_)"/></svg>