<svg id="Layer_1" xmlns="http://www.w3.org/2000/svg" viewBox="0 0 260 95"><style>.st0{fill:url(#SVGID_1_)}.st1,.st2{fill:#f0c061}.st2{opacity:.35}.st3{opacity:.7}.st4{fill:url(#SVGID_2_)}.st5{fill:url(#SVGID_3_)}.st6{fill:url(#SVGID_4_)}.st7{fill:url(#SVGID_5_)}.st8{fill:url(#SVGID_6_)}.st9{fill:url(#SVGID_7_)}.st10,.st11{opacity:.93;fill:#f0c061}.st11{opacity:.55}.st12{fill:url(#SVGID_8_)}.st13{fill:url(#SVGID_9_)}.st14{fill:url(#SVGID_10_)}.st15{fill:url(#SVGID_11_)}.st16{fill:url(#SVGID_12_)}.st17{fill:#fff}.st18{display:none}.st19{display:inline}.st20{clip-path:url(#SVGID_14_)}.st20,.st21{opacity:0}.st22{clip-path:url(#SVGID_14_)}.st23{opacity:0}.st23,.st24{clip-path:url(#SVGID_20_)}.st25{opacity:0}.st25,.st26{clip-path:url(#SVGID_26_)}.st27{clip-path:url(#SVGID_32_);fill:#cea758}.st28{clip-path:url(#SVGID_34_);fill:#143554}.st29{clip-path:url(#SVGID_36_);fill:#f0c061}.st30{clip-path:url(#SVGID_38_);fill:#143554}.st31{clip-path:url(#SVGID_40_);fill:#f0c061}.st32,.st33{clip-path:url(#SVGID_42_);fill:#143554}.st33{clip-path:url(#SVGID_44_)}.st34,.st35{clip-path:url(#SVGID_46_);fill:#fff}.st35{clip-path:url(#SVGID_48_)}.st36,.st37{clip-path:url(#SVGID_50_);fill:#fff}.st37{clip-path:url(#SVGID_52_)}.st38,.st39{clip-path:url(#SVGID_54_);fill:#fff}.st39{clip-path:url(#SVGID_56_)}.st40,.st41{clip-path:url(#SVGID_58_);fill:#fff}.st41{clip-path:url(#SVGID_60_)}.st42,.st43{clip-path:url(#SVGID_62_);fill:#fff}.st43{clip-path:url(#SVGID_64_)}.st44,.st45{clip-path:url(#SVGID_66_);fill:#fff}.st45{clip-path:url(#SVGID_68_)}.st46,.st47{clip-path:url(#SVGID_70_);fill:#fff}.st47{clip-path:url(#SVGID_72_)}.st48,.st49{clip-path:url(#SVGID_74_);fill:#fff}.st49{clip-path:url(#SVGID_76_)}.st50,.st51{clip-path:url(#SVGID_78_);fill:#fff}.st51{clip-path:url(#SVGID_80_)}.st52,.st53{clip-path:url(#SVGID_82_);fill:#fff}.st53{clip-path:url(#SVGID_84_)}.st54,.st55{clip-path:url(#SVGID_86_);fill:#fff}.st55{clip-path:url(#SVGID_88_)}.st56,.st57{clip-path:url(#SVGID_90_);fill:#fff}.st57{clip-path:url(#SVGID_92_)}.st58,.st59{clip-path:url(#SVGID_94_);fill:#fff}.st59{clip-path:url(#SVGID_96_)}.st60,.st61{clip-path:url(#SVGID_98_);fill:#fff}.st61{clip-path:url(#SVGID_100_)}.st62{fill:url(#SVGID_101_)}.st63{fill:url(#SVGID_102_)}.st64{fill:url(#SVGID_103_)}.st65{fill:url(#SVGID_104_)}.st66{fill:url(#SVGID_105_)}.st67{fill:url(#SVGID_106_)}.st68{fill:#231f20}.st69,.st70,.st71,.st72,.st73{fill:url(#SVGID_107_);stroke:#fff;stroke-width:.5;stroke-miterlimit:10}.st70,.st71,.st72,.st73{fill:url(#SVGID_108_);stroke-width:.25}.st71,.st72,.st73{fill:url(#SVGID_109_);stroke-width:.5}.st72,.st73{fill:url(#SVGID_110_)}.st73{fill:url(#SVGID_111_)}.st74{fill:url(#SVGID_112_)}.st75{fill:url(#SVGID_113_);stroke:#fff;stroke-width:.25;stroke-miterlimit:10}.st76{fill:url(#SVGID_114_)}.st77{fill:url(#SVGID_115_)}.st78{fill:url(#SVGID_116_)}.st79{fill:url(#SVGID_117_)}.st80{fill:url(#SVGID_118_)}.st81{fill:#143553}</style><linearGradient id="SVGID_1_" gradientUnits="userSpaceOnUse" x1="7.551" y1="48.338" x2="62.134" y2="48.338"><stop offset="0" stop-color="#A3A5A9"/><stop offset=".17" stop-color="#A3A5A9" stop-opacity=".98"/><stop offset=".32" stop-color="#A3A5A9" stop-opacity=".91"/><stop offset=".671" stop-color="#A3A5A9" stop-opacity=".8"/><stop offset="1" stop-color="#A3A5A9" stop-opacity=".65"/><stop offset="1" stop-color="#A3A5A9" stop-opacity=".45"/><stop offset="1" stop-color="#A3A5A9" stop-opacity=".21"/><stop offset="1" stop-color="#A3A5A9" stop-opacity="0"/></linearGradient><path class="st0" d="M36.7 85.5C17.5 79.6 5.9 60.3 9.8 40.7 13.5 22.2 29.9 9.2 48.5 9.5c0-.4 0-.7.1-1.1-10.7-.4-21.4 3.4-29.4 11.2-11.9 11.5-15.5 29.1-9 44.3C17.6 81.4 36.3 91.3 55 87.5c2.2-.5 4.4-1.1 6.5-1.9-.1-.2-.2-.5-.3-.8-7.7 2.8-16.2 3.2-24.5.7z"/><circle id="Oval_1_" class="st1" cx="21.6" cy="27.4" r="3.4"/><circle id="Oval_2_" class="st1" cx="27.2" cy="46.4" r="2.8"/><circle id="Oval_3_" class="st2" cx="64.2" cy="83.9" r="2"/><ellipse transform="rotate(-9.2 52.92 9.46)" class="st3 st1" cx="52.9" cy="9.5" rx="2.8" ry="2.8" id="Oval_4_"/><linearGradient id="SVGID_2_" gradientUnits="userSpaceOnUse" x1="57.576" y1="23.23" x2="85.541" y2="23.23"><stop offset="0" stop-color="#A3A5A9" stop-opacity=".7"/><stop offset="1" stop-color="#A3A5A9" stop-opacity="0"/></linearGradient><path class="st4" d="M62.6 11.5c-1.7-.7-3.4-1.3-5.1-1.8 0 .3-.1.6-.2.9C70.5 13.9 81 23.9 85 36.7h.2c-3.3-11.2-11.5-20.5-22.6-25.2z"/><linearGradient id="SVGID_3_" gradientUnits="userSpaceOnUse" x1="13" y1="57.127" x2="66.467" y2="57.127"><stop offset="0" stop-color="#A3A5A9"/><stop offset=".967" stop-color="#A4A6A9" stop-opacity=".3"/><stop offset=".997" stop-color="#A4A6A9" stop-opacity=".2"/></linearGradient><path class="st5" d="M60.4 79.7c-6.8 2.9-14.7 3.5-22.2 1.1-16.2-5-26-21.7-22.7-38.6.7-3.7 2.1-7.2 3.9-10.3-.5-.2-1-.6-1.4-.9-.8 1.4-1.6 2.8-2.3 4.4-3.6 8.6-3.6 18.4 0 27 3.6 8.6 10.4 15.3 19 18.7 4.2 1.6 8.6 2.4 13.1 2.3 5.2-.1 10-1.4 14.4-3.6h-1.8z"/><linearGradient id="SVGID_4_" gradientUnits="userSpaceOnUse" x1="24.412" y1="25.51" x2="78.9" y2="25.51"><stop offset="0" stop-color="#A3A5A9"/><stop offset=".855" stop-color="#A3A5A9" stop-opacity=".145"/><stop offset="1" stop-color="#A3A5A9" stop-opacity="0"/></linearGradient><path class="st6" d="M47.9 14.3c-8.9-.2-17.2 3.1-23.5 8.8.4.3.8.7 1.1 1.1 6.7-6.3 15.9-9.6 25.6-8.7 12.7 1.3 23.1 9.7 27.5 21.2h.3c-4.7-12.8-16.7-22-31-22.4z"/><linearGradient id="SVGID_5_" gradientUnits="userSpaceOnUse" x1="26.153" y1="59.769" x2="44.115" y2="59.769"><stop offset="0" stop-color="#A3A5A9"/><stop offset=".999" stop-color="#A4A6A9" stop-opacity=".6"/></linearGradient><path class="st7" d="M43.1 67.6c-3.4-1-4.9-2-6.3-2.9-4.9-3.3-7.9-8.5-8.6-14.1-.4.1-.8.2-1.2.2-.3 0-.6 0-.8-.1.2 2 .7 3.9 1.5 5.8 2.5 5.9 8.4 10.9 15.5 12.4 0-.5-.1-.8-.1-1.3z"/><linearGradient id="SVGID_6_" gradientUnits="userSpaceOnUse" x1="26.978" y1="34.721" x2="64.4" y2="34.721"><stop offset="0" stop-color="#A3A5A9"/><stop offset=".95" stop-color="#A3A5A9" stop-opacity=".24"/><stop offset="1" stop-color="#A3A5A9" stop-opacity=".2"/></linearGradient><path class="st8" d="M62.2 33.8c-1.8-2-4-3.6-6.5-4.7s-5.2-1.8-7.9-1.9c-8.7-.4-16.7 4.7-20.1 12.6-.3.7-.5 1.3-.7 2 .7 0 1.3.2 1.9.4.2-.6.4-1.2.6-1.7 3.6-8.8 13-13.7 22.3-11.9 5.1 1 9.4 3.9 12.3 7.9h.3c-.6-1-1.4-1.9-2.2-2.7z"/><linearGradient id="SVGID_7_" gradientUnits="userSpaceOnUse" x1="67.039" y1="81.191" x2="73.892" y2="81.191"><stop offset="0" stop-color="#A3A5A9" stop-opacity=".5"/><stop offset=".95" stop-color="#A3A5A9" stop-opacity=".215"/><stop offset="1" stop-color="#A3A5A9" stop-opacity=".2"/></linearGradient><path class="st9" d="M70.6 79.7c-1.1.9-2.3 1.7-3.6 2.5.1.2.2.4.3.5 1.2-.8 2.4-1.6 3.5-2.5.2-.2.4-.3.6-.5h-.8z"/><g><path id="Shape_85_" class="st17" d="M49.7 44.5v11H48V40.7h1L57.4 52l-.1-11.1H59v14.8h-1z"/><path id="Shape_84_" class="st17" d="M64 40.7h7.9v1.6h-6.2v4.9h5.7v1.6h-5.7v5.3H72v1.6h-8z"/><path id="Shape_83_" class="st17" d="M81 48.1l-4.6-7.4h2.2l3.5 6 3.8-6h1.9L83.1 48l4.9 7.7h-2.1l-3.8-6-4.1 6h-2z"/><path id="Shape_82_" class="st17" d="M102 42.3h-4.6v13.4h-1.8V42.3H91v-1.6h11z"/><path id="Shape_81_" class="st17" d="M116.8 48.2h5.2v6.4c-.3.2-.5.3-.8.5-.3.1-.7.3-1.1.4-.4.1-.8.1-1.2.2-.4.1-.8.1-1.2.1-.9 0-1.8-.1-2.7-.4-.8-.3-1.5-.8-2.1-1.4-.6-.7-1.1-1.5-1.4-2.3-.4-1.1-.5-2.2-.5-3.4s.2-2.3.6-3.4c.4-.9.9-1.7 1.6-2.3.6-.6 1.4-1 2.2-1.3.8-.3 1.6-.4 2.5-.4.7 0 1.5 0 2.2.1.5.1 1 .2 1.5.4l-.5 1.5c-1-.4-2-.5-3-.5-.6 0-1.2.1-1.8.3-.6.2-1.2.5-1.7 1s-.9 1.2-1.2 1.8c-.3.9-.5 1.9-.5 2.8 0 .9.1 1.8.4 2.7.2.7.6 1.3 1 1.9.4.5 1 .9 1.6 1.1.7.2 1.4.4 2.1.4.8 0 1.7-.2 2.4-.5v-4.3h-3.6v-1.4z"/><path id="Shape_80_" class="st17" d="M127 40.7h7.9v1.6h-6.2v4.9h5.7v1.6h-5.7v5.3h6.3v1.6h-8z"/><path id="Shape_79_" class="st17" d="M156 40.7h7.9v1.6h-6.2v4.9h5.6v1.6h-5.6v5.3h6.3v1.6h-8z"/><path id="Shape_78_" class="st17" d="M169 40.9c.6-.1 1.2-.2 1.9-.2.7-.1 1.3-.1 1.9-.1.6 0 1.1.1 1.9.2.6.1 1.1.4 1.5.7.5.4.8.8 1.1 1.3.8 1.6.5 3.5-.5 4.8-.6.7-1.3 1-2.2 1.3l4.4 6.6h-2l-4.1-6.4h-2.1v6.4H169V40.9zm3.3 1.1h-1.4v5.6h1.7c.9 0 1.7-.2 2.4-.7s1-1.4 1-2.3c0-.7-.3-1.4-.8-1.9-.8-.4-1.2-.7-2.9-.7z"/><path id="Shape_77_" class="st17" d="M191.6 51.6h-5.4l-1.5 4.1H183l5.6-15h.8l5.6 15h-1.9l-1.5-4.1zm-4.8-1.5h4.3l-2.1-6.2-2.2 6.2z"/><path id="Shape_76_" class="st17" d="M207 42.3h-4.6v13.4h-1.8V42.3H196v-1.6h11z"/><path id="Shape_75_" class="st17" d="M211 40.7h2v15h-2z"/><path id="Shape_74_" class="st17" d="M218 48.2c0-2.4.5-4.3 1.6-5.5 1.1-1.3 2.7-2 4.4-2 .9 0 1.8.2 2.7.5.7.3 1.4.9 1.9 1.5.5.7.9 1.5 1.1 2.4.2 1 .4 2 .4 3.1 0 2.4-.5 4.3-1.6 5.5-1.1 1.3-2.7 2-4.5 2-.9 0-1.8-.2-2.7-.5-.7-.4-1.4-.9-1.9-1.5-.5-.7-.9-1.5-1.1-2.4-.2-1-.3-2.1-.3-3.1zm1.9 0c0 .8.1 1.5.2 2.3.1.7.4 1.3.7 1.9.3.5.8 1 1.3 1.3.6.3 1.2.5 1.9.5 1.2 0 2.4-.5 3.1-1.5.7-1 1.1-2.5 1.1-4.5 0-.8-.1-1.5-.2-2.3-.1-.7-.4-1.3-.8-1.9-.3-.5-.8-1-1.3-1.3-.6-.3-1.2-.5-1.9-.5-1.2 0-2.3.5-3 1.5-.8 1-1.2 2.5-1.1 4.5z"/><path id="Shape_73_" class="st17" d="M51.6 67.9l-.9-1.3v9H48V60.7h2l5.5 7.9.8 1.2v-9H59v14.9h-2z"/><path id="Shape_72_" class="st17" d="M71.2 60.7H74v9.5c0 .8-.1 1.7-.4 2.5-.2.6-.6 1.2-1.1 1.7s-1 .8-1.7 1c-.7.2-1.4.3-2.2.3-3.8 0-5.7-1.7-5.7-5.1v-9.9h2.9V70c.2 2.6 1.8 3.2 2.8 3.2 1.1 0 2.4-.5 2.6-3.1v-9.4z"/><path id="Shape_71_" class="st17" d="M87.6 74.8c-.5.4-1.2.6-1.7.7-.7.1-1.4.2-2.1.2-.9 0-1.7-.1-2.6-.4-.8-.3-1.6-.7-2.2-1.3-.7-.7-1.2-1.5-1.5-2.4-.4-1.1-.6-2.3-.6-3.5s.1-2.5.6-3.6c.3-.9.9-1.7 1.5-2.4.6-.6 1.4-1 2.2-1.2.8-.2 1.5-.4 2.4-.4.8 0 1.4 0 2.1.2.5.1 1 .2 1.5.4l-.6 2.4c-.4-.2-.8-.3-1.2-.4-.6-.1-1.1-.1-1.6-.1-1.1 0-2.2.4-2.9 1.2-.7.8-1.1 2.1-1.1 3.8 0 .7.1 1.4.3 2.1.2.6.4 1.1.8 1.6s.8.8 1.4 1c.6.3 1.2.4 1.8.4.6 0 1.1-.1 1.6-.2.4-.1.8-.3 1.2-.5l.7 2.4z"/><path id="Shape_70_" class="st17" d="M100 75.7h-9v-15h2.8v12.4h6.2z"/><path id="Shape_69_" class="st17" d="M104 60.7h8.9v2.6h-6v3.5h5.4v2.6h-5.4v3.7h6.1v2.6h-9z"/><path id="Shape_68_" class="st17" d="M124.7 72.4h-4.6l-1.1 3.3h-3l5.4-15h2.2l5.4 15h-3.1l-1.2-3.3zm-3.9-2.3h3.2l-1.5-5.2-1.7 5.2z"/><path id="Shape_67_" class="st17" d="M132 61c.3-.1.7-.1 1-.2.4-.1 1.9-.2 2.2-.2.2 0 2 0 3 .2.6.1 1.2.3 1.8.7.5.3 1 .7 1.3 1.3s.5 1.3.5 2c0 1-.2 2.1-.8 2.9-.6.8-.9 1-1.7 1.5l3.7 6.5h-3.3l-3.5-6.1h-1.3v6H132V61zm2.8 2.2v4.4h1.2c.7 0 1.4-.1 1.9-.5.6-.4.7-1.1.7-1.8 0-.6-.2-1.1-.6-1.5-.4-.4-1-.6-1.6-.6h-1.6z"/><path id="Shape_66_" class="st17" d="M169 60.7h8.9v2.6h-6v3.5h5.4v2.6h-5.4v3.7h6.1v2.6h-9z"/><path id="Shape_65_" class="st17" d="M194 63.3h-4.5v12.3h-3V63.3H182v-2.6h12z"/><path id="Shape_64_" class="st17" d="M202.2 69.7l3.1-9h1.9l2.8 9 2.1-9h2.9l-4 14.9h-1.9l-3-9.5-3.1 9.5h-2l-4-14.9h3.1z"/><path id="Shape_63_" class="st17" d="M217 68.3c0-2.4.5-4.2 1.6-5.4 1.1-1.3 2.8-2 4.4-1.9.9 0 1.9.2 2.7.6.7.4 1.4.8 1.8 1.5.5.7.9 1.5 1.1 2.3.3 1 .4 2 .4 3 0 2.4-.5 4.2-1.6 5.4-1.1 1.3-2.8 2-4.4 1.9-.9 0-1.8-.2-2.7-.6-.7-.4-1.4-.8-1.8-1.5-.5-.7-.9-1.5-1.1-2.3-.3-1-.4-2-.4-3zm2.8 0c0 .6.1 1.3.2 1.9.1.6.3 1.1.6 1.6.2.4.5.8.9 1 .4.3.9.4 1.4.4.9 0 1.7-.4 2.3-1.2.5-.8.8-2 .8-3.8 0-.6-.1-1.3-.2-1.9-.1-.6-.3-1.1-.6-1.6-.2-.4-.5-.8-.9-1-1.2-.8-2.9-.4-3.7.8-.5.8-.8 2.1-.8 3.8z"/><path id="Shape_62_" class="st17" d="M250.6 69.3h-.6v6.3h-3V60.7h3v6.7l4.9-6.7h3.4l-5.6 7.1 6.3 7.8h-3.7z"/><path id="Shape_61_" class="st17" d="M141.7 44.5v11H140V40.7h1l8.4 11.3-.1-11.1h1.7v14.8h-1z"/><path id="Shape_60_" class="st17" d="M236.7 44.5v11H235V40.7h1l8.4 11.3-.1-11.1h1.7v14.8h-1z"/><path id="Shape_59_" class="st17" d="M157.6 67.9l-.9-1.3v9H154V60.7h2l5.5 7.9.8 1.2v-9h2.7v14.9h-2z"/><path id="Shape_58_" class="st17" d="M233 61c.3-.1.7-.1 1-.2.4-.1 1.9-.2 2.2-.2.2 0 2 0 3 .2.6.1 1.2.3 1.8.7.5.3 1 .7 1.3 1.3s.5 1.3.5 2c0 1-.2 2.1-.8 2.9-.6.8-.9 1-1.7 1.5l3.7 6.5h-3.3l-3.5-6.1h-1.3v6H233V61zm2.8 2.3v4.3h1.2c.7 0 1.4-.1 1.9-.5.6-.4.7-1.1.7-1.8 0-.6-.2-1.1-.6-1.5-.4-.4-1-.6-1.6-.6 0 0-.9 0-1.6.1z"/></g></svg>