<svg version="1.1" id="Layer_1" xmlns="http://www.w3.org/2000/svg" xmlns:xlink="http://www.w3.org/1999/xlink" x="0" y="0" viewBox="0 0 500 161.3" xml:space="preserve" enable-background="new 0 0 500 161.3"><style type="text/css">.st0{fill:url(#SVGID_1_)}.st1,.st2{fill:#f0c061}.st2{opacity:.35}.st3{opacity:.7}.st4{fill:url(#SVGID_2_)}.st5{fill:url(#SVGID_3_)}.st6{fill:url(#SVGID_4_)}.st7{fill:url(#SVGID_5_)}.st8{fill:url(#SVGID_6_)}.st9{fill:url(#SVGID_7_)}.st10,.st11{opacity:.93;fill:#f0c061}.st11{opacity:.55}.st12{fill:url(#SVGID_8_)}.st13{fill:url(#SVGID_9_)}.st14{fill:url(#SVGID_10_)}.st15{fill:url(#SVGID_11_)}.st16{fill:url(#SVGID_12_)}.st17{fill:#fff}.st18{display:none}.st19{display:inline}.st20{clip-path:url(#SVGID_14_)}.st20,.st21{opacity:0}.st22{clip-path:url(#SVGID_14_)}.st23{opacity:0}.st23,.st24{clip-path:url(#SVGID_20_)}.st25{opacity:0}.st25,.st26{clip-path:url(#SVGID_26_)}.st27{clip-path:url(#SVGID_32_);fill:#cea758}.st28{clip-path:url(#SVGID_34_);fill:#143554}.st29{clip-path:url(#SVGID_36_);fill:#f0c061}.st30{clip-path:url(#SVGID_38_);fill:#143554}.st31{clip-path:url(#SVGID_40_);fill:#f0c061}.st32,.st33{clip-path:url(#SVGID_42_);fill:#143554}.st33{clip-path:url(#SVGID_44_)}.st34,.st35{clip-path:url(#SVGID_46_);fill:#fff}.st35{clip-path:url(#SVGID_48_)}.st36,.st37{clip-path:url(#SVGID_50_);fill:#fff}.st37{clip-path:url(#SVGID_52_)}.st38,.st39{clip-path:url(#SVGID_54_);fill:#fff}.st39{clip-path:url(#SVGID_56_)}.st40,.st41{clip-path:url(#SVGID_58_);fill:#fff}.st41{clip-path:url(#SVGID_60_)}.st42,.st43{clip-path:url(#SVGID_62_);fill:#fff}.st43{clip-path:url(#SVGID_64_)}.st44,.st45{clip-path:url(#SVGID_66_);fill:#fff}.st45{clip-path:url(#SVGID_68_)}.st46,.st47{clip-path:url(#SVGID_70_);fill:#fff}.st47{clip-path:url(#SVGID_72_)}.st48,.st49{clip-path:url(#SVGID_74_);fill:#fff}.st49{clip-path:url(#SVGID_76_)}.st50,.st51{clip-path:url(#SVGID_78_);fill:#fff}.st51{clip-path:url(#SVGID_80_)}.st52,.st53{clip-path:url(#SVGID_82_);fill:#fff}.st53{clip-path:url(#SVGID_84_)}.st54,.st55{clip-path:url(#SVGID_86_);fill:#fff}.st55{clip-path:url(#SVGID_88_)}.st56,.st57{clip-path:url(#SVGID_90_);fill:#fff}.st57{clip-path:url(#SVGID_92_)}.st58,.st59{clip-path:url(#SVGID_94_);fill:#fff}.st59{clip-path:url(#SVGID_96_)}.st60,.st61{clip-path:url(#SVGID_98_);fill:#fff}.st61{clip-path:url(#SVGID_100_)}.st62{fill:url(#SVGID_101_)}.st63{fill:url(#SVGID_102_)}.st64{fill:url(#SVGID_103_)}.st65{fill:url(#SVGID_104_)}.st66{fill:url(#SVGID_105_)}.st67{fill:url(#SVGID_106_)}.st68{fill:#231f20}.st69,.st70,.st71,.st72,.st73{fill:url(#SVGID_107_);stroke:#fff;stroke-width:.5;stroke-miterlimit:10}.st70,.st71,.st72,.st73{fill:url(#SVGID_108_);stroke-width:.25}.st71,.st72,.st73{fill:url(#SVGID_109_);stroke-width:.5}.st72,.st73{fill:url(#SVGID_110_)}.st73{fill:url(#SVGID_111_)}.st74{fill:url(#SVGID_112_)}.st75{fill:url(#SVGID_113_);stroke:#fff;stroke-width:.25;stroke-miterlimit:10}.st76{fill:url(#SVGID_114_)}.st77{fill:url(#SVGID_115_)}.st78{fill:url(#SVGID_116_)}.st79{fill:url(#SVGID_117_)}.st80{fill:url(#SVGID_118_)}.st81{fill:#143553}</style><g class="st18"><g class="st19"><defs><path id="SVGID_13_" d="M501.9,15.9c0-31.8-24.1-58.4-55.7-61.5c-31.6-3.1-60.5,18.2-66.7,49.4c-6.2,31.2,12.2,62,42.6,71.2 c30.4,9.3,62.9-6.1,75.1-35.4C500.3,32,501.9,24,501.9,15.9z M502.3,15.9c0,30.3-21.3,56.3-50.9,62.4s-59.5-9.7-71.2-37.5 c-10.2-24.2-4.6-52.2,14.3-70.5c18.3-17.8,45.5-22.8,69.1-12.9C486.9-32.7,502.2-9.7,502.3,15.9z"/></defs><clipPath id="SVGID_1_"><use xlink:href="#SVGID_13_" overflow="visible"/></clipPath><g opacity="0" clip-path="url(#SVGID_1_)"><g class="st21"><g><defs><rect id="SVGID_15_" x="369.8" y="-52.6" width="132.4" height="136.9"/></defs><clipPath id="SVGID_2_"><use xlink:href="#SVGID_15_" overflow="visible"/></clipPath><g clip-path="url(#SVGID_2_)"><image width="553" height="571" xlink:href="BA87C51F2E5B698.jpg" transform="matrix(0.24 0 0 0.24 369.8496 -52.6733)" overflow="visible"/></g></g></g></g><g clip-path="url(#SVGID_1_)"><g><defs><rect id="SVGID_17_" x="369.8" y="-52.6" width="132.4" height="136.9"/></defs><clipPath id="SVGID_3_"><use xlink:href="#SVGID_17_" overflow="visible"/></clipPath><g clip-path="url(#SVGID_3_)"><image width="553" height="571" xlink:href="BA87C51F2E5B699.jpg" transform="matrix(0.24 0 0 0.24 369.8496 -52.6733)" overflow="visible"/></g></g></g></g><g class="st19"><defs><path id="SVGID_19_" d="M492,16.3c0-27.4-20.3-50.3-46.9-53c-26.6-2.7-50.9,15.7-56.2,42.6c-5.2,26.9,10.3,53.4,35.9,61.4 c25.6,8,53-5.2,63.2-30.5C490.7,30.2,492,23.3,492,16.3L492,16.3z M492.3,16.3c0,29.8-23.2,54.2-52.4,54.9 c-7.1,0.2-14.1-1.1-20.7-3.7c-13.5-5.3-24.4-16.1-30-29.7c-5.7-13.7-5.7-29.2,0-43c8.6-20.7,28.7-33.9,50.7-33.4 C469.1-37.8,492.3-13.5,492.3,16.3z"/></defs><clipPath id="SVGID_4_"><use xlink:href="#SVGID_19_" overflow="visible"/></clipPath><g opacity="0" clip-path="url(#SVGID_4_)"><g class="st21"><g><defs><rect id="SVGID_21_" x="383.5" y="-39.4" width="108.8" height="114.6"/></defs><clipPath id="SVGID_5_"><use xlink:href="#SVGID_21_" overflow="visible"/></clipPath><g clip-path="url(#SVGID_5_)"><image width="455" height="479" xlink:href="BA87C51F2E5B69F.jpg" transform="matrix(0.24 0 0 0.24 383.5296 -39.4733)" overflow="visible"/></g></g></g></g><g clip-path="url(#SVGID_4_)"><g><defs><rect id="SVGID_23_" x="383.5" y="-39.4" width="108.8" height="114.6"/></defs><clipPath id="SVGID_6_"><use xlink:href="#SVGID_23_" overflow="visible"/></clipPath><g clip-path="url(#SVGID_6_)"><image width="455" height="479" xlink:href="BA87C51F2E5B69A.jpg" transform="matrix(0.24 0 0 0.24 383.5296 -39.4733)" overflow="visible"/></g></g></g></g><g class="st19"><defs><path id="SVGID_25_" d="M470.5,15.9c0-14.9-10.5-27.8-25.2-30.7c-14.6-2.9-29.3,4.9-35,18.7c-5.7,13.8-0.9,29.7,11.5,38 c12.4,8.3,29,6.7,39.5-3.8C467.2,32.1,470.5,24.2,470.5,15.9z M470.9,15.9c0,4.2-0.8,8.3-2.4,12.2c-1.5,3.9-3.8,7.5-6.7,10.5 c-2.9,3.1-6.4,5.6-10.2,7.4c-3.9,1.8-8.1,2.8-12.4,3c-13.7,0.6-26.3-7.3-31.7-19.9c-3.6-8.4-3.6-17.9,0-26.2 c5.4-12.6,18-20.5,31.7-19.9c4.3,0.2,8.5,1.2,12.4,3c3.8,1.8,7.3,4.3,10.2,7.4c2.9,3,5.2,6.6,6.7,10.5 C470.1,7.6,470.9,11.7,470.9,15.9z"/></defs><clipPath id="SVGID_7_"><use xlink:href="#SVGID_25_" overflow="visible"/></clipPath><g opacity="0" clip-path="url(#SVGID_7_)"><g class="st21"><g><defs><rect id="SVGID_27_" x="403.9" y="-17.8" width="67" height="67.9"/></defs><clipPath id="SVGID_8_"><use xlink:href="#SVGID_27_" overflow="visible"/></clipPath><g clip-path="url(#SVGID_8_)"><image width="281" height="284" xlink:href="BA87C51F2E5B69B.jpg" transform="matrix(0.24 0 0 0.24 403.6896 -17.8733)" overflow="visible"/></g></g></g></g><g clip-path="url(#SVGID_7_)"><g><defs><rect id="SVGID_29_" x="403.9" y="-17.8" width="67" height="67.9"/></defs><clipPath id="SVGID_9_"><use xlink:href="#SVGID_29_" overflow="visible"/></clipPath><g clip-path="url(#SVGID_9_)"><image width="281" height="284" xlink:href="BA87C51F2E5B696.jpg" transform="matrix(0.24 0 0 0.24 403.6896 -17.8733)" overflow="visible"/></g></g></g></g><g class="st19"><defs><circle id="SVGID_39_" cx="406.9" cy="12.2" r="4.5"/></defs><clipPath id="SVGID_10_"><use xlink:href="#SVGID_39_" overflow="visible"/></clipPath><rect x="398.2" y="3.5" width="17.3" height="17.3" clip-path="url(#SVGID_10_)" fill="#F0C061"/></g><g class="st19"><defs><path id="SVGID_41_" d="M406.9,5.2c-3.4,0-6.2,2.8-6.2,6.2s2.8,6.2,6.2,6.2s6.2-2.8,6.2-6.2S410.3,5.2,406.9,5.2z M406.9,7.1 c2.3,0,4.2,1.9,4.2,4.2s-1.9,4.2-4.2,4.2c-2.3,0-4.2-1.9-4.2-4.2S404.5,7.1,406.9,7.1z"/></defs><clipPath id="SVGID_11_"><use xlink:href="#SVGID_41_" overflow="visible"/></clipPath><rect x="396.5" y="1" width="20.6" height="20.6" clip-path="url(#SVGID_11_)" fill="#143554"/></g><g class="st19"><defs><rect id="SVGID_43_" x="416.3" y="7.6" width="80.9" height="90.9"/></defs><clipPath id="SVGID_12_"><use xlink:href="#SVGID_43_" overflow="visible"/></clipPath><rect x="412.2" y="3.5" width="89.2" height="99.1" clip-path="url(#SVGID_12_)" fill="#143554"/></g><g class="st19"><defs><polygon id="SVGID_45_" points="440.7,35.1 438.4,31.1 438.2,31.1 438.7,35.1 438.7,53.5 435.3,53.5 435.3,25 437.2,25 451.4,43.7 453.6,47.5 453.8,47.5 453.4,43.7 453.4,25.4 456.7,25.4 456.7,53.9 454.8,53.9"/></defs><clipPath id="SVGID_14_"><use xlink:href="#SVGID_45_" overflow="visible"/></clipPath><rect x="431.2" y="20.9" width="29.6" height="37.2" clip-path="url(#SVGID_14_)" fill="#FFFFFF"/></g><g class="st19"><defs><polygon id="SVGID_47_" points="464.4,25 479.7,25 479.7,28 467.7,28 467.7,37.5 478.7,37.5 478.7,40.5 467.7,40.5 467.7,50.8 479.9,50.8 479.9,53.9 464.4,53.9"/></defs><clipPath id="SVGID_16_"><use xlink:href="#SVGID_47_" overflow="visible"/></clipPath><rect x="460.3" y="20.9" width="23.8" height="37.2" clip-path="url(#SVGID_16_)" fill="#FFFFFF"/></g><g class="st19"><defs><polygon id="SVGID_49_" points="495.4,39.2 486.6,25 490.7,25 496.6,34.8 497.6,37.1 498.6,34.8 504.8,25 508.6,25 499.5,38.9 509,53.9 505,53.9 498.5,43.5 497.3,41 496.3,43.5 489.6,53.8 485.7,53.8"/></defs><clipPath id="SVGID_18_"><use xlink:href="#SVGID_49_" overflow="visible"/></clipPath><rect x="481.6" y="20.9" width="31.5" height="37.2" clip-path="url(#SVGID_18_)" fill="#FFFFFF"/></g><g class="st19"><defs><polygon id="SVGID_73_" points="442.2,79.9 440,75.3 439.8,75.3 440.5,79.9 440.5,94.9 435.3,94.9 435.3,65.8 439.3,65.8 449.7,81.2 451.8,85.7 452,85.7 451.3,81.2 451.3,66 456.5,66 456.5,95.2 452.5,95.2"/></defs><clipPath id="SVGID_20_"><use xlink:href="#SVGID_73_" overflow="visible"/></clipPath><rect x="431.2" y="61.6" width="29.4" height="37.7" clip-path="url(#SVGID_20_)" fill="#FFFFFF"/></g><g class="st19"><defs><path id="SVGID_75_" d="M478,65.8h5.4v18.7c0,1.6-0.2,3.3-0.7,4.8c-0.4,1.3-1.1,2.4-2.1,3.4c-0.9,0.9-2,1.6-3.2,1.9 c-1.3,0.4-2.7,0.6-4.2,0.6c-7.3,0-10.9-3.3-10.9-10V65.8h5.6V84c0,1,0.1,1.9,0.3,2.9c0.2,0.7,0.5,1.4,1,1.9c0.4,0.5,1,0.8,1.7,1 c0.7,0.2,1.5,0.3,2.3,0.3c1.4,0.1,2.8-0.4,3.7-1.4c0.9-1.4,1.3-3,1.2-4.7L478,65.8z"/></defs><clipPath id="SVGID_22_"><use xlink:href="#SVGID_75_" overflow="visible"/></clipPath><rect x="458.1" y="61.6" width="29.4" height="37.7" clip-path="url(#SVGID_22_)" fill="#FFFFFF"/></g><g class="st19"><defs><path id="SVGID_77_" d="M510.2,93.4c-1,0.7-2.2,1.2-3.5,1.4c-1.4,0.3-2.9,0.4-4.3,0.4c-1.7,0-3.5-0.3-5.1-0.8 c-1.6-0.6-3-1.5-4.2-2.7c-1.3-1.4-2.3-3.1-2.9-4.9c-0.8-2.3-1.1-4.8-1.1-7.3c-0.1-2.5,0.3-5.1,1.2-7.4c0.7-1.8,1.8-3.5,3.1-4.8 c1.2-1.2,2.7-2.1,4.3-2.6c1.5-0.5,3.1-0.8,4.8-0.8c1.4,0,2.9,0.1,4.3,0.3c1,0.2,2,0.5,2.9,0.8l-1.1,5c-0.7-0.3-1.5-0.6-2.3-0.7 c-1.1-0.2-2.2-0.2-3.2-0.2c-2.2-0.1-4.3,0.9-5.7,2.5c-1.4,1.7-2.1,4.3-2.1,7.9c0,1.4,0.2,2.9,0.5,4.3c0.3,1.2,0.8,2.3,1.6,3.3 c0.7,0.9,1.6,1.6,2.6,2.1c1.1,0.5,2.4,0.8,3.6,0.8c1.1,0,2.2-0.1,3.2-0.4c0.8-0.2,1.6-0.6,2.3-1L510.2,93.4z"/></defs><clipPath id="SVGID_24_"><use xlink:href="#SVGID_77_" overflow="visible"/></clipPath><rect x="484.9" y="59.7" width="29.4" height="39.6" clip-path="url(#SVGID_24_)" fill="#FFFFFF"/></g></g><g id="Words"><polygon id="Shape_57_" class="st17" points="77.5,89.2 77.5,110.5 74.2,110.5 74.2,81.9 76.2,81.9 92.4,103.7 92.2,82.3 95.5,82.3 95.5,110.9 93.6,110.9"/><polygon id="Shape_56_" class="st17" points="103.3,81.9 118.5,81.9 118.5,85 106.5,85 106.5,94.4 117.6,94.4 117.6,97.5 106.5,97.5 106.5,107.8 118.7,107.8 118.7,110.9 103.3,110.9"/><polygon id="Shape_55_" class="st17" points="134.2,96.2 125.3,81.9 129.6,81.9 136.4,93.4 143.7,81.9 147.4,81.9 138.2,96.1 147.8,110.9 143.7,110.9 136.3,99.2 128.4,110.9 124.5,110.9"/><polygon id="Shape_54_" class="st17" points="174.8,85 165.9,85 165.9,110.9 162.5,110.9 162.5,85 153.6,85 153.6,81.9 174.8,81.9"/><path id="Shape_53_" class="st17" d="M201.5,96.4h10.1v12.4c-0.6,0.4-1,0.6-1.5,1c-0.6,0.2-1.4,0.6-2.1,0.8 c-0.8,0.2-1.5,0.2-2.3,0.4c-0.8,0.1-1.5,0.2-2.3,0.2c-1.7,0-3.5-0.2-5.2-0.8c-1.5-0.6-2.9-1.5-4.1-2.7c-1.2-1.4-2.1-2.9-2.7-4.4 c-0.8-2.1-1-4.3-1-6.6s0.4-4.4,1.2-6.6c0.8-1.7,1.7-3.3,3.1-4.4c1.2-1.2,2.7-1.9,4.3-2.5s3.1-0.8,4.8-0.8c1.4,0,2.9,0,4.3,0.2 c1,0.2,1.9,0.4,2.9,0.8l-1,2.9c-1.9-0.8-3.9-1-5.8-1c-1.2,0-2.3,0.2-3.5,0.6s-2.3,1-3.3,1.9s-1.7,2.3-2.3,3.5c-0.6,1.7-1,3.7-1,5.4 c0,1.7,0.2,3.5,0.8,5.2c0.4,1.4,1.2,2.5,1.9,3.7c0.8,1,1.9,1.7,3.1,2.1c1.4,0.4,2.7,0.8,4.1,0.8c1.5,0,3.3-0.4,4.6-1l0-8.3 l-6.9,0.1V96.4z"/><polygon id="Shape_52_" class="st17" points="219.3,81.9 234.6,81.9 234.6,85 222.6,85 222.6,94.4 233.7,94.4 233.7,97.5 222.6,97.5 222.6,107.8 234.8,107.8 234.8,110.9 219.3,110.9"/><polygon id="Shape_51_" class="st17" points="271.6,81.9 286.9,81.9 286.9,85 274.9,85 274.9,94.4 285.7,94.4 285.7,97.5 274.9,97.5 274.9,107.8 287.1,107.8 287.1,110.9 271.6,110.9"/><path id="Shape_50_" class="st17" d="M294.9,82.2c1.2-0.2,2.3-0.3,3.7-0.4c1.4-0.1,2.5-0.2,3.7-0.2s2.2,0.1,3.7,0.4 c1.2,0.2,2,0.7,2.9,1.4c0.9,0.7,1.6,1.5,2.1,2.5c1.5,3,1,6.9-1,9.4c-1.2,1.4-2.4,1.9-4.2,2.5l8.4,12.9h-3.9l-7.9-12.4l-4.1,0v12.4 h-3.5V82.2z M301.2,84.4c-0.7,0-2,0.1-2,0.1c-0.2,0-0.5,0-0.8,0.1l-0.1,10.7l3.3,0c1.7,0,3.3-0.4,4.6-1.4c1.4-1,1.9-2.7,1.9-4.4 c0-1.4-0.6-2.7-1.5-3.7C305.3,84.9,304.6,84.4,301.2,84.4z"/><path id="Shape_49_" class="st17" d="M336.6,103h-10.4l-2.9,7.9H320l10.8-29h1.5l10.8,29h-3.7L336.6,103z M327.3,100.1h8.3l-4.1-12 L327.3,100.1z"/><polygon id="Shape_48_" class="st17" points="364.5,85 355.6,85 355.6,110.9 352.1,110.9 352.1,85 343.2,85 343.2,81.9 364.5,81.9"/><polygon id="Shape_47_" class="st17" points="370.3,81.9 374.1,81.9 374.1,110.9 370.3,110.9"/><path id="Shape_46_" class="st17" d="M381.9,96.4c0-4.6,1-8.3,3.1-10.6c2.1-2.5,5.2-3.9,8.5-3.9c1.7,0,3.5,0.4,5.2,1 c1.4,0.6,2.7,1.7,3.7,2.9c1,1.4,1.7,2.9,2.1,4.6c0.4,1.9,0.8,3.9,0.8,6c0,4.6-1,8.3-3.1,10.6c-2.1,2.5-5.2,3.9-8.7,3.9 c-1.7,0-3.5-0.4-5.2-1c-1.4-0.8-2.7-1.7-3.7-2.9c-1-1.4-1.7-2.9-2.1-4.6C382.1,100.4,381.9,98.3,381.9,96.4L381.9,96.4z M385.5,96.4c0,1.5,0.2,2.9,0.4,4.4c0.2,1.4,0.8,2.5,1.4,3.7c0.6,1,1.5,1.9,2.5,2.5c1.2,0.6,2.3,1,3.7,1c2.3,0,4.6-1,6-2.9 c1.4-1.9,2.1-4.8,2.1-8.7c0-1.5-0.2-2.9-0.4-4.4c-0.2-1.4-0.8-2.5-1.5-3.7c-0.6-1-1.5-1.9-2.5-2.5c-1.2-0.6-2.3-1-3.7-1 c-2.3,0-4.4,1-5.8,2.9C386.1,89.6,385.3,92.5,385.5,96.4L385.5,96.4z"/><polygon id="Shape_45_" class="st17" points="81.1,134.5 79.4,132 79.4,149.4 74.2,149.4 74.2,120.6 78,120.6 88.7,135.9 90.2,138.3 90.2,120.8 95.5,120.8 95.5,149.6 91.6,149.6"/><path id="Shape_44_" class="st17" d="M117.1,120.6h5.4c0,0,0,13.8,0,18.4c0,1.5-0.2,3.3-0.8,4.8c-0.4,1.2-1.2,2.3-2.1,3.3 s-1.9,1.5-3.3,1.9s-2.7,0.6-4.3,0.6c-7.4,0-11-3.3-11-9.9c0-4.8,0-19.2,0-19.2h5.6c0,0,0,13.5,0,18c0.5,4.9,3.5,6.2,5.4,6.2 c2.2,0,4.6-0.9,5-6C117.2,134.1,117.1,120.6,117.1,120.6z"/><path id="Shape_43_" class="st17" d="M149.6,147.8c-1,0.8-2.3,1.2-3.5,1.4c-1.4,0.2-2.9,0.4-4.3,0.4c-1.7,0-3.5-0.2-5.2-0.8 c-1.6-0.6-3.1-1.5-4.3-2.7c-1.4-1.4-2.3-3.1-2.9-4.8c-0.8-2.3-1.2-4.6-1.2-7.2c0-2.5,0.3-5.1,1.2-7.4c0.7-1.8,1.7-3.5,3.1-4.8 c1.2-1.2,2.7-2,4.4-2.5c1.6-0.5,3.1-0.8,4.8-0.8c1.5,0,2.9,0.1,4.3,0.4c1,0.2,1.9,0.4,2.9,0.8l-1.2,4.8c-0.8-0.4-1.5-0.6-2.3-0.8 c-1.2-0.2-2.1-0.2-3.3-0.2c-2.1,0-4.3,0.7-5.8,2.5c-1.4,1.7-2.1,4.3-2.1,7.7c0,1.4,0.2,2.9,0.6,4.3c0.4,1.2,0.8,2.3,1.5,3.3 s1.5,1.5,2.7,2.1c1.2,0.6,2.3,0.8,3.7,0.8c1.2,0,2.1-0.1,3.3-0.4c0.8-0.2,1.5-0.6,2.3-1L149.6,147.8z"/><polygon id="Shape_42_" class="st17" points="172.8,149.6 155.4,149.6 155.4,120.6 160.8,120.6 160.8,144.6 172.8,144.6"/><polygon id="Shape_41_" class="st17" points="178.6,120.6 195.9,120.6 195.9,125.6 184.3,125.6 184.3,132.4 194.7,132.4 194.7,137.4 184.3,137.4 184.3,144.6 196.1,144.6 196.1,149.6 178.6,149.6"/><path id="Shape_40_" class="st17" d="M218.7,143.2h-8.9l-2.1,6.4h-5.8l10.4-29h4.3l10.4,29h-6L218.7,143.2z M211.1,138.8h6.2 l-2.9-10.1L211.1,138.8z"/><path id="Shape_39_" class="st17" d="M232.8,121.2c0.6-0.2,1.3-0.3,1.9-0.4c0.8-0.1,3.7-0.4,4.3-0.4c0.5,0,3.8,0,5.8,0.4 c1.2,0.2,2.3,0.6,3.5,1.4c1,0.6,1.9,1.4,2.5,2.5c0.6,1.2,1,2.5,1,3.9c0,1.9-0.4,4.1-1.5,5.6c-1.2,1.5-1.7,1.9-3.3,2.9l7.2,12.6 h-6.4l-6.7-11.8l-2.6,0v11.6h-5.6V121.2z M238.2,125.5l0,8.4h2.3c1.4,0,2.6-0.2,3.7-1c1.1-0.8,1.4-2.2,1.4-3.5 c0-1.2-0.4-2.1-1.2-2.9s-1.9-1.2-3.1-1.2C241.3,125.4,239.7,125.4,238.2,125.5z"/><polygon id="Shape_38_" class="st17" points="302.5,120.6 319.7,120.6 319.7,125.6 308.1,125.6 308.1,132.4 318.5,132.4 318.5,137.4 308.1,137.4 308.1,144.6 319.9,144.6 319.9,149.6 302.5,149.6"/><polygon id="Shape_37_" class="st17" points="348.9,125.6 340.2,125.6 340.2,149.6 334.4,149.6 334.4,125.6 325.7,125.6 325.7,120.6 348.9,120.6"/><polygon id="Shape_36_" class="st17" points="364.9,138.1 370.8,120.6 374.4,120.6 379.9,138 383.9,120.6 389.5,120.6 381.8,149.6 378.1,149.6 372.3,131 366.3,149.6 362.4,149.6 354.7,120.6 360.7,120.6"/><path id="Shape_35_" class="st17" d="M393.4,134.1c0-5,1.1-8.8,3.3-11.4c2.3-2.8,5.8-4.2,9.3-4.1c1.9,0.1,3.9,0.3,5.6,1.2 c1.6,0.7,2.9,1.8,3.9,3.1c1.1,1.6,1.9,3.1,2.3,4.8c0.5,2.1,0.8,4.3,0.8,6.4c0,5-1.1,8.8-3.3,11.4c-2.3,2.8-5.8,4.3-9.3,4.1 c-1.9,0-3.9-0.4-5.6-1.2c-1.5-0.8-2.9-1.8-3.9-3.1c-1.1-1.6-1.9-3.1-2.3-4.8C393.7,138.4,393.4,136.2,393.4,134.1L393.4,134.1z M399.4,134.1c0,1.4,0.2,2.7,0.4,4.1c0.2,1.2,0.6,2.3,1.2,3.3c0.4,0.8,1.1,1.6,1.9,2.1c0.9,0.6,1.9,0.8,2.9,0.8 c1.9,0,3.6-0.8,4.8-2.5c1.1-1.6,1.7-4.3,1.7-7.9c0-1.4-0.2-2.7-0.4-4.1c-0.2-1.2-0.7-2.3-1.2-3.3c-0.5-0.9-1.1-1.6-1.9-2.1 c-2.6-1.7-6-0.8-7.7,1.7C400,127.9,399.4,130.6,399.4,134.1L399.4,134.1z"/><polygon id="Shape_34_" class="st17" points="458.4,137.2 457.3,137.2 457.3,149.6 451.4,149.6 451.4,120.6 457.3,120.6 457.3,133.5 466.7,120.6 473.3,120.6 462.5,134.3 474.7,149.6 467.5,149.6"/><polygon id="Shape_33_" class="st17" points="245.8,89.2 245.9,110.5 242.6,110.5 242.6,81.9 244.5,81.9 260.7,103.7 260.6,82.3 263.8,82.3 263.8,110.9 261.9,110.9"/><polygon id="Shape_32_" class="st17" points="416.1,89.2 416.1,110.5 412.8,110.5 412.8,81.9 414.8,81.9 431,103.7 430.8,82.3 434.1,82.3 434.1,110.9 432.2,110.9"/><polygon id="Shape_31_" class="st17" points="280.4,134.5 278.7,132 278.7,149.4 273.4,149.4 273.4,120.6 277.3,120.6 288,135.9 289.5,138.3 289.5,120.8 294.7,120.8 294.7,149.6 290.9,149.6"/><path id="Shape_29_" class="st17" d="M424.4,121.2c0.6-0.2,1.3-0.3,1.9-0.4c0.8-0.1,3.7-0.4,4.3-0.4c0.5,0,3.8,0,5.8,0.4 c1.2,0.2,2.3,0.6,3.5,1.4c1,0.6,1.9,1.4,2.5,2.5s1,2.5,1,3.9c0,1.9-0.4,4.1-1.5,5.6c-1.2,1.5-1.7,1.9-3.3,2.9l7.2,12.6h-6.4 l-6.7-11.8l-2.6,0v11.6h-5.6V121.2z M429.8,125.6l0,8.4h2.3c1.4,0,2.6-0.2,3.7-1c1.1-0.8,1.4-2.2,1.4-3.5c0-1.2-0.4-2.1-1.2-2.9 c-0.8-0.8-1.9-1.2-3.1-1.2C432.9,125.5,431.2,125.5,429.8,125.6z"/></g><ellipse id="Oval_12_" transform="matrix(6.209514e-02 -0.9981 0.9981 6.209514e-02 0.2095 75.2486)" class="st1" cx="40.1" cy="37.5" rx="5.4" ry="5.4"/><ellipse id="Oval_11_" transform="matrix(6.209514e-02 -0.9981 0.9981 6.209514e-02 -24.345 108.8566)" class="st1" cx="45.7" cy="67.4" rx="4.6" ry="4.6"/><g id="Oval_6_" class="st3"><ellipse transform="matrix(0.9951 -9.885596e-02 9.885596e-02 0.9951 -0.714 8.8844)" class="st1" cx="89.3" cy="11.6" rx="4.3" ry="4.3"/></g><linearGradient id="SVGID_26_" gradientUnits="userSpaceOnUse" x1="39.258" y1="17.916" x2="79.925" y2="139.237"><stop offset="0" stop-color="#A3A5A9"/><stop offset="1" stop-color="#A3A5A9" stop-opacity="0"/></linearGradient><path d="M61.3,10.7c-8.1,2.1-15.8,5.8-22.5,10.8c-6.7,5.1-12.3,11.4-16.6,18.7	c-4.2,7.2-6.9,15.3-8,23.6C13.2,72,13.8,80.5,16,88.5c2.2,8,6,15.6,11,22.1c5.1,6.5,11.4,12.1,18.5,16.1c7.1,4.1,15.1,6.7,23.2,7.8	c0.1,0,0.2,0,0.3,0c0-0.1,0-0.3,0-0.4c-0.1,0-0.1,0-0.2,0c-8.1-1.2-15.8-4-22.8-8.2c-6.9-4.2-13-9.7-17.8-16.2	C23.5,103.2,20,95.7,18.1,88C16.2,80.2,15.8,72,17,64.1c2.3-15.8,11-30.5,23.8-40.1C52.6,15,67.9,10.6,82.8,11.8	c0-1,0.2-1.9,0.5-2.8C76,8.3,68.5,8.8,61.3,10.7z" fill="url(#SVGID_26_)"/><linearGradient id="SVGID_28_" gradientUnits="userSpaceOnUse" x1="107.556" y1="7.673" x2="143.305" y2="114.323"><stop offset="0" stop-color="#A3A5A9"/><stop offset="1" stop-color="#A3A5A9" stop-opacity="0"/></linearGradient><path d="M126.5,35.5c4.9,6.4,8.6,13.7,10.8,21.5c1.8,6.7,2.5,13.8,2,20.7c0.1,0,0.1,0,0.2,0	c0.1,0,0.2,0,0.3,0c0.6-7,0.2-14.1-1.5-21c-2-8-5.5-15.6-10.4-22.3c-4.9-6.7-11.1-12.4-18.2-16.7c-4.3-2.6-9-4.7-13.8-6.2	c0,0.9-0.2,1.7-0.5,2.5c4.6,1.3,9,3.2,13.2,5.6C115.4,23.7,121.6,29.1,126.5,35.5z" fill="url(#SVGID_28_)"/><linearGradient id="SVGID_30_" gradientUnits="userSpaceOnUse" x1="77.505" y1="16.01" x2="111.595" y2="117.711"><stop offset="0" stop-color="#A3A5A9"/><stop offset=".791" stop-color="#A3A5A9" stop-opacity="0.4"/></linearGradient><path d="M120.5,42c4.2,5.4,7.4,11.7,9.2,18.4c1.6,5.7,2.2,11.6,1.8,17.5c0.1,0,0.2,0,0.3,0	c0.1,0,0.2,0,0.2,0c0.5-5.9,0.1-11.9-1.3-17.7c-1.7-6.9-4.7-13.4-8.9-19.1c-4.2-5.7-9.5-10.6-15.7-14.3c-6.1-3.7-13-6.2-20.1-7.3	c-7.1-1-14.4-0.7-21.4,1.1c-7,1.8-13.6,5-19.4,9.3c-0.5,0.4-1,0.8-1.5,1.2c0.7,0.4,1.4,0.9,1.9,1.6c0.2,0.2,0.3,0.4,0.5,0.6	c0.3-0.3,0.7-0.5,1-0.8c10.8-8.2,24.9-12,38.4-10.2c6.7,0.9,13.4,3,19.3,6.4C111,32,116.3,36.5,120.5,42z" fill="url(#SVGID_30_)"/><linearGradient id="SVGID_32_" gradientUnits="userSpaceOnUse" x1="26.411" y1="44.144" x2="58.04" y2="138.503"><stop offset="0" stop-color="#A3A5A9"/><stop offset=".791" stop-color="#A3A5A9" stop-opacity="0.4"/></linearGradient><path d="M69.1,126c-6.1-1.2-12-3.5-17.3-6.7c-5.9-3.6-11.1-8.4-15.2-13.9c-4.1-5.6-7-11.9-8.6-18.6	C26.3,80.2,26,73.2,27,66.5c1.2-8.1,4.4-15.9,9.1-22.6c-0.6-0.4-1.2-0.8-1.6-1.4c-0.2-0.3-0.4-0.6-0.6-0.9c-1,1.3-1.9,2.7-2.7,4.2	C27.5,52,25.2,59,24.3,66.1c-0.9,7.1-0.4,14.4,1.5,21.3c1.9,6.9,5.2,13.4,9.5,19c4.4,5.6,9.8,10.3,16,13.8	c5.5,3.2,11.6,5.3,17.8,6.3C69,126.3,69,126.1,69.1,126z" fill="url(#SVGID_32_)"/><linearGradient id="SVGID_34_" gradientUnits="userSpaceOnUse" x1="69.666" y1="38.248" x2="90.809" y2="101.324"><stop offset="0" stop-color="#A3A5A9"/><stop offset="1" stop-color="#A3A5A9" stop-opacity="0"/></linearGradient><path d="M102.9,52.5c5.2,6.5,7.7,15.1,6.7,23.5c-0.1,0.6-0.2,1.2-0.3,1.7c0.1,0,0.2,0,0.4,0	c0,0,0,0,0.1,0c0.1-0.6,0.2-1.1,0.3-1.7c0.7-4.2,0.5-8.6-0.5-12.8c-1-4.2-2.8-8.2-5.4-11.8c-5.1-7.1-13.1-12.2-21.9-13.5	c-4.4-0.7-8.9-0.5-13.3,0.6c-4.3,1.1-8.4,3.1-12,5.7c-3.5,2.7-6.6,6.1-8.8,10c-1.2,2-2.1,4.2-2.8,6.4c0.1,0,0.3,0,0.4,0h0	c0.1,0,0.3,0,0.4,0c0.8,0,1.5,0.2,2.2,0.5c2.1-5.6,5.8-10.6,10.6-14.2c6.4-4.9,14.8-7.2,22.9-6.2c4,0.5,8,1.7,11.6,3.7	C97.1,46.5,100.3,49.2,102.9,52.5z" fill="url(#SVGID_34_)"/><linearGradient id="SVGID_36_" gradientUnits="userSpaceOnUse" x1="50.493" y1="71.71" x2="63.846" y2="111.548"><stop offset="0" stop-color="#A3A5A9"/><stop offset="1" stop-color="#A3A5A9" stop-opacity="0"/></linearGradient><path d="M69,102.5c-6.7-2-12.6-6.3-16.6-11.9c-2.4-3.4-4.1-7.2-5.1-11.2c-0.4-1.7-0.7-3.5-0.8-5.3	c-0.2,0-0.5,0-0.7,0c-0.1,0-0.3,0-0.4,0c-0.5,0-1-0.1-1.4-0.3c0.6,6.5,3.1,12.7,7.1,17.7c2.7,3.4,6.1,6.3,9.9,8.4	c2.5,1.4,5.2,2.4,8,3.1C68.9,102.9,68.9,102.7,69,102.5z" fill="url(#SVGID_36_)"/></svg>