<svg id="Layer_1" xmlns="http://www.w3.org/2000/svg" viewBox="0 0 244 83"><style>.st0{fill:url(#SVGID_1_);} .st1{fill:url(#SVGID_2_);} .st2{fill:url(#SVGID_3_);} .st3{fill:#163553;} .st4{fill:#FFFFFF;} .st5{fill:#CFA858;} .st6{fill:#F1C161;} .st7{fill:#81725F;}</style><title>Group</title><g id="Symbols"><g id="Logo"><g id="Group"><linearGradient id="SVGID_1_" gradientUnits="userSpaceOnUse" x1=".791" y1="43" x2="79.156" y2="43"><stop offset="0" stop-color="#A5A7AA"/><stop offset=".17" stop-color="#A5A7AA" stop-opacity=".98"/><stop offset=".32" stop-color="#A5A7AA" stop-opacity=".91"/><stop offset=".47" stop-color="#A5A7AA" stop-opacity=".8"/><stop offset=".61" stop-color="#A5A7AA" stop-opacity=".65"/><stop offset=".76" stop-color="#A5A7AA" stop-opacity=".45"/><stop offset=".9" stop-color="#A5A7AA" stop-opacity=".21"/><stop offset="1" stop-color="#A5A7AA" stop-opacity="0"/></linearGradient><path class="st0" d="M67.5 71.4c-9.9 9.2-24.2 12.9-37.8 8.8C10.5 74.3-1.1 55 2.8 35.4c3.9-19.6 22.1-33 42-31.1C60.6 5.9 73.5 16.8 78 31.4h.2C74.9 20.2 66.7 10.9 55.6 6.2 40.8-.1 23.7 3.1 12.2 14.3.3 25.8-3.3 43.4 3.2 58.6 10.6 76.1 29.3 86 48 82.2c7.9-1.6 14.8-5.5 20.2-10.8h-.7z"/><linearGradient id="SVGID_2_" gradientUnits="userSpaceOnUse" x1="13317.376" y1="43.5" x2="20056.988" y2="43.5"><stop offset="0" stop-color="#A5A7AA"/><stop offset=".17" stop-color="#A5A7AA" stop-opacity=".98"/><stop offset=".32" stop-color="#A5A7AA" stop-opacity=".91"/><stop offset=".47" stop-color="#A5A7AA" stop-opacity=".8"/><stop offset=".61" stop-color="#A5A7AA" stop-opacity=".65"/><stop offset=".76" stop-color="#A5A7AA" stop-opacity=".45"/><stop offset=".9" stop-color="#A5A7AA" stop-opacity=".21"/><stop offset="1" stop-color="#A5A7AA" stop-opacity="0"/></linearGradient><path class="st1" d="M59 71.4c-7.9 5.3-18.1 7.1-27.8 4.1-16.2-5-26-21.7-22.7-38.6C11.8 20 27.2 8.5 44.1 10.2c12.7 1.3 23.1 9.7 27.5 21.2h.3c-4.7-12.8-16.7-22-31-22.4-14-.3-26.7 8-32.2 21-3.6 8.6-3.6 18.4 0 27 3.6 8.6 10.4 15.3 19 18.7 4.2 1.6 8.6 2.4 13.1 2.3 7.2-.2 13.8-2.6 19.2-6.6h-1z"/><linearGradient id="SVGID_3_" gradientUnits="userSpaceOnUse" x1="8515.183" y1="42.698" x2="10912.152" y2="42.698"><stop offset="0" stop-color="#A5A7AA"/><stop offset=".17" stop-color="#A5A7AA" stop-opacity=".98"/><stop offset=".32" stop-color="#A5A7AA" stop-opacity=".91"/><stop offset=".47" stop-color="#A5A7AA" stop-opacity=".8"/><stop offset=".61" stop-color="#A5A7AA" stop-opacity=".65"/><stop offset=".76" stop-color="#A5A7AA" stop-opacity=".45"/><stop offset=".9" stop-color="#A5A7AA" stop-opacity=".21"/><stop offset="1" stop-color="#A5A7AA" stop-opacity="0"/></linearGradient><path class="st2" d="M35 61.9c-1.8-.6-3.5-1.4-5.2-2.5-7.9-5.3-10.9-15.4-7.3-24.2 3.6-8.8 13-13.7 22.3-11.9 5.1 1 9.4 3.9 12.3 7.9h.3c-.6-1-1.4-1.9-2.2-2.7-1.8-2-4-3.6-6.5-4.7s-5.2-1.8-7.9-1.9c-8.7-.4-16.7 4.7-20.1 12.6-2.3 5.3-2.3 11.3 0 16.7 2.6 6.2 8 10.5 14.3 12.1v-1.4z"/><path id="Shape_31_" class="st3" d="M46 1.4c1.5 0 2.6 1.2 2.6 2.6S47.5 6.6 46 6.6 43.4 5.5 43.4 4s1.1-2.6 2.6-2.6zM46 0c-2.2 0-4 1.8-4 4s1.8 4 4 4 4-1.8 4-4-1.8-4-4-4z"/><path id="Shape_32_" class="st3" d="M14 18.3c2 0 3.7 1.7 3.7 3.7S16 25.7 14 25.7 10.3 24 10.3 22s1.7-3.7 3.7-3.7zm0-1.3c-2.8 0-5 2.2-5 5s2.2 5 5 5 5-2.2 5-5-2.2-5-5-5z"/><path id="Shape_33_" class="st3" d="M20 38.3c1.5 0 2.7 1.2 2.7 2.7s-1.2 2.7-2.7 2.7-2.7-1.2-2.7-2.7 1.2-2.7 2.7-2.7zm0-1.3c-2.2 0-4 1.8-4 4s1.8 4 4 4 4-1.8 4-4-1.8-4-4-4z"/><path id="Shape_34_" class="st3" d="M57.5 76.3c1.2 0 2.2 1 2.2 2.2 0 1.2-1 2.2-2.2 2.2-1.2 0-2.2-1-2.2-2.2 0-1.2 1-2.2 2.2-2.2zm0-1.3c-1.4 0-2.7.9-3.2 2.2S54 80 55 81s2.5 1.3 3.8.8S61 80 61 78.6c0-2-1.6-3.6-3.5-3.6z"/><path id="Shape_3_" class="st4" d="M40.8 39.3l-1.2-2.1h-.1l.2 2.1v9.5H38V34h1l7.3 9.7 1.1 2h.1l-.2-2v-9.5H49V49h-1z"/><path id="Shape_4_" class="st4" d="M53 34h7.9v1.6h-6.2v4.9h5.7v1.6h-5.7v5.3H61V49h-8z"/><path id="Shape_5_" class="st4" d="M69 41.4L64.4 34h2.2l3 5.1.5 1.2.6-1.2 3.2-5.1h1.9l-4.7 7.2L76 49h-2.1l-3.3-5.4-.6-1.3-.6 1.3L66 49h-2z"/><path id="Shape_6_" class="st4" d="M90 35.6h-4.6V49h-1.8V35.6H79V34h11z"/><path id="Shape_7_" class="st4" d="M103.8 41.5h5.2v6.4c-.3.2-.5.3-.8.5-.3.1-.7.3-1.1.4-.4.1-.8.2-1.2.2-.4 0-.8.1-1.2.1-.9 0-1.8-.1-2.7-.4-.8-.3-1.5-.8-2.1-1.4-.6-.7-1.1-1.5-1.4-2.3-.4-1.1-.5-2.2-.5-3.4 0-1.2.2-2.3.6-3.4.4-.9.9-1.7 1.6-2.3.6-.6 1.4-1 2.2-1.3.8-.3 1.6-.4 2.5-.4.7 0 1.5 0 2.2.1.5.1 1 .2 1.5.4l-.5 1.5c-1-.4-2-.5-3-.5-.6 0-1.2.1-1.8.3-.6.2-1.2.5-1.7 1s-.9 1.2-1.2 1.8c-.3.9-.5 1.9-.5 2.8 0 .9.1 1.8.4 2.7.2.7.6 1.3 1 1.9.4.5 1 .9 1.6 1.1.7.2 1.4.4 2.1.4.8 0 1.7-.2 2.4-.5v-4l-3.6-.4v-1.3z"/><path id="Shape_8_" class="st4" d="M113 34h7.9v1.6h-6.2v4.9h5.7v1.6h-5.7v5.3h6.3V49h-8z"/><path id="Shape_9_" class="st4" d="M127.8 39.3l-1.2-2.1h-.1l.2 2.1v9.5H125V34h1l7.3 9.7 1.1 2h.1l-.2-2v-9.5h1.7V49h-1z"/><path id="Shape_10_" class="st4" d="M140 34h7.9v1.6h-6.2v4.9h5.6v1.6h-5.6v5.3h6.3V49h-8z"/><path id="Shape_11_" class="st4" d="M152 34.3c.6-.1 1.2-.2 1.9-.2.7-.1 1.3-.1 1.9-.1.6 0 1.2.1 1.9.2.6.1 1.1.3 1.5.7.5.3.8.8 1.1 1.3.7 1.6.5 3.4-.5 4.7-.6.7-1.5 1.2-2.4 1.4l1 .8L162 49h-2l-4.1-6.4-2.1-.3V49H152V34.3zm3.8 1.2h-1.6c-.1 0-.3 0-.4.1v5.5h1.7c.9 0 1.7-.2 2.4-.7.7-.5 1-1.4 1-2.3 0-.7-.3-1.4-.8-1.9-.7-.5-1.5-.7-2.3-.7z"/><path id="Shape_12_" class="st4" d="M173.6 44.9h-5.4l-1.5 4.1H165l5.6-15h.8l5.6 15h-1.9l-1.5-4.1zm-4.8-1.5h4.3l-1.6-4.5-.5-2.2-.5 2.3-1.7 4.4z"/><path id="Shape_13_" class="st4" d="M189 35.6h-4.6V49h-1.8V35.6H178V34h11z"/><path id="Shape_14_" class="st4" d="M193 34h2v15h-2z"/><path id="Shape_15_" class="st4" d="M199 41.5c0-2.4.5-4.3 1.6-5.5 1.1-1.3 2.7-2 4.4-2 .9 0 1.8.2 2.7.5.7.3 1.4.9 1.9 1.5.5.7.9 1.5 1.1 2.4.2 1 .4 2 .4 3.1 0 2.4-.5 4.3-1.6 5.5-1.1 1.3-2.7 2-4.5 2-.9 0-1.8-.2-2.7-.5-.7-.4-1.4-.9-1.9-1.5-.5-.7-.9-1.5-1.1-2.4-.2-1-.3-2.1-.3-3.1zm1.9 0c0 .8.1 1.5.2 2.3.1.7.4 1.3.7 1.9.3.5.8 1 1.3 1.3.6.3 1.2.5 1.9.5 1.2 0 2.4-.5 3.1-1.5.7-1 1.1-2.5 1.1-4.5 0-.8-.1-1.5-.2-2.3-.1-.7-.4-1.3-.8-1.9-.3-.5-.8-1-1.3-1.3-.6-.3-1.2-.5-1.9-.5-1.2 0-2.3.5-3 1.5-.8 1-1.2 2.5-1.1 4.5z"/><path id="Shape_16_" class="st4" d="M217.8 39.3l-1.2-2.1h-.1l.2 2.1v9.5H215V34h1l7.3 9.7 1.1 2h.1l-.2-2v-9.5h1.7V49h-1z"/><path id="Shape_17_" class="st4" d="M40.6 61.2l-1.2-2.3h-.1l.4 2.3v7.7H37V54h2l5.5 7.9 1.1 2.2h.1l-.4-2.2v-7.8H48V69h-2z"/><path id="Shape_18_" class="st4" d="M59.2 54H62v9.5c0 .8-.1 1.7-.4 2.5-.2.6-.6 1.2-1.1 1.7-.5.5-1 .8-1.7 1-.7.2-1.4.3-2.2.3-3.8 0-5.7-1.7-5.7-5.1V54h2.9v9.3c0 .5 0 1 .2 1.5.1.4.3.7.5 1 .2.2.5.4.9.5.4.1.8.2 1.2.2.7.1 1.5-.2 2-.7.5-.7.7-1.5.6-2.4V54z"/><path id="Shape_19_" class="st4" d="M76 68.1c-.5.4-1.2.6-1.8.7-.7.1-1.5.2-2.2.2-.9 0-1.8-.1-2.7-.4-.8-.3-1.6-.8-2.2-1.4-.7-.7-1.2-1.6-1.5-2.5-.4-1.2-.6-2.4-.6-3.7 0-1.3.2-2.6.6-3.8.4-.9.9-1.8 1.6-2.5.6-.6 1.4-1.1 2.3-1.3.8-.3 1.6-.4 2.5-.4.8 0 1.5 0 2.2.2.5.1 1 .2 1.5.4l-.6 2.5c-.4-.2-.8-.3-1.2-.4-.6-.1-1.1-.1-1.7-.1-1.1 0-2.2.4-3 1.3-.7.9-1.1 2.2-1.1 4 0 .7.1 1.5.3 2.2.2.6.4 1.2.8 1.7s.8.8 1.4 1.1c.6.3 1.2.4 1.9.4.6 0 1.1-.1 1.7-.2.4-.1.8-.3 1.2-.5l.6 2.5z"/><path id="Shape_20_" class="st4" d="M88 69h-9V54h2.8v12.4H88z"/><path id="Shape_21_" class="st4" d="M91 54h8.9v2.6h-6v3.5h5.4v2.6h-5.4v3.7h6.1V69h-9z"/><path id="Shape_22_" class="st4" d="M111.7 65.7h-4.6L106 69h-3l5.4-15h2.2l5.4 15h-3.1l-1.2-3.3zm-3.9-2.3h3.2l-1.1-3.3-.5-2.3h-.1l-.4 2.4-1.1 3.2z"/><path id="Shape_23_" class="st4" d="M119 54.3c.3-.1.7-.1 1-.2.4 0 .7-.1 1.1-.1l1.1-.1h1c.7 0 1.4.1 2 .2.6.1 1.2.3 1.8.7.5.3 1 .7 1.3 1.3.3.6.5 1.3.5 2 0 1-.2 2.1-.8 2.9-.6.8-1.3 1.3-2.2 1.6l1 .7L130 69h-3.3l-3.3-5.8-1.5-.3v6H119V54.3zm4.4 2.2h-.9c-.2 0-.4 0-.7.1v4.3h1.2c.7 0 1.3-.2 1.9-.5.5-.5.8-1.1.7-1.8 0-.6-.2-1.1-.6-1.5-.4-.4-1-.6-1.6-.6z"/><path id="Shape_24_" class="st4" d="M143.6 61.2l-1.2-2.3h-.1l.4 2.3v7.7H140V54h2l5.5 7.9 1.1 2.2h.1l-.4-2.2v-7.8h2.7V69h-2z"/><path id="Shape_25_" class="st4" d="M155 54h8.9v2.6h-6v3.5h5.4v2.6h-5.4v3.7h6.1V69h-9z"/><path id="Shape_26_" class="st4" d="M179 56.6h-4.5V69h-3V56.6H167V54h12z"/><path id="Shape_27_" class="st4" d="M187.1 62.3l.3 2.7h.1l.3-2.7 2.5-8.3h1.9l2.5 8.3.3 2.7.3-2.7 1.8-8.3h2.9l-4 15h-1.9l-2.7-8.3-.3-2.3h-.1l-.4 2.3L188 69h-2l-4-15h3.1z"/><path id="Shape_28_" class="st4" d="M202 61c0-2.6.6-4.5 1.7-5.9 1.2-1.4 3-2.2 4.8-2.1 1 0 2 .2 2.9.6.8.4 1.5.9 2 1.6.6.8 1 1.6 1.2 2.5.3 1.1.4 2.2.4 3.3 0 2.6-.6 4.5-1.7 5.9-1.2 1.4-3 2.2-4.8 2.1-1 0-2-.2-2.9-.6-.8-.4-1.5-.9-2-1.6-.6-.8-1-1.6-1.2-2.5-.3-1.1-.4-2.2-.4-3.3zm3.1 0c0 .7.1 1.4.2 2.1.1.6.3 1.2.6 1.7.2.4.6.8 1 1.1.5.3 1 .4 1.5.4 1 0 1.9-.4 2.5-1.3.6-.8.9-2.2.9-4.1 0-.7-.1-1.4-.2-2.1-.1-.6-.3-1.2-.6-1.7-.2-.5-.6-.8-1-1.1-1.4-.8-3.1-.4-4 .9-.6.9-.9 2.3-.9 4.1z"/><path id="Shape_29_" class="st4" d="M218 54.3c.3-.1.7-.1 1-.2.4 0 .7-.1 1.1-.1l1.1-.1h1c.7 0 1.4.1 2 .2.6.1 1.2.3 1.8.7.5.3 1 .8 1.3 1.3.3.6.5 1.3.5 2 0 1.1-.2 2.1-.8 3-.6.8-1.3 1.3-2.2 1.6l1 .7L229 69h-3.3l-3.3-5.8-1.5-.3V69H218V54.3zm4.4 2.3h-.9c-.2 0-.4 0-.7.1V61h1.2c.7 0 1.3-.2 1.9-.5.5-.5.8-1.1.7-1.8 0-.6-.2-1.1-.6-1.5-.4-.5-1-.7-1.6-.6z"/><path id="Shape_30_" class="st4" d="M235.8 62.6h-.8V69h-3V54h3v6.7l.7-.3 4.2-6.4h3.4l-4.4 6.3-1.2.8 1.2.9 5.1 7h-3.7z"/><circle id="Oval" class="st5" cx="46" cy="4" r="3"/><circle id="Oval_1_" class="st6" cx="14" cy="22" r="4"/><circle id="Oval_2_" class="st6" cx="20" cy="41" r="3"/><circle id="Oval_3_" class="st7" cx="57.5" cy="78.5" r="2.5"/></g></g></g></svg>