<svg width="12" height="12" viewBox="0 0 12 12" fill="none" xmlns="http://www.w3.org/2000/svg">
<path d="M0.108398 4.02126L3.61167 7.96244L4.60822 7.07662L2.48493 4.68793H7.60643C8.69292 4.68793 9.34648 5.00075 9.733 5.4078C10.1263 5.82203 10.3337 6.42914 10.3337 7.18793C10.3337 7.94672 10.1263 8.55382 9.733 8.96805C9.34648 9.37511 8.69292 9.68793 7.60643 9.68793H2.48522V11.0213H7.60643C8.95472 11.0213 9.99813 10.6252 10.6999 9.88615C11.3948 9.15426 11.667 8.17804 11.667 7.18793C11.667 6.19781 11.3948 5.22159 10.6999 4.48971C9.99813 3.75066 8.95472 3.35459 7.60643 3.35459H2.48493L4.60822 0.965897L3.61167 0.0800781L0.108398 4.02126Z" fill="#0065A4"/>
</svg>
