<svg aria-hidden="true" style="position: absolute; width: 0; height: 0; overflow: hidden;" version="1.1" xmlns="http://www.w3.org/2000/svg" xmlns:xlink="http://www.w3.org/1999/xlink">
<defs>
<symbol id="icon-caret-down" viewBox="0 0 32 32">
<title>caret-down</title>
<path d="M7.333 12.667l9.333 10 9.333-10h-18.667z"></path>
</symbol>
<symbol id="icon-chevron-right" viewBox="0 0 32 32">
<title>chevron-right</title>
<path d="M22.275 15.951l-11.219 11.219-1.886-1.886 9.333-9.333-9.333-9.333 1.886-1.886 11.219 11.219z"></path>
</symbol>
<symbol id="icon-chevron-left" viewBox="0 0 16 16">
<title>chevron-left</title>
<path d="M4.86271 7.97555L10.4722 13.585L11.415 12.6422L6.74833 7.97554L11.415 3.30888L10.4722 2.36607L4.86271 7.97555Z"></path>
</symbol>
<symbol id="icon-chevron-line-right" viewBox="0 0 16 16">
<title>chevron-line-right</title>
<path d="M12.3482 2.34821L11.0982 2.34821L11.0982 13.5982H12.3482V2.34821Z" />
<path d="M9.79458 7.9732L4.53569 2.71432L3.65181 3.59821L8.02681 7.9732L3.65181 12.3482L4.53569 13.2321L9.79458 7.9732Z" />
</symbol>
<symbol id="icon-chevron-line-left" viewBox="0 0 16 16">
<title>chevron-line-left</title>
<path d="M3.65181 13.5982H4.90181L4.90181 2.34821L3.65181 2.34821L3.65181 13.5982Z" />
<path d="M6.20543 7.97321L11.4643 13.2321L12.3482 12.3482L7.97319 7.97321L12.3482 3.59821L11.4643 2.71432L6.20543 7.97321Z" />
</symbol>
<symbol id="icon-arrow-external" viewBox="0 0 30 32">
<title>arrow-external</title>
<path d="M24.3 4.661h-5.811v-2.844h8.655l0.030-0.030 0.030 0.030h1.951v1.951l0.030 0.030-0.030 0.030v8.655h-2.844v-5.811l-11.378 11.378-2.011-2.011 11.378-11.378z"></path>
<path d="M0.711 1.816v28.444h28.444v-14.913h-2.844v12.069h-22.756v-22.756h11.703v-2.844h-14.547z"></path>
</symbol>
<symbol id="icon-copy" viewBox="0 0 32 32">
<title>copy</title>
<path d="M24 2.667h-21.333v21.333h2.667v-18.667h18.667v-2.667z"></path>
<path d="M29.333 8h-21.333v21.333h21.333v-21.333z"></path>
</symbol>
<symbol id="icon-download" viewBox="0 0 32 32">
<title>download</title>
<path d="M5.333 22.667v4h21.333v-4h2.667v6.667h-26.667v-6.667h2.667z"></path>
<path d="M16 25.219l-1.219-1.219h-0.114v-0.114l-9.886-9.886 1.886-1.886 8 8 0-17.448h2.667l-0 17.448 8-8 1.886 1.886-9.886 9.886v0.114h-0.114l-1.219 1.219z"></path>
</symbol>
<symbol id="icon-email" viewBox="0 0 33 32">
<title>email</title>
<path d="M7.653 10.858v11.809h17.778v-12.020l-9.356 7.868-8.422-7.656z"></path>
<path d="M24.23 9.333h-15.611l7.501 6.819 8.11-6.819z"></path>
</symbol>
<symbol id="icon-facebook" viewBox="0 0 33 32">
<title>facebook</title>
<path d="M20.597 17.125l0.484-3.258h-3.026v-2.114c0-0.891 0.423-1.76 1.778-1.76h1.376v-2.773c0 0-1.248-0.22-2.442-0.22-2.492 0-4.121 1.56-4.121 4.385v2.483h-2.77v3.258h2.77v7.875h3.409v-7.875h2.542z"></path>
</symbol>
<symbol id="icon-instagram" viewBox="0 0 32 32">
<title>instagram</title>
<path d="M16 11.62c-2.419 0-4.38 1.961-4.38 4.38s1.961 4.38 4.38 4.38c2.419 0 4.38-1.961 4.38-4.38s-1.961-4.38-4.38-4.38z"></path>
<path d="M10.096 2.667c-4.103 0-7.429 3.326-7.429 7.429v11.809c0 4.103 3.326 7.429 7.429 7.429h11.809c4.103 0 7.429-3.326 7.429-7.429v-11.809c0-4.103-3.326-7.429-7.429-7.429h-11.809zM22.978 10.632c0.889 0 1.61-0.721 1.61-1.61s-0.721-1.61-1.61-1.61c-0.889 0-1.61 0.721-1.61 1.61s0.721 1.61 1.61 1.61zM9.645 16c0-3.51 2.845-6.355 6.355-6.355s6.355 2.845 6.355 6.355c0 3.51-2.845 6.355-6.355 6.355s-6.355-2.845-6.355-6.355z"></path>
</symbol>
<symbol id="icon-link" viewBox="0 0 33 32">
<title>link</title>
<path d="M20.57 8.889c0.408-0 0.812 0.078 1.188 0.23s0.716 0.373 1.001 0.651c0.285 0.278 0.51 0.606 0.663 0.966s0.231 0.745 0.231 1.132c-0 0.388-0.079 0.773-0.232 1.132s-0.378 0.688-0.664 0.966l-2.553 2.486c-0.285 0.278-0.625 0.499-1.001 0.651s-0.779 0.23-1.187 0.23-0.811-0.078-1.187-0.23c-0.376-0.152-0.716-0.373-1.001-0.651l-0.637-0.62-1.24 1.274 0.637 0.62c0.452 0.44 0.988 0.789 1.576 1.026s1.217 0.359 1.852 0.359 1.264-0.122 1.852-0.359c0.588-0.237 1.124-0.585 1.576-1.026l2.552-2.486c0.453-0.44 0.813-0.965 1.060-1.544s0.374-1.2 0.374-1.828c0-0.628-0.127-1.249-0.373-1.829s-0.606-1.103-1.059-1.544c-0.452-0.441-0.988-0.789-1.576-1.026s-1.218-0.359-1.853-0.359-1.265 0.122-1.853 0.36c-0.588 0.237-1.123 0.586-1.576 1.027l-2.424 2.36 1.24 1.274 2.424-2.36c0.285-0.278 0.625-0.5 1.001-0.652s0.779-0.23 1.187-0.23z"></path>
<path d="M13.88 14.897c0.376-0.152 0.779-0.23 1.187-0.23s0.811 0.078 1.187 0.23c0.376 0.152 0.715 0.373 1.001 0.651l0.637 0.62 1.24-1.274-0.637-0.62c-0.452-0.44-0.988-0.789-1.576-1.026s-1.217-0.359-1.852-0.359c-0.635 0-1.264 0.122-1.852 0.359s-1.124 0.585-1.576 1.026l-2.553 2.486c-0.453 0.44-0.813 0.965-1.060 1.544s-0.374 1.2-0.374 1.828 0.127 1.25 0.373 1.829c0.246 0.579 0.606 1.103 1.059 1.544s0.988 0.789 1.577 1.026c0.588 0.237 1.218 0.359 1.853 0.359s1.265-0.122 1.853-0.36c0.588-0.237 1.124-0.586 1.576-1.027l2.423-2.36-1.24-1.274-2.424 2.36c-0.285 0.278-0.625 0.5-1.001 0.652s-0.779 0.23-1.187 0.23c-0.408 0-0.812-0.078-1.188-0.23s-0.716-0.373-1.001-0.651c-0.285-0.278-0.51-0.606-0.663-0.966s-0.231-0.745-0.231-1.132c0-0.388 0.079-0.773 0.232-1.132s0.378-0.688 0.664-0.966l2.553-2.486c0.285-0.278 0.625-0.499 1.001-0.651z"></path>
</symbol>
<symbol id="icon-linkedin" viewBox="0 0 33 32">
<title>linkedin</title>
<path d="M11.801 24.666h-3.81v-11.539h3.81v11.539z"></path>
<path d="M9.922 7.562c-0.272-0.022-0.545 0.011-0.803 0.1s-0.495 0.229-0.697 0.414c-0.202 0.184-0.363 0.409-0.475 0.659s-0.171 0.521-0.175 0.795c-0.003 0.274 0.049 0.546 0.155 0.799s0.261 0.481 0.458 0.671 0.43 0.336 0.686 0.431c0.256 0.095 0.528 0.136 0.8 0.12h0.026c0.273 0.023 0.547-0.011 0.807-0.1s0.497-0.231 0.699-0.417 0.364-0.412 0.475-0.664c0.111-0.252 0.169-0.524 0.171-0.8s-0.053-0.549-0.161-0.802-0.267-0.481-0.467-0.67c-0.2-0.189-0.436-0.333-0.694-0.426s-0.532-0.13-0.805-0.11z"></path>
<path d="M13.911 24.666h3.81v-6.444c-0.015-0.317 0.028-0.634 0.125-0.935 0.143-0.408 0.407-0.762 0.757-1.013s0.769-0.387 1.198-0.389c1.383 0 1.931 1.058 1.931 2.609v6.172h3.81v-6.617c0-3.544-1.876-5.194-4.387-5.194-0.691-0.029-1.376 0.133-1.981 0.468s-1.108 0.832-1.453 1.434v-1.631h-3.811c0.050 1.083 0 11.54 0 11.54v-0.001z"></path>
</symbol>
<symbol id="icon-pen" viewBox="0 0 32 32">
<title>pen</title>
<path d="M23.901 2.667l5.432 5.432-3.665 3.679-5.432-5.432 3.665-3.679zM2.667 29.333v-5.432l16.020-16.020 5.432 5.432-16.020 16.020h-5.432z"></path>
</symbol>
<symbol id="icon-reverse-arrow" viewBox="0 0 32 32">
<title>reverse-arrow</title>
<path d="M0.289 10.723l9.342 10.51 2.657-2.362-5.662-6.37h13.657c2.897 0 4.64 0.834 5.671 1.92 1.049 1.105 1.602 2.724 1.602 4.747s-0.553 3.642-1.602 4.747c-1.031 1.085-2.774 1.92-5.671 1.92h-13.657v3.556h13.657c3.595 0 6.378-1.056 8.249-3.027 1.853-1.952 2.579-4.555 2.579-7.195s-0.726-5.244-2.579-7.195c-1.871-1.971-4.654-3.027-8.249-3.027h-13.657l5.662-6.37-2.657-2.362-9.342 10.51z"></path>
</symbol>
<symbol id="icon-suitcase" viewBox="0 0 36 32">
<title>suitcase</title>
<path d="M8.889 31.111h17.778v-27.778c0-1.84-1.493-3.333-3.333-3.333h-11.111c-1.84 0-3.333 1.493-3.333 3.333v27.778zM13.333 4.444h8.889v2.222h-8.889v-2.222zM35.556 10v17.778c0 1.84-1.493 3.333-3.333 3.333h-3.333v-24.444h3.333c1.84 0 3.333 1.493 3.333 3.333zM6.667 31.111h-3.333c-1.84 0-3.333-1.493-3.333-3.333v-17.778c0-1.84 1.493-3.333 3.333-3.333h3.333v24.444z"></path>
</symbol>
<symbol id="icon-twitter" viewBox="0 0 33 32">
<title>twitter</title>
<path d="M23.421 10.765c0.732-0.090 1.447-0.294 2.121-0.605-0.497 0.778-1.121 1.457-1.845 2.005 0.008 0.166 0.012 0.332 0.012 0.5 0.009 1.448-0.256 2.883-0.781 4.222s-1.298 2.556-2.276 3.58-2.139 1.834-3.418 2.383c-1.279 0.549-2.649 0.827-4.031 0.817-2.007 0.002-3.972-0.602-5.66-1.738 0.292 0.036 0.587 0.055 0.881 0.055 1.664 0.004 3.281-0.58 4.59-1.656-0.77-0.015-1.517-0.282-2.135-0.764s-1.078-1.154-1.313-1.922c0.229 0.045 0.462 0.068 0.696 0.068 0.328 0.001 0.655-0.045 0.972-0.135-0.836-0.176-1.589-0.65-2.129-1.342s-0.836-1.557-0.836-2.451v-0.049c0.512 0.299 1.086 0.465 1.672 0.484-0.782-0.547-1.335-1.386-1.547-2.345s-0.067-1.967 0.405-2.819c0.927 1.195 2.084 2.172 3.395 2.869s2.747 1.096 4.216 1.173c-0.063-0.289-0.095-0.585-0.095-0.881-0.002-0.777 0.219-1.537 0.635-2.181s1.008-1.141 1.698-1.426c0.69-0.286 1.446-0.347 2.17-0.176s1.381 0.567 1.887 1.136c0.828-0.172 1.621-0.49 2.345-0.943-0.276 0.898-0.854 1.66-1.627 2.144z"></path>
</symbol>
<symbol id="icon-youtube" viewBox="0 0 32 32">
<title>youtube</title>
<path d="M29.494 12.872c0.061-1.804-0.323-3.595-1.116-5.206-0.538-0.661-1.284-1.107-2.109-1.261-3.413-0.318-6.84-0.449-10.266-0.391-3.414-0.061-6.828 0.066-10.229 0.378-0.672 0.126-1.295 0.45-1.791 0.933-1.104 1.046-1.226 2.836-1.349 4.349-0.178 2.72-0.178 5.449 0 8.169 0.035 0.852 0.159 1.697 0.368 2.521 0.148 0.637 0.447 1.226 0.871 1.714 0.5 0.509 1.136 0.851 1.828 0.983 2.644 0.336 5.309 0.475 7.972 0.416 4.293 0.063 8.058 0 12.51-0.353 0.708-0.124 1.363-0.467 1.876-0.983 0.343-0.353 0.6-0.785 0.748-1.261 0.439-1.383 0.654-2.831 0.638-4.286 0.049-0.706 0.049-4.967 0.049-5.723zM13.23 19.352v-7.803l7.261 3.92c-2.036 1.16-4.722 2.471-7.261 3.883z"></path>
</symbol>
<symbol id="icon-left-quote" viewBox="0 0 52 44">
<title>left-quote</title>
<path d="M52.7 32.4313C52.7 35.498 51.7 37.9646 49.7 39.8313C47.7 41.5646 45.1667 42.4313 42.1 42.4313C38.5 42.4313 35.5 41.2313 33.1 38.8313C30.8333 36.4313 29.7 32.898 29.7 28.2313C29.7 23.8313 30.3 20.098 31.5 17.0313C32.8333 13.8313 34.3667 11.1646 36.1 9.0313C37.9667 6.76464 39.8333 4.96464 41.7 3.6313C43.7 2.29797 45.4333 1.36463 46.9 0.831299L51.9 7.8313C48.9667 9.29797 46.5667 11.298 44.7 13.8313C42.9667 16.2313 42.1 19.298 42.1 23.0313C42.6333 22.898 43.3667 22.8313 44.3 22.8313C46.9667 22.8313 49.0333 23.7646 50.5 25.6313C51.9667 27.498 52.7 29.7646 52.7 32.4313ZM23.5 32.4313C23.5 35.498 22.5 37.9646 20.5 39.8313C18.5 41.5646 15.9667 42.4313 12.9 42.4313C9.3 42.4313 6.3 41.2313 3.9 38.8313C1.63333 36.4313 0.5 32.898 0.5 28.2313C0.5 23.8313 1.1 20.098 2.3 17.0313C3.63333 13.8313 5.16667 11.1646 6.9 9.0313C8.76667 6.76464 10.6333 4.96464 12.5 3.6313C14.5 2.29797 16.2333 1.36463 17.7 0.831299L22.7 7.8313C19.7667 9.29797 17.3667 11.298 15.5 13.8313C13.7667 16.2313 12.9 19.298 12.9 23.0313C13.4333 22.898 14.1667 22.8313 15.1 22.8313C17.7667 22.8313 19.8333 23.7646 21.3 25.6313C22.7667 27.498 23.5 29.7646 23.5 32.4313Z" fill="#F2BE57"/>
</symbol>
<symbol id="icon-alert" viewBox="0 0 30 32">
<title>alert</title>
<path fill="#3572ab" style="fill: var(--color1, #3572ab)" d="M15.238 1.393c-8.192 0-14.857 6.665-14.857 14.857s6.665 14.857 14.857 14.857c8.192 0 14.857-6.665 14.857-14.857s-6.665-14.857-14.857-14.857zM16.667 24.244h-2.857v-2.857h2.857v2.857zM16.381 19.679h-2.286l-0.429-11.429h3.143l-0.428 11.429z"></path>
</symbol>
</defs>
</svg>
