<svg width="518" viewBox="0 0 518 195" fill="none" xmlns="http://www.w3.org/2000/svg">
<path d="M85.2024 78.8973V101.851H81.6875V70.9679H83.7551L101.123 94.5475L100.916 71.3852H104.431V102.268H102.363L85.2024 78.8973Z" fill="white"/>
<path d="M114.769 70.9679H131.102V74.3066H118.283V84.5314H130.069V87.8701H118.283V98.9295H131.309V102.268H114.769V70.9679Z" fill="white"/>
<path d="M149.918 86.4094L140.407 70.9679H144.956L152.192 83.488L160.049 70.9679H163.978L154.26 86.4094L164.391 102.268H160.049L152.192 89.7481L143.715 102.268H139.58L149.918 86.4094Z" fill="white"/>
<path d="M193.337 74.3066H183.826V102.268H180.105V74.3066H170.594V70.9679H193.337V74.3066Z" fill="white"/>
<path d="M223.937 86.6181H234.689V99.9729C234.068 100.39 233.655 100.599 233.035 101.016C232.414 101.225 231.587 101.642 230.76 101.851C229.933 102.06 229.106 102.06 228.279 102.268C227.452 102.477 226.625 102.477 225.798 102.477C223.937 102.477 222.076 102.268 220.216 101.642C218.562 101.016 217.114 99.9729 215.874 98.7208C214.633 97.2602 213.599 95.5908 212.979 93.9215C212.152 91.6261 211.945 89.3308 211.945 86.8267C211.945 84.3227 212.359 82.0274 213.186 79.732C214.013 77.854 215.047 76.1846 216.494 74.9326C217.735 73.6806 219.389 72.8459 221.043 72.2199C222.697 71.5939 224.351 71.3853 226.212 71.3853C227.659 71.3853 229.313 71.3853 230.76 71.5939C231.794 71.8026 232.828 72.0113 233.862 72.4286L232.828 75.5586C230.76 74.724 228.693 74.5153 226.625 74.5153C225.385 74.5153 224.144 74.724 222.904 75.1413C221.663 75.5586 220.422 76.1846 219.389 77.228C218.355 78.2713 217.528 79.732 216.908 80.984C216.287 82.862 215.874 84.9487 215.874 86.8267C215.874 88.7048 216.08 90.5828 216.701 92.4608C217.114 93.9215 217.941 95.1735 218.768 96.4255C219.595 97.4688 220.836 98.3035 222.076 98.7208C223.524 99.1382 224.971 99.5555 226.418 99.5555C228.072 99.5555 229.933 99.1382 231.381 98.5122V89.5394H223.937V86.6181Z" fill="white"/>
<path d="M245.026 70.9679H261.36V74.3066H248.541V84.5314H260.326V87.8701H248.541V98.9295H261.567V102.268H245.026V70.9679Z" fill="white"/>
<path d="M304.987 70.9679H321.321V74.3066H308.502V84.5314H320.081V87.8701H308.502V98.9295H321.528V102.268H304.987V70.9679Z" fill="white"/>
<path d="M331.865 71.3852C333.106 71.1765 334.346 70.9678 335.794 70.9678C337.241 70.7592 338.482 70.7592 339.722 70.7592C340.963 70.7592 341.996 70.9678 343.65 71.1765C344.891 71.3852 345.925 72.0112 346.752 72.6372C347.786 73.4718 348.406 74.3065 349.026 75.3499C350.68 78.6886 350.06 82.6533 347.992 85.366C346.752 86.8266 345.305 87.4526 343.444 88.0787L352.541 101.851H348.406L339.929 88.496H335.587V101.851H331.865V71.3852ZM338.688 73.6805C338.068 73.6805 336.621 73.6805 336.621 73.6805C336.414 73.6805 336.207 73.6805 335.794 73.6805V85.366H339.309C341.169 85.366 342.823 84.9486 344.271 83.9053C345.718 82.8619 346.338 80.9839 346.338 79.1059C346.338 77.6452 345.718 76.1845 344.684 75.1412C343.03 74.3065 342.203 73.6805 338.688 73.6805Z" fill="white"/>
<path d="M378.593 93.7128H367.428L364.326 102.268H360.812L372.39 70.9679H374.044L385.623 102.268H381.694L378.593 93.7128ZM368.668 90.5828H377.559L373.217 77.6453L368.668 90.5828Z" fill="white"/>
<path d="M410.434 74.3066H400.923V102.268H397.201V74.3066H387.69V70.9679H410.434V74.3066Z" fill="white"/>
<path d="M418.703 70.9679H422.838V102.268H418.703V70.9679Z" fill="white"/>
<path d="M433.177 86.618C433.177 81.61 434.211 77.6453 436.485 75.1413C438.759 72.4286 442.067 70.9679 445.582 70.9679C447.443 70.9679 449.304 71.3852 451.165 72.0112C452.612 72.6372 454.059 73.8893 455.093 75.1413C456.127 76.6019 456.954 78.2713 457.367 80.1493C457.781 82.236 458.195 84.3227 458.195 86.618C458.195 91.6261 457.161 95.5908 454.886 98.0948C452.612 100.808 449.304 102.268 445.582 102.268C443.721 102.268 441.861 101.851 440 101.225C438.552 100.39 437.105 99.3468 436.071 98.0948C435.038 96.6341 434.211 94.9648 433.797 93.0868C433.384 91.0001 433.177 88.7047 433.177 86.618ZM437.105 86.618C437.105 88.2874 437.312 89.7481 437.519 91.4174C437.725 92.8781 438.346 94.1301 438.966 95.3821C439.586 96.4255 440.62 97.4688 441.654 98.0948C442.894 98.7208 444.135 99.1382 445.582 99.1382C448.063 99.1382 450.544 98.0948 451.992 96.0081C453.439 93.9214 454.266 90.7914 454.266 86.618C454.266 84.9487 454.059 83.488 453.853 81.8187C453.646 80.358 453.026 79.106 452.199 77.854C451.578 76.8106 450.544 75.7673 449.511 75.1413C448.27 74.5153 447.03 74.0979 445.582 74.0979C443.101 74.0979 440.827 75.1413 439.38 77.228C437.725 79.3146 436.898 82.4447 437.105 86.618Z" fill="white"/>
<path d="M89.1308 127.726L87.27 125.013V143.793H81.6875V112.702H85.8227L97.1944 129.186L98.8484 131.899V112.91H104.431V144.002H100.296L89.1308 127.726Z" fill="white"/>
<path d="M129.656 112.702H135.445C135.445 112.702 135.445 127.517 135.445 132.525C135.445 134.195 135.239 136.073 134.618 137.742C134.205 138.994 133.378 140.246 132.344 141.289C131.31 142.333 130.276 142.959 128.829 143.376C127.382 143.793 125.934 144.002 124.28 144.002C116.424 144.002 112.495 140.455 112.495 133.36C112.495 128.143 112.495 112.702 112.495 112.702H118.491C118.491 112.702 118.491 127.308 118.491 132.108C118.905 137.533 122.213 138.785 124.28 138.785C126.555 138.785 129.243 137.742 129.656 132.317C129.863 127.308 129.656 112.702 129.656 112.702Z" fill="white"/>
<path d="M163.564 142.333C162.53 143.167 161.083 143.585 160.049 143.793C158.602 144.002 157.154 144.211 155.707 144.211C153.846 144.211 152.192 144.002 150.331 143.376C148.677 142.75 147.23 141.707 145.989 140.663C144.542 139.203 143.508 137.533 142.888 135.655C142.061 133.151 141.647 130.856 141.647 128.352C141.647 125.848 141.854 123.135 142.888 120.84C143.508 118.962 144.749 117.292 145.989 115.832C147.23 114.58 148.884 113.745 150.538 113.328C152.192 112.91 153.639 112.493 155.5 112.493C157.154 112.493 158.395 112.493 159.842 112.91C160.876 113.119 161.91 113.328 162.944 113.745L161.703 118.753C160.876 118.336 160.049 118.127 159.222 117.918C157.981 117.71 156.948 117.71 155.914 117.71C153.639 117.71 151.365 118.544 149.918 120.214C148.677 121.883 147.85 124.596 147.85 128.143C147.85 129.604 148.057 131.064 148.47 132.525C148.884 133.777 149.298 134.82 150.125 135.864C150.952 136.907 151.779 137.533 153.019 137.95C154.26 138.577 155.5 138.785 156.741 138.785C157.981 138.785 159.015 138.576 160.049 138.368C160.876 138.159 161.703 137.742 162.53 137.324L163.564 142.333Z" fill="white"/>
<path d="M189.202 144.002H170.594V112.702H176.383V138.577H189.202V144.002Z" fill="white"/>
<path d="M197.473 112.702H215.874V118.127H203.469V125.43H214.634V130.856H203.469V138.577H216.081V144.002H197.473V112.702Z" fill="white"/>
<path d="M240.271 137.116H230.76L228.486 144.002H222.283L233.448 112.702H237.997L249.162 144.002H242.752L240.271 137.116ZM232.208 132.317H238.824L235.722 121.466L232.208 132.317Z" fill="white"/>
<path d="M255.365 113.328C255.986 113.119 256.813 113.119 257.433 112.91C258.26 112.702 261.361 112.493 261.981 112.493C262.395 112.493 266.117 112.493 268.184 112.91C269.425 113.119 270.665 113.536 271.906 114.371C272.94 114.997 273.973 115.832 274.594 117.084C275.214 118.336 275.628 119.796 275.628 121.257C275.628 123.344 275.214 125.639 273.973 127.308C272.733 128.978 272.113 129.395 270.459 130.438L278.109 144.002H271.286L264.049 131.273H261.361V143.793H255.365V113.328ZM261.154 118.127V127.308H263.636C265.083 127.308 266.53 127.1 267.564 126.265C268.805 125.43 269.011 123.97 269.011 122.509C269.011 121.257 268.598 120.214 267.771 119.379C266.944 118.544 265.703 118.127 264.463 118.127C264.463 117.918 262.809 117.918 261.154 118.127Z" fill="white"/>
<path d="M331.865 112.702H350.267V118.127H337.861V125.43H349.026V130.856H337.861V138.577H350.473V144.002H331.865V112.702Z" fill="white"/>
<path d="M383.554 118.127H374.25V144.002H368.047V118.127H358.743V112.702H383.554V118.127Z" fill="white"/>
<path d="M400.716 131.482L406.919 112.702H410.847L416.636 131.482L420.978 112.702H426.974L418.704 144.002H414.776L408.573 123.97L402.163 144.002H398.028L389.758 112.702H396.167L400.716 131.482Z" fill="white"/>
<path d="M431.109 128.56C431.109 123.552 432.143 119.796 434.418 117.292C436.692 114.58 440.207 113.119 443.515 113.328C445.376 113.328 447.443 113.745 449.097 114.58C450.545 115.414 451.992 116.249 452.819 117.71C453.853 119.17 454.68 120.84 455.093 122.509C455.714 124.596 455.92 126.682 455.92 128.769C455.92 133.777 454.887 137.533 452.612 140.037C450.338 142.75 446.823 144.211 443.515 144.002C441.654 144.002 439.793 143.585 437.932 142.75C436.485 141.915 435.038 141.081 434.211 139.62C433.177 138.159 432.35 136.49 431.936 134.821C431.316 132.734 431.109 130.647 431.109 128.56ZM437.105 128.56C437.105 129.812 437.312 131.273 437.519 132.525C437.726 133.777 438.139 134.821 438.759 135.864C439.173 136.699 439.793 137.533 440.62 137.951C441.447 138.577 442.481 138.785 443.515 138.785C445.376 138.785 447.03 137.951 448.27 136.281C449.304 134.612 449.924 132.108 449.924 128.352C449.924 127.1 449.718 125.639 449.511 124.387C449.304 123.135 448.891 122.092 448.27 121.048C447.857 120.214 447.237 119.379 446.409 118.962C443.928 117.292 440.413 118.127 438.759 120.631C437.519 122.3 437.105 125.013 437.105 128.56Z" fill="white"/>
<path d="M500.581 130.647H499.34V144.002H493.138V112.702H499.34V126.682L509.472 112.702H516.501L504.923 127.517L517.949 144.002H510.299L500.581 130.647Z" fill="white"/>
<path d="M62.4592 165.286C22.7616 152.975 -1.2224 112.701 6.84117 71.8024C14.4912 33.1987 48.3996 6.07179 86.8566 6.69779C86.8566 5.86312 86.8566 5.23711 87.0634 4.40244C64.9403 3.56776 42.8171 11.4972 26.2765 27.7733C1.67221 51.7702 -5.77109 88.4959 7.66821 120.214C22.9683 156.731 61.6321 177.389 100.296 169.459C104.845 168.416 109.393 167.164 113.735 165.495C113.528 165.077 113.322 164.451 113.115 163.825C97.1946 169.668 79.6201 170.503 62.4592 165.286Z" fill="url(#paint0_linear)" stroke="white" stroke-width="1.04856"/>
<path d="M31.2388 51.1443C35.1212 51.1443 38.2686 47.9679 38.2686 44.0496C38.2686 40.1313 35.1212 36.9548 31.2388 36.9548C27.3563 36.9548 24.209 40.1313 24.209 44.0496C24.209 47.9679 27.3563 51.1443 31.2388 51.1443Z" fill="#F2BE57"/>
<path d="M42.8176 89.5391C46.0149 89.5391 48.6068 86.9232 48.6068 83.6964C48.6068 80.4695 46.0149 77.8536 42.8176 77.8536C39.6203 77.8536 37.0283 80.4695 37.0283 83.6964C37.0283 86.9232 39.6203 89.5391 42.8176 89.5391Z" fill="#F2BE57"/>
<path opacity="0.35" d="M119.317 166.121C121.601 166.121 123.452 164.252 123.452 161.947C123.452 159.642 121.601 157.774 119.317 157.774C117.033 157.774 115.182 159.642 115.182 161.947C115.182 164.252 117.033 166.121 119.317 166.121Z" fill="#F2BE57"/>
<g opacity="0.7">
<path opacity="0.7" d="M96.8956 12.4714C100.051 11.9535 102.194 8.95176 101.68 5.76686C101.167 2.58197 98.193 0.419944 95.0372 0.937853C91.8815 1.45576 89.7392 4.45748 90.2524 7.64238C90.7656 10.8273 93.7398 12.9893 96.8956 12.4714Z" fill="#F2BE57"/>
</g>
<path d="M116.01 10.8713C112.495 9.41059 108.98 8.15858 105.465 7.11523C105.465 7.74124 105.259 8.36725 105.052 8.99325C132.344 15.8793 153.64 36.5375 161.91 63.4558H162.737C155.914 40.0849 138.96 20.6787 116.01 10.8713Z" fill="url(#paint1_linear)" stroke="white" stroke-width="0.52428"/>
<path d="M111.461 153.183C97.4019 159.235 81.068 160.487 65.5611 155.479C32.0663 145.045 11.8039 110.198 18.627 74.9325C20.0743 67.2118 22.9689 59.9084 26.6905 53.4397C25.6567 53.0223 24.623 52.1877 23.7959 51.5616C22.1419 54.483 20.4878 57.4044 19.0405 60.7431C11.5972 78.6886 11.5972 99.1381 19.0405 117.084C26.4838 135.029 40.5434 149.01 58.3246 156.105C67.0084 159.443 76.1058 161.113 85.4099 160.904C96.1613 160.695 106.086 157.983 115.183 153.392H111.461V153.183Z" fill="url(#paint2_linear)" stroke="white" stroke-width="1.04856"/>
<path d="M85.6165 16.7137C67.215 16.2964 50.0541 23.1825 37.0283 35.0766C37.8554 35.7026 38.6824 36.5373 39.3027 37.3719C53.1555 24.2258 72.1772 17.3397 92.2328 19.2178C118.491 21.9305 139.167 40.0846 148.264 63.4555H149.712C139.994 36.7459 115.183 17.5484 85.6165 16.7137Z" fill="url(#paint3_linear)" stroke="white" stroke-width="1.04856"/>
<path d="M71.7628 126.473C68.6614 125.221 65.7668 123.761 62.6654 121.883C52.5342 114.997 46.3315 104.146 44.8842 92.4604C44.0572 92.6691 43.2301 92.8778 42.4031 92.8778C41.7828 92.8778 41.1625 92.8778 40.749 92.6691C41.1625 96.8425 42.1963 100.807 43.8504 104.772C49.0194 117.083 59.3573 125.847 71.556 129.395C71.556 128.56 71.556 127.517 71.7628 126.473Z" fill="url(#paint4_linear)" stroke="white" stroke-width="1.04856"/>
<path d="M115.182 57.4042C111.461 53.2309 106.912 49.8922 101.743 47.5968C96.574 45.3015 90.9915 43.8408 85.409 43.6321C67.4211 42.7974 50.8804 53.4395 43.8506 69.9244C43.2304 71.385 42.8168 72.6371 42.4033 74.0977C43.8506 74.0977 45.0912 74.5151 46.3317 74.9324C46.7452 73.6804 47.1588 72.4284 47.5723 71.385C55.0156 53.0222 74.4509 42.7974 93.6794 46.5535C104.224 48.6402 113.115 54.6915 119.111 63.0383H119.731C118.49 60.9516 116.836 59.0736 115.182 57.4042Z" fill="url(#paint5_linear)"/>
<path d="M115.182 57.4045C110.22 51.7705 103.397 47.8058 96.1606 45.7191C88.9241 43.4237 81.274 43.2151 74.0375 44.8844C66.801 46.5538 59.9779 50.3098 54.6022 55.3179C49.0197 60.3259 45.0913 67.0033 42.817 74.098L42.4035 73.6807C43.8508 73.6807 45.2981 74.098 46.5386 74.5154L45.9184 74.9327C46.9522 71.1767 48.6062 67.6293 50.8806 64.4993C52.9482 61.1606 55.636 58.4479 58.5306 55.7352C64.3199 50.7272 71.5564 47.3885 79.2065 46.1364C86.8565 45.0931 94.7133 45.7191 101.743 48.8491C108.773 51.7705 114.976 56.7785 119.318 63.0386H119.938C118.491 60.9519 116.836 59.0739 115.182 57.4045ZM115.182 57.4045C116.836 59.0739 118.491 60.9519 119.731 63.0386H119.111C114.562 56.7785 108.359 51.9792 101.33 49.0578C94.2998 46.1364 86.443 45.3018 78.9997 46.5538C71.5564 47.8058 64.5266 51.1445 58.7374 56.1525C55.8428 58.6566 53.3617 61.5779 51.2941 64.708C49.2265 67.838 47.7792 71.3853 46.5386 74.9327V75.7674L45.9184 75.5587C44.8846 74.9327 43.644 74.5154 42.4035 74.5154H41.7832L41.99 73.8894C44.2643 66.586 48.6062 59.9086 54.1887 54.6919C59.7712 49.4751 66.801 45.9278 74.0375 44.2584C81.4808 42.5891 89.1309 43.0064 96.3674 45.3018C103.604 47.5971 110.22 51.7705 115.182 57.4045Z" fill="white"/>
<path d="M132.55 153.183C130.275 155.061 127.794 156.73 125.106 158.4C125.313 158.817 125.52 159.234 125.727 159.443C128.208 157.774 130.689 156.104 132.963 154.226C133.377 153.809 133.79 153.6 134.204 153.183H132.55Z" fill="url(#paint6_linear)" stroke="white" stroke-width="0.52428"/>
<path d="M275.42 78.8973V101.851H271.905V70.9679H273.973L291.341 94.5475L291.134 71.3852H294.649V102.268H292.581L275.42 78.8973Z" fill="white"/>
<path d="M471.84 78.8973V101.851H468.325V70.9679H470.393L487.76 94.5475L487.554 71.3852H491.069V102.268H489.001L471.84 78.8973Z" fill="white"/>
<path d="M308.295 127.726L306.434 125.013V143.793H300.852V112.702H304.987L316.358 129.186L318.013 131.899V112.91H323.595V144.002H319.46L308.295 127.726Z" fill="white"/>
<path d="M464.19 113.536C464.811 113.328 465.638 113.328 466.258 113.119C467.085 112.91 470.186 112.702 470.807 112.702C471.22 112.702 474.942 112.702 477.009 113.119C478.25 113.328 479.491 113.745 480.731 114.58C481.765 115.206 482.799 116.04 483.419 117.292C484.039 118.544 484.453 120.005 484.453 121.466C484.453 123.552 484.039 125.848 482.799 127.517C481.558 129.186 480.938 129.604 479.284 130.647L486.934 144.211H480.111L472.874 131.482H470.186V144.002H464.19V113.536ZM469.98 118.127V127.1H472.461C473.908 127.1 475.355 126.891 476.389 126.056C477.63 125.222 477.836 123.761 477.836 122.3C477.836 121.048 477.423 120.005 476.596 119.17C475.769 118.336 474.528 117.918 473.288 117.918C473.288 118.127 471.634 117.918 469.98 118.127Z" fill="white"/>
<path d="M149.462 186.735C149.609 186.735 149.739 186.791 149.852 186.905L150.912 188.055C150.325 188.781 149.602 189.338 148.742 189.725C147.889 190.111 146.862 190.305 145.662 190.305C144.589 190.305 143.622 190.121 142.762 189.755C141.909 189.388 141.179 188.878 140.572 188.225C139.965 187.571 139.499 186.791 139.172 185.885C138.852 184.978 138.692 183.988 138.692 182.915C138.692 181.828 138.865 180.835 139.212 179.935C139.559 179.028 140.045 178.248 140.672 177.595C141.305 176.941 142.059 176.435 142.932 176.075C143.805 175.708 144.772 175.525 145.832 175.525C146.885 175.525 147.819 175.698 148.632 176.045C149.452 176.391 150.149 176.845 150.722 177.405L149.822 178.655C149.769 178.735 149.699 178.805 149.612 178.865C149.532 178.925 149.419 178.955 149.272 178.955C149.172 178.955 149.069 178.928 148.962 178.875C148.855 178.815 148.739 178.745 148.612 178.665C148.485 178.578 148.339 178.485 148.172 178.385C148.005 178.285 147.812 178.195 147.592 178.115C147.372 178.028 147.115 177.958 146.822 177.905C146.535 177.845 146.202 177.815 145.822 177.815C145.175 177.815 144.582 177.931 144.042 178.165C143.509 178.391 143.049 178.725 142.662 179.165C142.275 179.598 141.975 180.131 141.762 180.765C141.549 181.391 141.442 182.108 141.442 182.915C141.442 183.728 141.555 184.451 141.782 185.085C142.015 185.718 142.329 186.251 142.722 186.685C143.115 187.118 143.579 187.451 144.112 187.685C144.645 187.911 145.219 188.025 145.832 188.025C146.199 188.025 146.529 188.005 146.822 187.965C147.122 187.925 147.395 187.861 147.642 187.775C147.895 187.688 148.132 187.578 148.352 187.445C148.579 187.305 148.802 187.135 149.022 186.935C149.089 186.875 149.159 186.828 149.232 186.795C149.305 186.755 149.382 186.735 149.462 186.735ZM160.455 178.315C160.375 178.455 160.288 178.558 160.195 178.625C160.108 178.685 159.998 178.715 159.865 178.715C159.725 178.715 159.571 178.665 159.405 178.565C159.245 178.458 159.051 178.341 158.825 178.215C158.598 178.088 158.331 177.975 158.025 177.875C157.725 177.768 157.368 177.715 156.955 177.715C156.581 177.715 156.255 177.761 155.975 177.855C155.695 177.941 155.458 178.065 155.265 178.225C155.078 178.385 154.938 178.578 154.845 178.805C154.751 179.025 154.705 179.268 154.705 179.535C154.705 179.875 154.798 180.158 154.985 180.385C155.178 180.611 155.431 180.805 155.745 180.965C156.058 181.125 156.415 181.268 156.815 181.395C157.215 181.521 157.625 181.658 158.045 181.805C158.465 181.945 158.875 182.111 159.275 182.305C159.675 182.491 160.031 182.731 160.345 183.025C160.658 183.311 160.908 183.665 161.095 184.085C161.288 184.505 161.385 185.015 161.385 185.615C161.385 186.268 161.271 186.881 161.045 187.455C160.825 188.021 160.498 188.518 160.065 188.945C159.638 189.365 159.115 189.698 158.495 189.945C157.875 190.185 157.165 190.305 156.365 190.305C155.905 190.305 155.451 190.258 155.005 190.165C154.558 190.078 154.128 189.951 153.715 189.785C153.308 189.618 152.925 189.418 152.565 189.185C152.205 188.951 151.885 188.691 151.605 188.405L152.395 187.115C152.461 187.021 152.548 186.945 152.655 186.885C152.761 186.818 152.875 186.785 152.995 186.785C153.161 186.785 153.341 186.855 153.535 186.995C153.728 187.128 153.958 187.278 154.225 187.445C154.491 187.611 154.801 187.765 155.155 187.905C155.515 188.038 155.945 188.105 156.445 188.105C157.211 188.105 157.805 187.925 158.225 187.565C158.645 187.198 158.855 186.675 158.855 185.995C158.855 185.615 158.758 185.305 158.565 185.065C158.378 184.825 158.128 184.625 157.815 184.465C157.501 184.298 157.145 184.158 156.745 184.045C156.345 183.931 155.938 183.808 155.525 183.675C155.111 183.541 154.705 183.381 154.305 183.195C153.905 183.008 153.548 182.765 153.235 182.465C152.921 182.165 152.668 181.791 152.475 181.345C152.288 180.891 152.195 180.335 152.195 179.675C152.195 179.148 152.298 178.635 152.505 178.135C152.718 177.635 153.025 177.191 153.425 176.805C153.825 176.418 154.318 176.108 154.905 175.875C155.491 175.641 156.165 175.525 156.925 175.525C157.778 175.525 158.565 175.658 159.285 175.925C160.005 176.191 160.618 176.565 161.125 177.045L160.455 178.315ZM166.431 190.145H163.731V175.685H166.431V190.145ZM177.369 178.315C177.289 178.455 177.202 178.558 177.109 178.625C177.022 178.685 176.912 178.715 176.779 178.715C176.639 178.715 176.485 178.665 176.319 178.565C176.159 178.458 175.965 178.341 175.739 178.215C175.512 178.088 175.245 177.975 174.939 177.875C174.639 177.768 174.282 177.715 173.869 177.715C173.495 177.715 173.169 177.761 172.889 177.855C172.609 177.941 172.372 178.065 172.179 178.225C171.992 178.385 171.852 178.578 171.759 178.805C171.665 179.025 171.619 179.268 171.619 179.535C171.619 179.875 171.712 180.158 171.899 180.385C172.092 180.611 172.345 180.805 172.659 180.965C172.972 181.125 173.329 181.268 173.729 181.395C174.129 181.521 174.539 181.658 174.959 181.805C175.379 181.945 175.789 182.111 176.189 182.305C176.589 182.491 176.945 182.731 177.259 183.025C177.572 183.311 177.822 183.665 178.009 184.085C178.202 184.505 178.299 185.015 178.299 185.615C178.299 186.268 178.185 186.881 177.959 187.455C177.739 188.021 177.412 188.518 176.979 188.945C176.552 189.365 176.029 189.698 175.409 189.945C174.789 190.185 174.079 190.305 173.279 190.305C172.819 190.305 172.365 190.258 171.919 190.165C171.472 190.078 171.042 189.951 170.629 189.785C170.222 189.618 169.839 189.418 169.479 189.185C169.119 188.951 168.799 188.691 168.519 188.405L169.309 187.115C169.375 187.021 169.462 186.945 169.569 186.885C169.675 186.818 169.789 186.785 169.909 186.785C170.075 186.785 170.255 186.855 170.449 186.995C170.642 187.128 170.872 187.278 171.139 187.445C171.405 187.611 171.715 187.765 172.069 187.905C172.429 188.038 172.859 188.105 173.359 188.105C174.125 188.105 174.719 187.925 175.139 187.565C175.559 187.198 175.769 186.675 175.769 185.995C175.769 185.615 175.672 185.305 175.479 185.065C175.292 184.825 175.042 184.625 174.729 184.465C174.415 184.298 174.059 184.158 173.659 184.045C173.259 183.931 172.852 183.808 172.439 183.675C172.025 183.541 171.619 183.381 171.219 183.195C170.819 183.008 170.462 182.765 170.149 182.465C169.835 182.165 169.582 181.791 169.389 181.345C169.202 180.891 169.109 180.335 169.109 179.675C169.109 179.148 169.212 178.635 169.419 178.135C169.632 177.635 169.939 177.191 170.339 176.805C170.739 176.418 171.232 176.108 171.819 175.875C172.405 175.641 173.079 175.525 173.839 175.525C174.692 175.525 175.479 175.658 176.199 175.925C176.919 176.191 177.532 176.565 178.039 177.045L177.369 178.315ZM190.208 182.955C190.702 182.955 191.132 182.895 191.498 182.775C191.865 182.648 192.168 182.471 192.408 182.245C192.655 182.011 192.838 181.731 192.958 181.405C193.078 181.071 193.138 180.701 193.138 180.295C193.138 179.908 193.078 179.558 192.958 179.245C192.838 178.931 192.658 178.665 192.418 178.445C192.178 178.225 191.875 178.058 191.508 177.945C191.142 177.825 190.708 177.765 190.208 177.765H188.198V182.955H190.208ZM190.208 175.685C191.175 175.685 192.012 175.798 192.718 176.025C193.425 176.251 194.008 176.568 194.468 176.975C194.928 177.381 195.268 177.868 195.488 178.435C195.715 179.001 195.828 179.621 195.828 180.295C195.828 180.995 195.712 181.638 195.478 182.225C195.245 182.805 194.895 183.305 194.428 183.725C193.962 184.145 193.375 184.471 192.668 184.705C191.968 184.938 191.148 185.055 190.208 185.055H188.198V190.145H185.508V175.685H190.208ZM199.675 181.665C199.995 181.051 200.375 180.571 200.815 180.225C201.255 179.871 201.775 179.695 202.375 179.695C202.848 179.695 203.228 179.798 203.515 180.005L203.355 181.855C203.322 181.975 203.272 182.061 203.205 182.115C203.145 182.161 203.062 182.185 202.955 182.185C202.855 182.185 202.705 182.168 202.505 182.135C202.312 182.101 202.122 182.085 201.935 182.085C201.662 182.085 201.418 182.125 201.205 182.205C200.992 182.285 200.798 182.401 200.625 182.555C200.458 182.701 200.308 182.881 200.175 183.095C200.048 183.308 199.928 183.551 199.815 183.825V190.145H197.345V179.885H198.795C199.048 179.885 199.225 179.931 199.325 180.025C199.425 180.111 199.492 180.271 199.525 180.505L199.675 181.665ZM209.053 179.725C209.813 179.725 210.503 179.848 211.123 180.095C211.75 180.341 212.283 180.691 212.723 181.145C213.17 181.598 213.513 182.151 213.753 182.805C213.993 183.458 214.113 184.188 214.113 184.995C214.113 185.808 213.993 186.541 213.753 187.195C213.513 187.848 213.17 188.405 212.723 188.865C212.283 189.325 211.75 189.678 211.123 189.925C210.503 190.171 209.813 190.295 209.053 190.295C208.286 190.295 207.59 190.171 206.963 189.925C206.336 189.678 205.8 189.325 205.353 188.865C204.913 188.405 204.57 187.848 204.323 187.195C204.083 186.541 203.963 185.808 203.963 184.995C203.963 184.188 204.083 183.458 204.323 182.805C204.57 182.151 204.913 181.598 205.353 181.145C205.8 180.691 206.336 180.341 206.963 180.095C207.59 179.848 208.286 179.725 209.053 179.725ZM209.053 188.395C209.906 188.395 210.536 188.108 210.943 187.535C211.356 186.961 211.563 186.121 211.563 185.015C211.563 183.908 211.356 183.065 210.943 182.485C210.536 181.905 209.906 181.615 209.053 181.615C208.186 181.615 207.543 181.908 207.123 182.495C206.71 183.075 206.503 183.915 206.503 185.015C206.503 186.115 206.71 186.955 207.123 187.535C207.543 188.108 208.186 188.395 209.053 188.395ZM218.557 179.885V190.495C218.557 190.941 218.497 191.361 218.377 191.755C218.264 192.148 218.077 192.491 217.817 192.785C217.564 193.085 217.227 193.318 216.807 193.485C216.394 193.658 215.887 193.745 215.287 193.745C215.054 193.745 214.837 193.728 214.637 193.695C214.437 193.668 214.231 193.621 214.017 193.555L214.107 192.225C214.127 192.091 214.181 192.005 214.267 191.965C214.354 191.931 214.521 191.915 214.767 191.915C215.014 191.915 215.221 191.888 215.387 191.835C215.561 191.788 215.697 191.708 215.797 191.595C215.897 191.488 215.967 191.345 216.007 191.165C216.054 190.985 216.077 190.761 216.077 190.495V179.885H218.557ZM218.897 176.895C218.897 177.108 218.854 177.308 218.767 177.495C218.681 177.681 218.564 177.845 218.417 177.985C218.277 178.125 218.107 178.238 217.907 178.325C217.714 178.405 217.507 178.445 217.287 178.445C217.074 178.445 216.874 178.405 216.687 178.325C216.501 178.238 216.337 178.125 216.197 177.985C216.057 177.845 215.944 177.681 215.857 177.495C215.777 177.308 215.737 177.108 215.737 176.895C215.737 176.675 215.777 176.468 215.857 176.275C215.944 176.081 216.057 175.915 216.197 175.775C216.337 175.635 216.501 175.525 216.687 175.445C216.874 175.358 217.074 175.315 217.287 175.315C217.507 175.315 217.714 175.358 217.907 175.445C218.107 175.525 218.277 175.635 218.417 175.775C218.564 175.915 218.681 176.081 218.767 176.275C218.854 176.468 218.897 176.675 218.897 176.895ZM227.685 183.835C227.685 183.515 227.639 183.215 227.545 182.935C227.459 182.648 227.325 182.398 227.145 182.185C226.965 181.971 226.735 181.805 226.455 181.685C226.182 181.558 225.862 181.495 225.495 181.495C224.782 181.495 224.219 181.698 223.805 182.105C223.399 182.511 223.139 183.088 223.025 183.835H227.685ZM222.975 185.325C223.015 185.851 223.109 186.308 223.255 186.695C223.402 187.075 223.595 187.391 223.835 187.645C224.075 187.891 224.359 188.078 224.685 188.205C225.019 188.325 225.385 188.385 225.785 188.385C226.185 188.385 226.529 188.338 226.815 188.245C227.109 188.151 227.362 188.048 227.575 187.935C227.795 187.821 227.985 187.718 228.145 187.625C228.312 187.531 228.472 187.485 228.625 187.485C228.832 187.485 228.985 187.561 229.085 187.715L229.795 188.615C229.522 188.935 229.215 189.205 228.875 189.425C228.535 189.638 228.179 189.811 227.805 189.945C227.439 190.071 227.062 190.161 226.675 190.215C226.295 190.268 225.925 190.295 225.565 190.295C224.852 190.295 224.189 190.178 223.575 189.945C222.962 189.705 222.429 189.355 221.975 188.895C221.522 188.428 221.165 187.855 220.905 187.175C220.645 186.488 220.515 185.695 220.515 184.795C220.515 184.095 220.629 183.438 220.855 182.825C221.082 182.205 221.405 181.668 221.825 181.215C222.252 180.755 222.769 180.391 223.375 180.125C223.989 179.858 224.679 179.725 225.445 179.725C226.092 179.725 226.689 179.828 227.235 180.035C227.782 180.241 228.252 180.545 228.645 180.945C229.039 181.338 229.345 181.825 229.565 182.405C229.792 182.978 229.905 183.635 229.905 184.375C229.905 184.748 229.865 185.001 229.785 185.135C229.705 185.261 229.552 185.325 229.325 185.325H222.975ZM239.109 182.055C239.036 182.148 238.962 182.221 238.889 182.275C238.822 182.328 238.722 182.355 238.589 182.355C238.462 182.355 238.339 182.318 238.219 182.245C238.099 182.165 237.956 182.078 237.789 181.985C237.622 181.885 237.422 181.798 237.189 181.725C236.962 181.645 236.679 181.605 236.339 181.605C235.906 181.605 235.526 181.685 235.199 181.845C234.872 181.998 234.599 182.221 234.379 182.515C234.166 182.808 234.006 183.165 233.899 183.585C233.792 183.998 233.739 184.468 233.739 184.995C233.739 185.541 233.796 186.028 233.909 186.455C234.029 186.881 234.199 187.241 234.419 187.535C234.639 187.821 234.906 188.041 235.219 188.195C235.532 188.341 235.886 188.415 236.279 188.415C236.672 188.415 236.989 188.368 237.229 188.275C237.476 188.175 237.682 188.068 237.849 187.955C238.016 187.835 238.159 187.728 238.279 187.635C238.406 187.535 238.546 187.485 238.699 187.485C238.899 187.485 239.049 187.561 239.149 187.715L239.859 188.615C239.586 188.935 239.289 189.205 238.969 189.425C238.649 189.638 238.316 189.811 237.969 189.945C237.629 190.071 237.276 190.161 236.909 190.215C236.549 190.268 236.189 190.295 235.829 190.295C235.196 190.295 234.599 190.178 234.039 189.945C233.479 189.705 232.989 189.358 232.569 188.905C232.149 188.451 231.816 187.898 231.569 187.245C231.329 186.585 231.209 185.835 231.209 184.995C231.209 184.241 231.316 183.545 231.529 182.905C231.749 182.258 232.069 181.701 232.489 181.235C232.909 180.761 233.429 180.391 234.049 180.125C234.669 179.858 235.382 179.725 236.189 179.725C236.956 179.725 237.626 179.848 238.199 180.095C238.779 180.341 239.299 180.695 239.759 181.155L239.109 182.055ZM244.828 190.305C243.934 190.305 243.248 190.055 242.768 189.555C242.294 189.048 242.058 188.351 242.058 187.465V181.735H241.008C240.874 181.735 240.761 181.691 240.668 181.605C240.574 181.518 240.528 181.388 240.528 181.215V180.235L242.178 179.965L242.698 177.165C242.731 177.031 242.794 176.928 242.888 176.855C242.981 176.781 243.101 176.745 243.248 176.745H244.528V179.975H247.268V181.735H244.528V187.295C244.528 187.615 244.604 187.865 244.758 188.045C244.918 188.225 245.134 188.315 245.408 188.315C245.561 188.315 245.688 188.298 245.788 188.265C245.894 188.225 245.984 188.185 246.058 188.145C246.138 188.105 246.208 188.068 246.268 188.035C246.328 187.995 246.388 187.975 246.448 187.975C246.521 187.975 246.581 187.995 246.628 188.035C246.674 188.068 246.724 188.121 246.778 188.195L247.518 189.395C247.158 189.695 246.744 189.921 246.278 190.075C245.811 190.228 245.328 190.305 244.828 190.305ZM258.252 179.725C259.012 179.725 259.702 179.848 260.322 180.095C260.949 180.341 261.482 180.691 261.922 181.145C262.369 181.598 262.712 182.151 262.952 182.805C263.192 183.458 263.312 184.188 263.312 184.995C263.312 185.808 263.192 186.541 262.952 187.195C262.712 187.848 262.369 188.405 261.922 188.865C261.482 189.325 260.949 189.678 260.322 189.925C259.702 190.171 259.012 190.295 258.252 190.295C257.486 190.295 256.789 190.171 256.162 189.925C255.536 189.678 254.999 189.325 254.552 188.865C254.112 188.405 253.769 187.848 253.522 187.195C253.282 186.541 253.162 185.808 253.162 184.995C253.162 184.188 253.282 183.458 253.522 182.805C253.769 182.151 254.112 181.598 254.552 181.145C254.999 180.691 255.536 180.341 256.162 180.095C256.789 179.848 257.486 179.725 258.252 179.725ZM258.252 188.395C259.106 188.395 259.736 188.108 260.142 187.535C260.556 186.961 260.762 186.121 260.762 185.015C260.762 183.908 260.556 183.065 260.142 182.485C259.736 181.905 259.106 181.615 258.252 181.615C257.386 181.615 256.742 181.908 256.322 182.495C255.909 183.075 255.702 183.915 255.702 185.015C255.702 186.115 255.909 186.955 256.322 187.535C256.742 188.108 257.386 188.395 258.252 188.395ZM267.507 181.145C267.713 180.938 267.93 180.748 268.157 180.575C268.39 180.395 268.633 180.245 268.887 180.125C269.147 179.998 269.423 179.901 269.717 179.835C270.01 179.761 270.33 179.725 270.677 179.725C271.237 179.725 271.733 179.821 272.167 180.015C272.6 180.201 272.96 180.468 273.247 180.815C273.54 181.155 273.76 181.565 273.907 182.045C274.06 182.518 274.137 183.041 274.137 183.615V190.145H271.667V183.615C271.667 182.988 271.523 182.505 271.237 182.165C270.95 181.818 270.513 181.645 269.927 181.645C269.5 181.645 269.1 181.741 268.727 181.935C268.353 182.128 268 182.391 267.667 182.725V190.145H265.197V179.885H266.707C267.027 179.885 267.237 180.035 267.337 180.335L267.507 181.145ZM293.929 175.685V190.145H292.549C292.336 190.145 292.156 190.111 292.009 190.045C291.869 189.971 291.732 189.851 291.599 189.685L284.049 180.045C284.089 180.485 284.109 180.891 284.109 181.265V190.145H281.739V175.685H283.149C283.262 175.685 283.359 175.691 283.439 175.705C283.526 175.711 283.599 175.731 283.659 175.765C283.726 175.791 283.789 175.835 283.849 175.895C283.909 175.948 283.976 176.021 284.049 176.115L291.629 185.795C291.609 185.561 291.592 185.331 291.579 185.105C291.566 184.878 291.559 184.668 291.559 184.475V175.685H293.929ZM305.404 179.885V190.145H303.894C303.567 190.145 303.36 189.995 303.274 189.695L303.104 188.875C302.684 189.301 302.22 189.648 301.714 189.915C301.207 190.175 300.61 190.305 299.924 190.305C299.364 190.305 298.867 190.211 298.434 190.025C298.007 189.831 297.647 189.561 297.354 189.215C297.06 188.868 296.837 188.458 296.684 187.985C296.537 187.505 296.464 186.978 296.464 186.405V179.885H298.934V186.405C298.934 187.031 299.077 187.518 299.364 187.865C299.657 188.205 300.094 188.375 300.674 188.375C301.1 188.375 301.5 188.281 301.874 188.095C302.247 187.901 302.6 187.638 302.934 187.305V179.885H305.404ZM315.203 182.055C315.129 182.148 315.056 182.221 314.983 182.275C314.916 182.328 314.816 182.355 314.683 182.355C314.556 182.355 314.433 182.318 314.313 182.245C314.193 182.165 314.049 182.078 313.883 181.985C313.716 181.885 313.516 181.798 313.283 181.725C313.056 181.645 312.773 181.605 312.433 181.605C311.999 181.605 311.619 181.685 311.293 181.845C310.966 181.998 310.693 182.221 310.473 182.515C310.259 182.808 310.099 183.165 309.993 183.585C309.886 183.998 309.833 184.468 309.833 184.995C309.833 185.541 309.889 186.028 310.003 186.455C310.123 186.881 310.293 187.241 310.513 187.535C310.733 187.821 310.999 188.041 311.313 188.195C311.626 188.341 311.979 188.415 312.373 188.415C312.766 188.415 313.083 188.368 313.323 188.275C313.569 188.175 313.776 188.068 313.943 187.955C314.109 187.835 314.253 187.728 314.373 187.635C314.499 187.535 314.639 187.485 314.793 187.485C314.993 187.485 315.143 187.561 315.243 187.715L315.953 188.615C315.679 188.935 315.383 189.205 315.063 189.425C314.743 189.638 314.409 189.811 314.063 189.945C313.723 190.071 313.369 190.161 313.003 190.215C312.643 190.268 312.283 190.295 311.923 190.295C311.289 190.295 310.693 190.178 310.133 189.945C309.573 189.705 309.083 189.358 308.663 188.905C308.243 188.451 307.909 187.898 307.663 187.245C307.423 186.585 307.303 185.835 307.303 184.995C307.303 184.241 307.409 183.545 307.623 182.905C307.843 182.258 308.163 181.701 308.583 181.235C309.003 180.761 309.523 180.391 310.143 180.125C310.763 179.858 311.476 179.725 312.283 179.725C313.049 179.725 313.719 179.848 314.293 180.095C314.873 180.341 315.393 180.695 315.853 181.155L315.203 182.055ZM320.001 175.285V190.145H317.531V175.285H320.001ZM329.072 183.835C329.072 183.515 329.026 183.215 328.932 182.935C328.846 182.648 328.712 182.398 328.532 182.185C328.352 181.971 328.122 181.805 327.842 181.685C327.569 181.558 327.249 181.495 326.882 181.495C326.169 181.495 325.606 181.698 325.192 182.105C324.786 182.511 324.526 183.088 324.412 183.835H329.072ZM324.362 185.325C324.402 185.851 324.496 186.308 324.642 186.695C324.789 187.075 324.982 187.391 325.222 187.645C325.462 187.891 325.746 188.078 326.072 188.205C326.406 188.325 326.772 188.385 327.172 188.385C327.572 188.385 327.916 188.338 328.202 188.245C328.496 188.151 328.749 188.048 328.962 187.935C329.182 187.821 329.372 187.718 329.532 187.625C329.699 187.531 329.859 187.485 330.012 187.485C330.219 187.485 330.372 187.561 330.472 187.715L331.182 188.615C330.909 188.935 330.602 189.205 330.262 189.425C329.922 189.638 329.566 189.811 329.192 189.945C328.826 190.071 328.449 190.161 328.062 190.215C327.682 190.268 327.312 190.295 326.952 190.295C326.239 190.295 325.576 190.178 324.962 189.945C324.349 189.705 323.816 189.355 323.362 188.895C322.909 188.428 322.552 187.855 322.292 187.175C322.032 186.488 321.902 185.695 321.902 184.795C321.902 184.095 322.016 183.438 322.242 182.825C322.469 182.205 322.792 181.668 323.212 181.215C323.639 180.755 324.156 180.391 324.762 180.125C325.376 179.858 326.066 179.725 326.832 179.725C327.479 179.725 328.076 179.828 328.622 180.035C329.169 180.241 329.639 180.545 330.032 180.945C330.426 181.338 330.732 181.825 330.952 182.405C331.179 182.978 331.292 183.635 331.292 184.375C331.292 184.748 331.252 185.001 331.172 185.135C331.092 185.261 330.939 185.325 330.712 185.325H324.362ZM338.566 185.765C337.852 185.798 337.252 185.861 336.766 185.955C336.279 186.041 335.889 186.155 335.596 186.295C335.302 186.435 335.092 186.598 334.966 186.785C334.839 186.971 334.776 187.175 334.776 187.395C334.776 187.828 334.902 188.138 335.156 188.325C335.416 188.511 335.752 188.605 336.166 188.605C336.672 188.605 337.109 188.515 337.476 188.335C337.849 188.148 338.212 187.868 338.566 187.495V185.765ZM332.906 181.315C334.086 180.235 335.506 179.695 337.166 179.695C337.766 179.695 338.302 179.795 338.776 179.995C339.249 180.188 339.649 180.461 339.976 180.815C340.302 181.161 340.549 181.578 340.716 182.065C340.889 182.551 340.976 183.085 340.976 183.665V190.145H339.856C339.622 190.145 339.442 190.111 339.316 190.045C339.189 189.971 339.089 189.828 339.016 189.615L338.796 188.875C338.536 189.108 338.282 189.315 338.036 189.495C337.789 189.668 337.532 189.815 337.266 189.935C336.999 190.055 336.712 190.145 336.406 190.205C336.106 190.271 335.772 190.305 335.406 190.305C334.972 190.305 334.572 190.248 334.206 190.135C333.839 190.015 333.522 189.838 333.256 189.605C332.989 189.371 332.782 189.081 332.636 188.735C332.489 188.388 332.416 187.985 332.416 187.525C332.416 187.265 332.459 187.008 332.546 186.755C332.632 186.495 332.772 186.248 332.966 186.015C333.166 185.781 333.422 185.561 333.736 185.355C334.049 185.148 334.432 184.968 334.886 184.815C335.346 184.661 335.879 184.538 336.486 184.445C337.092 184.345 337.786 184.285 338.566 184.265V183.665C338.566 182.978 338.419 182.471 338.126 182.145C337.832 181.811 337.409 181.645 336.856 181.645C336.456 181.645 336.122 181.691 335.856 181.785C335.596 181.878 335.366 181.985 335.166 182.105C334.966 182.218 334.782 182.321 334.616 182.415C334.456 182.508 334.276 182.555 334.076 182.555C333.902 182.555 333.756 182.511 333.636 182.425C333.516 182.331 333.419 182.225 333.346 182.105L332.906 181.315ZM345.632 181.665C345.952 181.051 346.332 180.571 346.772 180.225C347.212 179.871 347.732 179.695 348.332 179.695C348.805 179.695 349.185 179.798 349.472 180.005L349.312 181.855C349.279 181.975 349.229 182.061 349.162 182.115C349.102 182.161 349.019 182.185 348.912 182.185C348.812 182.185 348.662 182.168 348.462 182.135C348.269 182.101 348.079 182.085 347.892 182.085C347.619 182.085 347.375 182.125 347.162 182.205C346.949 182.285 346.755 182.401 346.582 182.555C346.415 182.701 346.265 182.881 346.132 183.095C346.005 183.308 345.885 183.551 345.772 183.825V190.145H343.302V179.885H344.752C345.005 179.885 345.182 179.931 345.282 180.025C345.382 180.111 345.449 180.271 345.482 180.505L345.632 181.665ZM358.287 190.145H355.587V175.685H358.287V190.145ZM367.14 181.885C367.073 181.991 367.003 182.068 366.93 182.115C366.857 182.155 366.763 182.175 366.65 182.175C366.53 182.175 366.4 182.141 366.26 182.075C366.127 182.008 365.97 181.935 365.79 181.855C365.61 181.768 365.403 181.691 365.17 181.625C364.943 181.558 364.673 181.525 364.36 181.525C363.873 181.525 363.49 181.628 363.21 181.835C362.937 182.041 362.8 182.311 362.8 182.645C362.8 182.865 362.87 183.051 363.01 183.205C363.157 183.351 363.347 183.481 363.58 183.595C363.82 183.708 364.09 183.811 364.39 183.905C364.69 183.991 364.993 184.088 365.3 184.195C365.613 184.301 365.92 184.425 366.22 184.565C366.52 184.698 366.787 184.871 367.02 185.085C367.26 185.291 367.45 185.541 367.59 185.835C367.737 186.128 367.81 186.481 367.81 186.895C367.81 187.388 367.72 187.845 367.54 188.265C367.367 188.678 367.107 189.038 366.76 189.345C366.413 189.645 365.983 189.881 365.47 190.055C364.963 190.221 364.377 190.305 363.71 190.305C363.357 190.305 363.01 190.271 362.67 190.205C362.337 190.145 362.013 190.058 361.7 189.945C361.393 189.831 361.107 189.698 360.84 189.545C360.58 189.391 360.35 189.225 360.15 189.045L360.72 188.105C360.793 187.991 360.88 187.905 360.98 187.845C361.08 187.785 361.207 187.755 361.36 187.755C361.513 187.755 361.657 187.798 361.79 187.885C361.93 187.971 362.09 188.065 362.27 188.165C362.45 188.265 362.66 188.358 362.9 188.445C363.147 188.531 363.457 188.575 363.83 188.575C364.123 188.575 364.373 188.541 364.58 188.475C364.793 188.401 364.967 188.308 365.1 188.195C365.24 188.081 365.34 187.951 365.4 187.805C365.467 187.651 365.5 187.495 365.5 187.335C365.5 187.095 365.427 186.898 365.28 186.745C365.14 186.591 364.95 186.458 364.71 186.345C364.477 186.231 364.207 186.131 363.9 186.045C363.6 185.951 363.29 185.851 362.97 185.745C362.657 185.638 362.347 185.515 362.04 185.375C361.74 185.228 361.47 185.045 361.23 184.825C360.997 184.605 360.807 184.335 360.66 184.015C360.52 183.695 360.45 183.308 360.45 182.855C360.45 182.435 360.533 182.035 360.7 181.655C360.867 181.275 361.11 180.945 361.43 180.665C361.757 180.378 362.16 180.151 362.64 179.985C363.127 179.811 363.687 179.725 364.32 179.725C365.027 179.725 365.67 179.841 366.25 180.075C366.83 180.308 367.313 180.615 367.7 180.995L367.14 181.885ZM375.929 181.885C375.863 181.991 375.793 182.068 375.719 182.115C375.646 182.155 375.553 182.175 375.439 182.175C375.319 182.175 375.189 182.141 375.049 182.075C374.916 182.008 374.759 181.935 374.579 181.855C374.399 181.768 374.193 181.691 373.959 181.625C373.733 181.558 373.463 181.525 373.149 181.525C372.663 181.525 372.279 181.628 371.999 181.835C371.726 182.041 371.589 182.311 371.589 182.645C371.589 182.865 371.659 183.051 371.799 183.205C371.946 183.351 372.136 183.481 372.369 183.595C372.609 183.708 372.879 183.811 373.179 183.905C373.479 183.991 373.783 184.088 374.089 184.195C374.403 184.301 374.709 184.425 375.009 184.565C375.309 184.698 375.576 184.871 375.809 185.085C376.049 185.291 376.239 185.541 376.379 185.835C376.526 186.128 376.599 186.481 376.599 186.895C376.599 187.388 376.509 187.845 376.329 188.265C376.156 188.678 375.896 189.038 375.549 189.345C375.203 189.645 374.773 189.881 374.259 190.055C373.753 190.221 373.166 190.305 372.499 190.305C372.146 190.305 371.799 190.271 371.459 190.205C371.126 190.145 370.803 190.058 370.489 189.945C370.183 189.831 369.896 189.698 369.629 189.545C369.369 189.391 369.139 189.225 368.939 189.045L369.509 188.105C369.583 187.991 369.669 187.905 369.769 187.845C369.869 187.785 369.996 187.755 370.149 187.755C370.303 187.755 370.446 187.798 370.579 187.885C370.719 187.971 370.879 188.065 371.059 188.165C371.239 188.265 371.449 188.358 371.689 188.445C371.936 188.531 372.246 188.575 372.619 188.575C372.913 188.575 373.163 188.541 373.369 188.475C373.583 188.401 373.756 188.308 373.889 188.195C374.029 188.081 374.129 187.951 374.189 187.805C374.256 187.651 374.289 187.495 374.289 187.335C374.289 187.095 374.216 186.898 374.069 186.745C373.929 186.591 373.739 186.458 373.499 186.345C373.266 186.231 372.996 186.131 372.689 186.045C372.389 185.951 372.079 185.851 371.759 185.745C371.446 185.638 371.136 185.515 370.829 185.375C370.529 185.228 370.259 185.045 370.019 184.825C369.786 184.605 369.596 184.335 369.449 184.015C369.309 183.695 369.239 183.308 369.239 182.855C369.239 182.435 369.323 182.035 369.489 181.655C369.656 181.275 369.899 180.945 370.219 180.665C370.546 180.378 370.949 180.151 371.429 179.985C371.916 179.811 372.476 179.725 373.109 179.725C373.816 179.725 374.459 179.841 375.039 180.075C375.619 180.308 376.103 180.615 376.489 180.995L375.929 181.885ZM387.298 179.885V190.145H385.788C385.462 190.145 385.255 189.995 385.168 189.695L384.998 188.875C384.578 189.301 384.115 189.648 383.608 189.915C383.102 190.175 382.505 190.305 381.818 190.305C381.258 190.305 380.762 190.211 380.328 190.025C379.902 189.831 379.542 189.561 379.248 189.215C378.955 188.868 378.732 188.458 378.578 187.985C378.432 187.505 378.358 186.978 378.358 186.405V179.885H380.828V186.405C380.828 187.031 380.972 187.518 381.258 187.865C381.552 188.205 381.988 188.375 382.568 188.375C382.995 188.375 383.395 188.281 383.768 188.095C384.142 187.901 384.495 187.638 384.828 187.305V179.885H387.298ZM396.357 183.835C396.357 183.515 396.311 183.215 396.217 182.935C396.131 182.648 395.997 182.398 395.817 182.185C395.637 181.971 395.407 181.805 395.127 181.685C394.854 181.558 394.534 181.495 394.167 181.495C393.454 181.495 392.891 181.698 392.477 182.105C392.071 182.511 391.811 183.088 391.697 183.835H396.357ZM391.647 185.325C391.687 185.851 391.781 186.308 391.927 186.695C392.074 187.075 392.267 187.391 392.507 187.645C392.747 187.891 393.031 188.078 393.357 188.205C393.691 188.325 394.057 188.385 394.457 188.385C394.857 188.385 395.201 188.338 395.487 188.245C395.781 188.151 396.034 188.048 396.247 187.935C396.467 187.821 396.657 187.718 396.817 187.625C396.984 187.531 397.144 187.485 397.297 187.485C397.504 187.485 397.657 187.561 397.757 187.715L398.467 188.615C398.194 188.935 397.887 189.205 397.547 189.425C397.207 189.638 396.851 189.811 396.477 189.945C396.111 190.071 395.734 190.161 395.347 190.215C394.967 190.268 394.597 190.295 394.237 190.295C393.524 190.295 392.861 190.178 392.247 189.945C391.634 189.705 391.101 189.355 390.647 188.895C390.194 188.428 389.837 187.855 389.577 187.175C389.317 186.488 389.187 185.695 389.187 184.795C389.187 184.095 389.301 183.438 389.527 182.825C389.754 182.205 390.077 181.668 390.497 181.215C390.924 180.755 391.441 180.391 392.047 180.125C392.661 179.858 393.351 179.725 394.117 179.725C394.764 179.725 395.361 179.828 395.907 180.035C396.454 180.241 396.924 180.545 397.317 180.945C397.711 181.338 398.017 181.825 398.237 182.405C398.464 182.978 398.577 183.635 398.577 184.375C398.577 184.748 398.537 185.001 398.457 185.135C398.377 185.261 398.224 185.325 397.997 185.325H391.647ZM406.691 181.885C406.624 181.991 406.554 182.068 406.481 182.115C406.408 182.155 406.314 182.175 406.201 182.175C406.081 182.175 405.951 182.141 405.811 182.075C405.678 182.008 405.521 181.935 405.341 181.855C405.161 181.768 404.954 181.691 404.721 181.625C404.494 181.558 404.224 181.525 403.911 181.525C403.424 181.525 403.041 181.628 402.761 181.835C402.488 182.041 402.351 182.311 402.351 182.645C402.351 182.865 402.421 183.051 402.561 183.205C402.708 183.351 402.898 183.481 403.131 183.595C403.371 183.708 403.641 183.811 403.941 183.905C404.241 183.991 404.544 184.088 404.851 184.195C405.164 184.301 405.471 184.425 405.771 184.565C406.071 184.698 406.338 184.871 406.571 185.085C406.811 185.291 407.001 185.541 407.141 185.835C407.288 186.128 407.361 186.481 407.361 186.895C407.361 187.388 407.271 187.845 407.091 188.265C406.918 188.678 406.658 189.038 406.311 189.345C405.964 189.645 405.534 189.881 405.021 190.055C404.514 190.221 403.928 190.305 403.261 190.305C402.908 190.305 402.561 190.271 402.221 190.205C401.888 190.145 401.564 190.058 401.251 189.945C400.944 189.831 400.658 189.698 400.391 189.545C400.131 189.391 399.901 189.225 399.701 189.045L400.271 188.105C400.344 187.991 400.431 187.905 400.531 187.845C400.631 187.785 400.758 187.755 400.911 187.755C401.064 187.755 401.208 187.798 401.341 187.885C401.481 187.971 401.641 188.065 401.821 188.165C402.001 188.265 402.211 188.358 402.451 188.445C402.698 188.531 403.008 188.575 403.381 188.575C403.674 188.575 403.924 188.541 404.131 188.475C404.344 188.401 404.518 188.308 404.651 188.195C404.791 188.081 404.891 187.951 404.951 187.805C405.018 187.651 405.051 187.495 405.051 187.335C405.051 187.095 404.978 186.898 404.831 186.745C404.691 186.591 404.501 186.458 404.261 186.345C404.028 186.231 403.758 186.131 403.451 186.045C403.151 185.951 402.841 185.851 402.521 185.745C402.208 185.638 401.898 185.515 401.591 185.375C401.291 185.228 401.021 185.045 400.781 184.825C400.548 184.605 400.358 184.335 400.211 184.015C400.071 183.695 400.001 183.308 400.001 182.855C400.001 182.435 400.084 182.035 400.251 181.655C400.418 181.275 400.661 180.945 400.981 180.665C401.308 180.378 401.711 180.151 402.191 179.985C402.678 179.811 403.238 179.725 403.871 179.725C404.578 179.725 405.221 179.841 405.801 180.075C406.381 180.308 406.864 180.615 407.251 180.995L406.691 181.885Z" fill="#F2BE57"/>
<defs>
<linearGradient id="paint0_linear" x1="2.19118" y1="87.7405" x2="115.046" y2="87.7405" gradientUnits="userSpaceOnUse">
<stop stop-color="#A3A5A9"/>
<stop offset="0.17" stop-color="#A3A5A9" stop-opacity="0.98"/>
<stop offset="0.32" stop-color="#A3A5A9" stop-opacity="0.91"/>
<stop offset="0.671" stop-color="#A3A5A9" stop-opacity="0.8"/>
<stop offset="1" stop-color="#A3A5A9" stop-opacity="0"/>
</linearGradient>
<linearGradient id="paint1_linear" x1="105.622" y1="35.3481" x2="163.442" y2="35.3481" gradientUnits="userSpaceOnUse">
<stop stop-color="#A3A5A9"/>
<stop offset="0.17" stop-color="#A3A5A9" stop-opacity="0.98"/>
<stop offset="0.32" stop-color="#A3A5A9" stop-opacity="0.91"/>
<stop offset="0.47" stop-color="#A3A5A9" stop-opacity="0.8"/>
<stop offset="0.61" stop-color="#A3A5A9" stop-opacity="0.65"/>
<stop offset="1" stop-color="#A3A5A9" stop-opacity="0"/>
</linearGradient>
<linearGradient id="paint2_linear" x1="13.458" y1="106.081" x2="124.005" y2="106.081" gradientUnits="userSpaceOnUse">
<stop stop-color="#A3A5A9"/>
<stop offset="0.967" stop-color="#A4A6A9" stop-opacity="0.3"/>
<stop offset="0.997" stop-color="#A4A6A9" stop-opacity="0.2"/>
</linearGradient>
<linearGradient id="paint3_linear" x1="37.0531" y1="40.1055" x2="149.712" y2="40.1055" gradientUnits="userSpaceOnUse">
<stop stop-color="#A3A5A9"/>
<stop offset="0.855" stop-color="#A3A5A9" stop-opacity="0.1453"/>
<stop offset="1" stop-color="#A3A5A9" stop-opacity="0"/>
</linearGradient>
<linearGradient id="paint4_linear" x1="40.6518" y1="111.03" x2="73.4086" y2="111.03" gradientUnits="userSpaceOnUse">
<stop stop-color="#A3A5A9"/>
<stop offset="0.999" stop-color="#A4A6A9" stop-opacity="0.6"/>
</linearGradient>
<linearGradient id="paint5_linear" x1="42.3578" y1="59.3261" x2="119.731" y2="59.3261" gradientUnits="userSpaceOnUse">
<stop stop-color="#A3A5A9"/>
<stop offset="0.95" stop-color="#A3A5A9" stop-opacity="0.2402"/>
<stop offset="1" stop-color="#A3A5A9" stop-opacity="0.2"/>
</linearGradient>
<linearGradient id="paint6_linear" x1="125.187" y1="156.294" x2="139.356" y2="156.294" gradientUnits="userSpaceOnUse">
<stop stop-color="#A3A5A9" stop-opacity="0.5"/>
<stop offset="0.95" stop-color="#A3A5A9" stop-opacity="0.2151"/>
<stop offset="1" stop-color="#A3A5A9" stop-opacity="0.2"/>
</linearGradient>
</defs>
</svg>
