<svg width="251" height="83" viewBox="0 0 251 83" fill="none" xmlns="http://www.w3.org/2000/svg">
<path d="M41.7001 37.8096V48.8096H40.0001V34.0096H41.0001L49.4001 45.3096L49.3001 34.2096H51.0001V49.0096H50.0001L41.7001 37.8096Z" fill="white"/>
<path d="M56.0001 34.0096H63.9001V35.6096H57.7001V40.5096H63.4001V42.1096H57.7001V47.4096H64.0001V49.0096H56.0001V34.0096Z" fill="white"/>
<path d="M73.0001 41.4096L68.4001 34.0096H70.6001L74.1001 40.0096L77.9001 34.0096H79.8001L75.1001 41.4096L80.0001 49.0096H77.9001L74.1001 43.0096L70.0001 49.0096H68.0001L73.0001 41.4096Z" fill="white"/>
<path d="M94.0001 35.6096H89.4001V49.0096H87.6001V35.6096H83.0001V34.0096H94.0001V35.6096Z" fill="white"/>
<path d="M108.8 41.5096H114V47.9096C113.7 48.1096 113.5 48.2096 113.2 48.4096C112.9 48.5096 112.5 48.7096 112.1 48.8096C111.7 48.9096 111.3 48.9096 110.9 49.0096C110.5 49.1096 110.1 49.1096 109.7 49.1096C108.8 49.1096 107.9 49.0096 107 48.7096C106.2 48.4096 105.5 47.9096 104.9 47.3096C104.3 46.6096 103.8 45.8096 103.5 45.0096C103.1 43.9096 103 42.8096 103 41.6096C103 40.4096 103.2 39.3096 103.6 38.2096C104 37.3096 104.5 36.5096 105.2 35.9096C105.8 35.3096 106.6 34.9096 107.4 34.6096C108.2 34.3096 109 34.2096 109.9 34.2096C110.6 34.2096 111.4 34.2096 112.1 34.3096C112.6 34.4096 113.1 34.5096 113.6 34.7096L113.1 36.2096C112.1 35.8096 111.1 35.7096 110.1 35.7096C109.5 35.7096 108.9 35.8096 108.3 36.0096C107.7 36.2096 107.1 36.5096 106.6 37.0096C106.1 37.5096 105.7 38.2096 105.4 38.8096C105.1 39.7096 104.9 40.7096 104.9 41.6096C104.9 42.5096 105 43.4096 105.3 44.3096C105.5 45.0096 105.9 45.6096 106.3 46.2096C106.7 46.7096 107.3 47.1096 107.9 47.3096C108.6 47.5096 109.3 47.7096 110 47.7096C110.8 47.7096 111.7 47.5096 112.4 47.2096V42.9096H108.8V41.5096Z" fill="white"/>
<path d="M119 34.0096H126.9V35.6096H120.7V40.5096H126.4V42.1096H120.7V47.4096H127V49.0096H119V34.0096Z" fill="white"/>
<path d="M148 34.0096H155.9V35.6096H149.7V40.5096H155.3V42.1096H149.7V47.4096H156V49.0096H148V34.0096Z" fill="white"/>
<path d="M161 34.2097C161.6 34.1097 162.2 34.0097 162.9 34.0097C163.6 33.9097 164.2 33.9097 164.8 33.9097C165.4 33.9097 165.9 34.0097 166.7 34.1097C167.3 34.2097 167.8 34.5097 168.2 34.8097C168.7 35.2097 169 35.6097 169.3 36.1097C170.1 37.7097 169.8 39.6097 168.8 40.9097C168.2 41.6097 167.5 41.9097 166.6 42.2097L171 48.8097H169L164.9 42.4097H162.8V48.8097H161V34.2097ZM164.3 35.3097C164 35.3097 163.3 35.3097 163.3 35.3097C163.2 35.3097 163.1 35.3097 162.9 35.3097V40.9097H164.6C165.5 40.9097 166.3 40.7097 167 40.2097C167.7 39.7097 168 38.8097 168 37.9097C168 37.2097 167.7 36.5097 167.2 36.0097C166.4 35.6097 166 35.3097 164.3 35.3097Z" fill="white"/>
<path d="M183.6 44.9096H178.2L176.7 49.0096H175L180.6 34.0096H181.4L187 49.0096H185.1L183.6 44.9096ZM178.8 43.4096H183.1L181 37.2096L178.8 43.4096Z" fill="white"/>
<path d="M199 35.6096H194.4V49.0096H192.6V35.6096H188V34.0096H199V35.6096Z" fill="white"/>
<path d="M203 34.0096H205V49.0096H203V34.0096Z" fill="white"/>
<path d="M210 41.5096C210 39.1096 210.5 37.2096 211.6 36.0096C212.7 34.7096 214.3 34.0096 216 34.0096C216.9 34.0096 217.8 34.2096 218.7 34.5096C219.4 34.8096 220.1 35.4096 220.6 36.0096C221.1 36.7096 221.5 37.5096 221.7 38.4096C221.9 39.4096 222.1 40.4096 222.1 41.5096C222.1 43.9096 221.6 45.8096 220.5 47.0096C219.4 48.3096 217.8 49.0096 216 49.0096C215.1 49.0096 214.2 48.8096 213.3 48.5096C212.6 48.1096 211.9 47.6096 211.4 47.0096C210.9 46.3096 210.5 45.5096 210.3 44.6096C210.1 43.6096 210 42.5096 210 41.5096ZM211.9 41.5096C211.9 42.3096 212 43.0096 212.1 43.8096C212.2 44.5096 212.5 45.1096 212.8 45.7096C213.1 46.2096 213.6 46.7096 214.1 47.0096C214.7 47.3096 215.3 47.5096 216 47.5096C217.2 47.5096 218.4 47.0096 219.1 46.0096C219.8 45.0096 220.2 43.5096 220.2 41.5096C220.2 40.7096 220.1 40.0096 220 39.2096C219.9 38.5096 219.6 37.9096 219.2 37.3096C218.9 36.8096 218.4 36.3096 217.9 36.0096C217.3 35.7096 216.7 35.5096 216 35.5096C214.8 35.5096 213.7 36.0096 213 37.0096C212.2 38.0096 211.8 39.5096 211.9 41.5096Z" fill="white"/>
<path d="M43.6001 61.2096L42.7001 59.9096V68.9096H40.0001V54.0096H42.0001L47.5001 61.9096L48.3001 63.2096V54.1096H51.0001V69.0096H49.0001L43.6001 61.2096Z" fill="white"/>
<path d="M63.2001 54.0096H66.0001C66.0001 54.0096 66.0001 61.1096 66.0001 63.5096C66.0001 64.3096 65.9001 65.2096 65.6001 66.0096C65.4001 66.6096 65.0001 67.2096 64.5001 67.7096C64.0001 68.2096 63.5001 68.5096 62.8001 68.7096C62.1001 68.9096 61.4001 69.0096 60.6001 69.0096C56.8001 69.0096 54.9001 67.3096 54.9001 63.9096C54.9001 61.4096 54.9001 54.0096 54.9001 54.0096H57.8001C57.8001 54.0096 57.8001 61.0096 57.8001 63.3096C58.0001 65.9096 59.6001 66.5096 60.6001 66.5096C61.7001 66.5096 63.0001 66.0096 63.2001 63.4096C63.3001 61.0096 63.2001 54.0096 63.2001 54.0096Z" fill="white"/>
<path d="M79.6001 68.2097C79.1001 68.6097 78.4001 68.8097 77.9001 68.9097C77.2001 69.0097 76.5001 69.1097 75.8001 69.1097C74.9001 69.1097 74.1001 69.0097 73.2001 68.7097C72.4001 68.4097 71.7001 67.9097 71.1001 67.4097C70.4001 66.7097 69.9001 65.9097 69.6001 65.0097C69.2001 63.8097 69.0001 62.7097 69.0001 61.5097C69.0001 60.3097 69.1001 59.0097 69.6001 57.9097C69.9001 57.0097 70.5001 56.2097 71.1001 55.5097C71.7001 54.9097 72.5001 54.5097 73.3001 54.3097C74.1001 54.1097 74.8001 53.9097 75.7001 53.9097C76.5001 53.9097 77.1001 53.9097 77.8001 54.1097C78.3001 54.2097 78.8001 54.3097 79.3001 54.5097L78.7001 56.9097C78.3001 56.7097 77.9001 56.6097 77.5001 56.5097C76.9001 56.4097 76.4001 56.4097 75.9001 56.4097C74.8001 56.4097 73.7001 56.8097 73.0001 57.6097C72.4001 58.4097 72.0001 59.7097 72.0001 61.4097C72.0001 62.1097 72.1001 62.8097 72.3001 63.5097C72.5001 64.1097 72.7001 64.6097 73.1001 65.1097C73.5001 65.6097 73.9001 65.9097 74.5001 66.1097C75.1001 66.4097 75.7001 66.5097 76.3001 66.5097C76.9001 66.5097 77.4001 66.4097 77.9001 66.3097C78.3001 66.2097 78.7001 66.0097 79.1001 65.8097L79.6001 68.2097Z" fill="white"/>
<path d="M92.0001 69.0096H83.0001V54.0096H85.8001V66.4096H92.0001V69.0096Z" fill="white"/>
<path d="M96.0001 54.0096H104.9V56.6096H98.9001V60.1096H104.3V62.7096H98.9001V66.4096H105V69.0096H96.0001V54.0096Z" fill="white"/>
<path d="M116.7 65.7096H112.1L111 69.0096H108L113.4 54.0096H115.6L121 69.0096H117.9L116.7 65.7096ZM112.8 63.4096H116L114.5 58.2096L112.8 63.4096Z" fill="white"/>
<path d="M124 54.3097C124.3 54.2097 124.7 54.2097 125 54.1097C125.4 54.0097 126.9 53.9097 127.2 53.9097C127.4 53.9097 129.2 53.9097 130.2 54.1097C130.8 54.2097 131.4 54.4097 132 54.8097C132.5 55.1097 133 55.5097 133.3 56.1097C133.6 56.7097 133.8 57.4097 133.8 58.1097C133.8 59.1097 133.6 60.2097 133 61.0097C132.4 61.8097 132.1 62.0097 131.3 62.5097L135 69.0097H131.7L128.2 62.9097H126.9V68.9097H124V54.3097ZM126.8 56.6097V61.0097H128C128.7 61.0097 129.4 60.9097 129.9 60.5097C130.5 60.1097 130.6 59.4097 130.6 58.7097C130.6 58.1097 130.4 57.6097 130 57.2097C129.6 56.8097 129 56.6097 128.4 56.6097C128.4 56.5097 127.6 56.5097 126.8 56.6097Z" fill="white"/>
<path d="M161 54.0096H169.9V56.6096H163.9V60.1096H169.3V62.7096H163.9V66.4096H170V69.0096H161V54.0096Z" fill="white"/>
<path d="M186 56.6096H181.5V69.0096H178.5V56.6096H174V54.0096H186V56.6096Z" fill="white"/>
<path d="M194.3 63.0096L197.3 54.0096H199.2L202 63.0096L204.1 54.0096H207L203 69.0096H201.1L198.1 59.4096L195 69.0096H193L189 54.0096H192.1L194.3 63.0096Z" fill="white"/>
<path d="M209 61.6096C209 59.2096 209.5 57.4096 210.6 56.2096C211.7 54.9096 213.4 54.2096 215 54.3096C215.9 54.3096 216.9 54.5096 217.7 54.9096C218.4 55.3096 219.1 55.7096 219.5 56.4096C220 57.1096 220.4 57.9096 220.6 58.7096C220.9 59.7096 221 60.7096 221 61.7096C221 64.1096 220.5 65.9096 219.4 67.1096C218.3 68.4096 216.6 69.1096 215 69.0096C214.1 69.0096 213.2 68.8096 212.3 68.4096C211.6 68.0096 210.9 67.6096 210.5 66.9096C210 66.2096 209.6 65.4096 209.4 64.6096C209.1 63.6096 209 62.6096 209 61.6096ZM211.9 61.6096C211.9 62.2096 212 62.9096 212.1 63.5096C212.2 64.1096 212.4 64.6096 212.7 65.1096C212.9 65.5096 213.2 65.9096 213.6 66.1096C214 66.4096 214.5 66.5096 215 66.5096C215.9 66.5096 216.7 66.1096 217.3 65.3096C217.8 64.5096 218.1 63.3096 218.1 61.5096C218.1 60.9096 218 60.2096 217.9 59.6096C217.8 59.0096 217.6 58.5096 217.3 58.0096C217.1 57.6096 216.8 57.2096 216.4 57.0096C215.2 56.2096 213.5 56.6096 212.7 57.8096C212.1 58.6096 211.9 59.9096 211.9 61.6096Z" fill="white"/>
<path d="M242.6 62.6096H242V69.0096H239V54.0096H242V60.7096L246.9 54.0096H250.3L244.7 61.1096L251 69.0096H247.3L242.6 62.6096Z" fill="white"/>
<path d="M30.7001 79.2096C11.5001 73.3096 -0.0999124 54.0097 3.80009 34.4096C7.50009 15.9096 23.9001 2.90965 42.5001 3.20965C42.5001 2.80965 42.5001 2.50965 42.6001 2.10965C31.9001 1.70965 21.2001 5.50965 13.2001 13.3096C1.30009 24.8096 -2.29991 42.4096 4.20009 57.6096C11.6001 75.1096 30.3001 85.0097 49.0001 81.2096C51.2001 80.7096 53.4001 80.1096 55.5001 79.3096C55.4001 79.1096 55.3001 78.8097 55.2001 78.5097C47.5001 81.3097 39.0001 81.7096 30.7001 79.2096Z" fill="url(#paint0_linear)" stroke="white" stroke-width="0.5"/>
<path d="M15.6001 24.5096C17.4778 24.5096 19.0001 22.9874 19.0001 21.1096C19.0001 19.2318 17.4778 17.7096 15.6001 17.7096C13.7223 17.7096 12.2001 19.2318 12.2001 21.1096C12.2001 22.9874 13.7223 24.5096 15.6001 24.5096Z" fill="#F0C061"/>
<path d="M21.2001 42.9097C22.7465 42.9097 24.0001 41.6561 24.0001 40.1097C24.0001 38.5633 22.7465 37.3097 21.2001 37.3097C19.6538 37.3097 18.4001 38.5633 18.4001 40.1097C18.4001 41.6561 19.6538 42.9097 21.2001 42.9097Z" fill="#F0C061"/>
<path opacity="0.35" d="M58.2001 79.6096C59.3046 79.6096 60.2001 78.7142 60.2001 77.6096C60.2001 76.505 59.3046 75.6096 58.2001 75.6096C57.0955 75.6096 56.2001 76.505 56.2001 77.6096C56.2001 78.7142 57.0955 79.6096 58.2001 79.6096Z" fill="#F0C061"/>
<g opacity="0.7">
<path opacity="0.7" d="M47.3556 5.9766C48.8819 5.72841 49.918 4.2899 49.6698 2.7636C49.4216 1.23731 47.9831 0.201207 46.4568 0.449404C44.9305 0.6976 43.8944 2.13611 44.1426 3.6624C44.3908 5.1887 45.8293 6.2248 47.3556 5.9766Z" fill="#F0C061"/>
</g>
<path d="M56.6 5.20967C54.9 4.50967 53.2 3.90967 51.5 3.40967C51.5 3.70967 51.4 4.00967 51.3 4.30967C64.5 7.60967 74.8001 17.5097 78.8001 30.4097H79.2C75.9 19.2097 67.7 9.90967 56.6 5.20967Z" fill="url(#paint1_linear)" stroke="white" stroke-width="0.25"/>
<path d="M54.4001 73.4096C47.6001 76.3096 39.7001 76.9096 32.2001 74.5096C16.0001 69.5096 6.20012 52.8096 9.50012 35.9096C10.2001 32.2096 11.6001 28.7096 13.4001 25.6096C12.9001 25.4096 12.4001 25.0096 12.0001 24.7096C11.2001 26.1096 10.4001 27.5096 9.70012 29.1096C6.10012 37.7096 6.10012 47.5096 9.70012 56.1096C13.3001 64.7096 20.1001 71.4096 28.7001 74.8096C32.9001 76.4096 37.3001 77.2096 41.8001 77.1096C47.0001 77.0096 51.8001 75.7096 56.2001 73.5096H54.4001V73.4096Z" fill="url(#paint2_linear)" stroke="white" stroke-width="0.5"/>
<path d="M41.9001 8.0097C33.0001 7.8097 24.7001 11.1097 18.4001 16.8097C18.8001 17.1097 19.2001 17.5097 19.5001 17.9097C26.2001 11.6097 35.4001 8.3097 45.1001 9.2097C57.8001 10.5097 67.8001 19.2097 72.2001 30.4097H72.9001C68.2001 17.6097 56.2001 8.4097 41.9001 8.0097Z" fill="url(#paint3_linear)" stroke="white" stroke-width="0.5"/>
<path d="M35.2001 60.6097C33.7001 60.0097 32.3001 59.3097 30.8001 58.4097C25.9001 55.1097 22.9001 49.9097 22.2001 44.3097C21.8001 44.4097 21.4001 44.5097 21.0001 44.5097C20.7001 44.5097 20.4001 44.5097 20.2001 44.4097C20.4001 46.4097 20.9001 48.3097 21.7001 50.2097C24.2001 56.1097 29.2001 60.3097 35.1001 62.0097C35.1001 61.6097 35.1001 61.1097 35.2001 60.6097Z" fill="url(#paint4_linear)" stroke="white" stroke-width="0.5"/>
<path d="M56.2001 27.5096C54.4001 25.5096 52.2001 23.9096 49.7001 22.8096C47.2001 21.7096 44.5001 21.0096 41.8001 20.9096C33.1001 20.5096 25.1001 25.6096 21.7001 33.5096C21.4001 34.2096 21.2001 34.8096 21.0001 35.5096C21.7001 35.5096 22.3001 35.7096 22.9001 35.9096C23.1001 35.3096 23.3001 34.7096 23.5001 34.2096C27.1001 25.4096 36.5001 20.5096 45.8001 22.3096C50.9001 23.3096 55.2001 26.2096 58.1001 30.2096H58.4001C57.8001 29.2096 57.0001 28.3096 56.2001 27.5096Z" fill="url(#paint5_linear)"/>
<path d="M56.2001 27.5096C53.8001 24.8096 50.5001 22.9096 47.0001 21.9096C43.5001 20.8096 39.8001 20.7096 36.3001 21.5096C32.8001 22.3096 29.5001 24.1096 26.9001 26.5096C24.2001 28.9096 22.3001 32.1096 21.2001 35.5096L21.0001 35.3096C21.7001 35.3096 22.4001 35.5096 23.0001 35.7096L22.7001 35.9096C23.2001 34.1096 24.0001 32.4096 25.1001 30.9096C26.1001 29.3096 27.4001 28.0096 28.8001 26.7096C31.6001 24.3096 35.1001 22.7096 38.8001 22.1096C42.5001 21.6096 46.3001 21.9096 49.7001 23.4096C53.1001 24.8096 56.1001 27.2096 58.2001 30.2096H58.5001C57.8001 29.2096 57.0001 28.3096 56.2001 27.5096ZM56.2001 27.5096C57.0001 28.3096 57.8001 29.2096 58.4001 30.2096H58.1001C55.9001 27.2096 52.9001 24.9096 49.5001 23.5096C46.1001 22.1096 42.3001 21.7096 38.7001 22.3096C35.1001 22.9096 31.7001 24.5096 28.9001 26.9096C27.5001 28.1096 26.3001 29.5096 25.3001 31.0096C24.3001 32.5096 23.6001 34.2096 23.0001 35.9096V36.3096L22.7001 36.2096C22.2001 35.9096 21.6001 35.7096 21.0001 35.7096H20.7001L20.8001 35.4096C21.9001 31.9096 24.0001 28.7096 26.7001 26.2096C29.4001 23.7096 32.8001 22.0096 36.3001 21.2096C39.9001 20.4096 43.6001 20.6096 47.1001 21.7096C50.6001 22.8096 53.8001 24.8096 56.2001 27.5096Z" fill="white"/>
<path d="M64.6001 73.4097C63.5001 74.3097 62.3001 75.1097 61.0001 75.9097C61.1001 76.1097 61.2001 76.3097 61.3001 76.4097C62.5001 75.6097 63.7001 74.8097 64.8001 73.9097C65.0001 73.7097 65.2001 73.6097 65.4001 73.4097H64.6001Z" fill="url(#paint6_linear)" stroke="white" stroke-width="0.25"/>
<path d="M133.7 37.8096V48.8096H132V34.0096H133L141.4 45.3096L141.3 34.2096H143V49.0096H142L133.7 37.8096Z" fill="white"/>
<path d="M228.7 37.8096V48.8096H227V34.0096H228L236.4 45.3096L236.3 34.2096H238V49.0096H237L228.7 37.8096Z" fill="white"/>
<path d="M149.6 61.2096L148.7 59.9096V68.9096H146V54.0096H148L153.5 61.9096L154.3 63.2096V54.1096H157V69.0096H155L149.6 61.2096Z" fill="white"/>
<path d="M225 54.4096C225.3 54.3096 225.7 54.3096 226 54.2096C226.4 54.1096 227.9 54.0096 228.2 54.0096C228.4 54.0096 230.2 54.0096 231.2 54.2096C231.8 54.3096 232.4 54.5096 233 54.9096C233.5 55.2096 234 55.6096 234.3 56.2096C234.6 56.8096 234.8 57.5096 234.8 58.2096C234.8 59.2096 234.6 60.3096 234 61.1096C233.4 61.9096 233.1 62.1096 232.3 62.6096L236 69.1096H232.7L229.2 63.0096H227.9V69.0096H225V54.4096ZM227.8 56.6096V60.9096H229C229.7 60.9096 230.4 60.8096 230.9 60.4096C231.5 60.0096 231.6 59.3096 231.6 58.6096C231.6 58.0096 231.4 57.5096 231 57.1096C230.6 56.7096 230 56.5096 229.4 56.5096C229.4 56.6096 228.6 56.5096 227.8 56.6096Z" fill="white"/>
<defs>
<linearGradient id="paint0_linear" x1="1.55109" y1="42.0476" x2="56.1341" y2="42.0476" gradientUnits="userSpaceOnUse">
<stop stop-color="#A3A5A9"/>
<stop offset="0.17" stop-color="#A3A5A9" stop-opacity="0.98"/>
<stop offset="0.32" stop-color="#A3A5A9" stop-opacity="0.91"/>
<stop offset="0.671" stop-color="#A3A5A9" stop-opacity="0.8"/>
<stop offset="1" stop-color="#A3A5A9" stop-opacity="0"/>
</linearGradient>
<linearGradient id="paint1_linear" x1="51.576" y1="16.9397" x2="79.541" y2="16.9397" gradientUnits="userSpaceOnUse">
<stop stop-color="#A3A5A9"/>
<stop offset="0.17" stop-color="#A3A5A9" stop-opacity="0.98"/>
<stop offset="0.32" stop-color="#A3A5A9" stop-opacity="0.91"/>
<stop offset="0.47" stop-color="#A3A5A9" stop-opacity="0.8"/>
<stop offset="0.61" stop-color="#A3A5A9" stop-opacity="0.65"/>
<stop offset="1" stop-color="#A3A5A9" stop-opacity="0"/>
</linearGradient>
<linearGradient id="paint2_linear" x1="7.00012" y1="50.8366" x2="60.4671" y2="50.8366" gradientUnits="userSpaceOnUse">
<stop stop-color="#A3A5A9"/>
<stop offset="0.967" stop-color="#A4A6A9" stop-opacity="0.3"/>
<stop offset="0.997" stop-color="#A4A6A9" stop-opacity="0.2"/>
</linearGradient>
<linearGradient id="paint3_linear" x1="18.4121" y1="19.2197" x2="72.9001" y2="19.2197" gradientUnits="userSpaceOnUse">
<stop stop-color="#A3A5A9"/>
<stop offset="0.855" stop-color="#A3A5A9" stop-opacity="0.1453"/>
<stop offset="1" stop-color="#A3A5A9" stop-opacity="0"/>
</linearGradient>
<linearGradient id="paint4_linear" x1="20.1531" y1="53.2087" x2="35.9961" y2="53.2087" gradientUnits="userSpaceOnUse">
<stop stop-color="#A3A5A9"/>
<stop offset="0.999" stop-color="#A4A6A9" stop-opacity="0.6"/>
</linearGradient>
<linearGradient id="paint5_linear" x1="20.9781" y1="28.4306" x2="58.4001" y2="28.4306" gradientUnits="userSpaceOnUse">
<stop stop-color="#A3A5A9"/>
<stop offset="0.95" stop-color="#A3A5A9" stop-opacity="0.2402"/>
<stop offset="1" stop-color="#A3A5A9" stop-opacity="0.2"/>
</linearGradient>
<linearGradient id="paint6_linear" x1="61.0391" y1="74.9007" x2="67.8921" y2="74.9007" gradientUnits="userSpaceOnUse">
<stop stop-color="#A3A5A9" stop-opacity="0.5"/>
<stop offset="0.95" stop-color="#A3A5A9" stop-opacity="0.2151"/>
<stop offset="1" stop-color="#A3A5A9" stop-opacity="0.2"/>
</linearGradient>
</defs>
</svg>
