<svg width="26" height="28" viewBox="0 0 26 28" fill="none" xmlns="http://www.w3.org/2000/svg">
<g clip-path="url(#clip0)">
<path d="M5.61366 4.65664C6.34586 4.65664 6.93942 4.06308 6.93942 3.33088C6.93942 2.59869 6.34586 2.00513 5.61366 2.00513C4.88146 2.00513 4.2879 2.59869 4.2879 3.33088C4.2879 4.06308 4.88146 4.65664 5.61366 4.65664Z" fill="#F0C061"/>
<path opacity="0.93" d="M5.67677 15.7677C6.30437 15.7677 6.81313 15.259 6.81313 14.6314C6.81313 14.0038 6.30437 13.495 5.67677 13.495C5.04917 13.495 4.54041 14.0038 4.54041 14.6314C4.54041 15.259 5.04917 15.7677 5.67677 15.7677Z" fill="#F0C061"/>
<path opacity="0.55" d="M19.8182 4.15159C20.3063 4.15159 20.702 3.75588 20.702 3.26775C20.702 2.77962 20.3063 2.38391 19.8182 2.38391C19.33 2.38391 18.9343 2.77962 18.9343 3.26775C18.9343 3.75588 19.33 4.15159 19.8182 4.15159Z" fill="#F0C061"/>
<path d="M17.6586 23.5395C14.9379 25.0017 11.5844 25.256 8.73704 24.2388C7.28174 23.7302 5.953 22.9038 4.81407 21.8866C3.67515 20.8694 2.78931 19.5344 2.15658 18.1994C0.891106 15.4022 0.764558 12.16 1.71366 9.29917C2.28313 7.64627 3.16896 6.12052 4.30788 4.84906C4.18134 4.72192 3.99151 4.59477 3.92824 4.40405C2.66277 5.73908 1.71366 7.32841 1.1442 9.04488C0.131822 12.0964 0.321643 15.4657 1.65039 18.3901C2.97914 21.3145 5.57336 23.6031 8.54722 24.5567C10.0658 25.0653 11.6476 25.1924 13.2295 25.0653C14.8113 24.8745 16.3299 24.4295 17.6586 23.6667C20.3794 22.2045 22.5307 19.598 23.4798 16.6101C22.5307 19.598 20.3794 22.1409 17.6586 23.5395Z" fill="url(#paint0_linear)"/>
<path d="M18.6818 2.31487C17.9873 1.85922 17.2929 1.53376 16.4722 1.27339C13.505 0.166815 10.0959 0.492278 7.25503 1.98941C7.25503 1.98941 7.19189 1.98941 7.19189 2.0545C7.31816 2.18469 7.38129 2.37996 7.50755 2.51015C8.83331 1.79413 10.2853 1.27339 11.8005 1.07811C13.3156 0.882834 14.8308 1.07811 16.3459 1.53376C17.1035 1.79413 17.798 2.11959 18.4924 2.51015C18.5555 2.44506 18.6187 2.37996 18.6818 2.31487Z" fill="url(#paint1_linear)"/>
<path d="M23.1188 7.51404C22.6098 6.30839 21.8463 5.22966 20.9556 4.27783C20.8919 4.34129 20.8919 4.40474 20.8283 4.40474C21.7191 5.29311 22.4826 6.37185 23.0552 7.5775C24.3913 10.3695 24.5186 13.7326 23.5642 16.6516C24.5822 13.7326 24.455 10.3695 23.1188 7.51404Z" fill="url(#paint2_linear)"/>
<path d="M16.4368 19.9241C14.6555 20.8781 12.4289 21.0689 10.5204 20.3693C8.61191 19.7333 7.0851 18.2069 6.3217 16.3626C6.3217 16.299 6.25808 16.2354 6.25808 16.1718C6.06723 16.2354 5.87638 16.299 5.74915 16.299C5.81276 16.4262 5.81276 16.4898 5.87638 16.617C6.76702 18.5249 8.48467 20.1149 10.5204 20.6873C12.5562 21.3233 14.7828 21.0689 16.564 19.9877C18.4089 18.9701 19.7449 17.2529 20.381 15.2814C19.6176 17.3165 18.2181 18.9701 16.4368 19.9241Z" fill="url(#paint3_linear)"/>
<path d="M20.0629 9.30306C19.2359 7.39509 17.6455 5.80512 15.6733 5.10553C13.7012 4.40594 11.411 4.59674 9.5025 5.61432C7.59399 6.6319 6.19442 8.34907 5.49463 10.3842C5.24017 11.211 5.11293 12.0378 5.04932 12.8646C5.17655 12.801 5.3674 12.801 5.55825 12.801C5.62187 12.801 5.62187 12.801 5.68549 12.801C5.7491 12.0378 5.87634 11.2746 6.1308 10.575C6.76697 8.66707 8.03931 7.0135 9.82059 6.05951C11.5382 5.04193 13.7012 4.78753 15.6097 5.42352C17.5182 5.99591 19.1723 7.45869 20.0629 9.36666C20.9536 11.211 21.0172 13.437 20.381 15.345C20.9536 13.437 20.8899 11.211 20.0629 9.30306Z" fill="url(#paint4_linear)"/>
<path d="M16.0087 17.3763L14.8621 15.7928V27.2573H11.3586V8.19202H13.9066L21.041 18.3264L22.0602 19.9099V8.3187H25.5V27.3839H22.952L16.0087 17.3763Z" fill="white"/>
</g>
<defs>
<linearGradient id="paint0_linear" x1="0.0609554" y1="12.8425" x2="22.2823" y2="20.3251" gradientUnits="userSpaceOnUse">
<stop stop-color="#A3A5A9"/>
<stop offset="1" stop-color="#A3A5A9" stop-opacity="0"/>
</linearGradient>
<linearGradient id="paint1_linear" x1="7.74303" y1="1.53221" x2="17.1586" y2="4.78572" gradientUnits="userSpaceOnUse">
<stop stop-color="#A3A5A9"/>
<stop offset="1" stop-color="#A3A5A9" stop-opacity="0.4"/>
</linearGradient>
<linearGradient id="paint2_linear" x1="22.2756" y1="9.42721" x2="23.3253" y2="9.77801" gradientUnits="userSpaceOnUse">
<stop stop-color="#A3A5A9" stop-opacity="0.3"/>
<stop offset="1" stop-color="#A3A5A9" stop-opacity="0"/>
</linearGradient>
<linearGradient id="paint3_linear" x1="6.1722" y1="17.6612" x2="18.1512" y2="21.675" gradientUnits="userSpaceOnUse">
<stop stop-color="#A3A5A9"/>
<stop offset="1" stop-color="#A3A5A9" stop-opacity="0"/>
</linearGradient>
<linearGradient id="paint4_linear" x1="6.39927" y1="8.95204" x2="20.6929" y2="13.7415" gradientUnits="userSpaceOnUse">
<stop stop-color="#A3A5A9"/>
<stop offset="1" stop-color="#A3A5A9" stop-opacity="0"/>
</linearGradient>
<clipPath id="clip0">
<rect width="25" height="26.7677" fill="white" transform="translate(0.5 0.616211)"/>
</clipPath>
</defs>
</svg>
